<?xml version="1.0" encoding="UTF-8" standalone="no"?>
<!-- Created with Inkscape (http://www.inkscape.org/) -->

<svg
   width="210mm"
   height="297mm"
   viewBox="0 0 210 297"
   version="1.1"
   id="svg5"
   inkscape:version="1.1.2 (0a00cf5339, 2022-02-04)"
   sodipodi:docname="all.svg"
   xmlns:inkscape="http://www.inkscape.org/namespaces/inkscape"
   xmlns:sodipodi="http://sodipodi.sourceforge.net/DTD/sodipodi-0.dtd"
   xmlns="http://www.w3.org/2000/svg"
   xmlns:svg="http://www.w3.org/2000/svg">
  <sodipodi:namedview
     id="namedview7"
     pagecolor="#ffffff"
     bordercolor="#999999"
     borderopacity="1"
     inkscape:pageshadow="0"
     inkscape:pageopacity="0"
     inkscape:pagecheckerboard="0"
     inkscape:document-units="mm"
     showgrid="false"
     inkscape:zoom="1.5500842"
     inkscape:cx="299.33858"
     inkscape:cy="168.37795"
     inkscape:window-width="1920"
     inkscape:window-height="1043"
     inkscape:window-x="1920"
     inkscape:window-y="0"
     inkscape:window-maximized="1"
     inkscape:current-layer="layer1" />
  <defs
     id="defs2">
    <rect
       x="262.00466"
       y="247.70427"
       width="283.26389"
       height="77.649588"
       id="rect7138" />
  </defs>
  <g
     inkscape:label="Calque 1"
     inkscape:groupmode="layer"
     id="layer1">
    <g
       id="g10371"
       inkscape:export-filename="/home/lucas.buffan/Documents/GitHub/PhD/Chapter_1/figures/Figure_1/all_species.png"
       inkscape:export-xdpi="400"
       inkscape:export-ydpi="400">
      <rect
         style="fill:#ffffff;stroke-width:0.439251"
         id="rect933"
         width="64.318932"
         height="50.327896"
         x="69.322067"
         y="20.816936" />
      <path
         d="m 94.70226,23.218406 c -0.02117,0.01177 -0.04704,0.03998 -0.0588,0.06115 -0.03173,0.0588 -0.02703,0.209313 0.01177,0.350423 0.05527,0.197557 0.03645,0.312797 -0.06585,0.388057 -0.02703,0.02 -0.09407,0.05762 -0.148167,0.08467 -0.205787,0.09878 -0.321026,0.181093 -0.52799,0.377473 -0.168156,0.1611 -0.281046,0.249296 -0.525639,0.413926 -0.328083,0.221074 -0.620887,0.456257 -0.78199,0.624413 -0.09995,0.105834 -0.12347,0.143464 -0.112886,0.184624 0.02233,0.0929 0.302209,0.404516 0.489183,0.544453 0.161103,0.12112 0.273989,0.150516 0.412749,0.104656 0.03528,-0.01177 0.169334,-0.0682 0.298687,-0.127 0.46096,-0.206963 0.797276,-0.329259 1.151229,-0.419806 0.31162,-0.07879 0.45273,-0.09878 0.71261,-0.09878 0.318676,0 0.458609,0.0294 0.946619,0.19873 0.229307,0.07996 1.027758,0.373947 1.268821,0.466843 l 0.10466,0.03998 0.07173,0.132876 c 0.03998,0.07291 0.119943,0.197557 0.177563,0.278697 0.22225,0.306916 0.235187,0.338666 0.235187,0.563266 0,0.15052 -0.0035,0.175214 -0.03881,0.299864 -0.124646,0.435089 -0.428036,1.006589 -0.730249,1.375832 -0.02823,0.03528 -0.128174,0.14111 -0.219897,0.235183 -0.201083,0.205787 -0.25165,0.26811 -0.339843,0.41863 -0.111712,0.189323 -0.204608,0.264583 -0.385702,0.309267 -0.151693,0.03763 -0.19638,0.07526 -0.19638,0.161103 0,0.104657 0.04586,0.12112 0.338667,0.122297 0.399815,0 0.639702,-0.05527 0.776108,-0.181094 0.05762,-0.05292 0.09525,-0.12112 0.125827,-0.223426 0.0388,-0.138757 0.139933,-0.306917 0.321026,-0.537397 0.119943,-0.154046 0.278693,-0.308093 0.437443,-0.42451 0.288103,-0.209313 0.58326,-0.542099 0.71614,-0.804333 0.02,-0.03998 0.05997,-0.142286 0.08937,-0.22813 0.0588,-0.170506 0.08232,-0.223422 0.10113,-0.223422 0.0059,0 0.0341,0.01177 0.06115,0.0247 0.333963,0.170509 0.451557,0.479776 0.503297,1.333499 0.0071,0.122296 0.0141,0.344546 0.0153,0.493886 0.0013,0.236363 -0.0013,0.27752 -0.02,0.325733 -0.04468,0.116417 -0.24224,0.251647 -0.511527,0.3516 -0.11877,0.04469 -0.181093,0.09878 -0.20226,0.175214 -0.01763,0.06585 0.0013,0.108186 0.05292,0.11877 0.0976,0.02117 0.651463,0.0013 0.806684,-0.0294 0.15405,-0.0294 0.23284,-0.08114 0.26811,-0.17521 0.007,-0.01763 0.0176,-0.09525 0.0235,-0.17404 0.009,-0.105834 0.0188,-0.15522 0.0365,-0.1905 0.0329,-0.06232 0.0611,-0.199907 0.11171,-0.54798 0.0541,-0.372767 0.0894,-0.558563 0.15288,-0.824323 0.08,-0.333963 0.0999,-0.466843 0.0999,-0.682036 v -0.185797 l 0.16698,-0.0071 c 0.0929,-0.0035 0.36689,-0.01293 0.60913,-0.0188 1.06538,-0.0294 1.56868,-0.06585 2.18721,-0.159927 0.31398,-0.04821 0.8161,-0.114063 0.93487,-0.124647 0.0553,-0.0047 0.04,-0.05997 0.13523,0.50212 0.0847,0.508 0.10583,0.69262 0.10583,0.924276 0,0.29398 -0.047,0.45861 -0.1905,0.665573 -0.19638,0.28575 -0.51035,0.503297 -0.86195,0.596193 -0.19756,0.05292 -0.24224,0.06938 -0.30457,0.111714 -0.0635,0.04351 -0.0941,0.10466 -0.0941,0.18815 0,0.08467 0.0153,0.09525 0.13171,0.08702 0.0835,-0.0059 0.0941,-0.0035 0.1317,0.0247 0.0976,0.07055 0.10231,0.07173 0.25871,0.07055 0.15992,-0.0013 0.3269,-0.03293 0.47742,-0.09407 0.1517,-0.05997 0.21402,-0.105833 0.28222,-0.205786 0.0412,-0.06115 0.19168,-0.177564 0.33632,-0.26223 0.0541,-0.03173 0.14817,-0.08584 0.20932,-0.122297 0.0611,-0.03528 0.14699,-0.09055 0.1905,-0.122297 0.0658,-0.04821 0.0811,-0.06703 0.0964,-0.112889 0.0282,-0.08702 0.0623,-0.296334 0.0835,-0.51388 0.0106,-0.110537 0.0294,-0.303387 0.0423,-0.429213 0.04,-0.408044 0.10818,-0.77846 0.16463,-0.899583 0.04,-0.08584 0.0623,-0.07291 0.13993,0.08232 0.14817,0.29751 0.48683,0.717313 0.94074,1.170046 0.1658,0.16463 0.32808,0.336314 0.36218,0.381 0.17286,0.23048 0.17992,0.361007 0.0247,0.508 -0.12229,0.114063 -0.25635,0.170507 -0.47625,0.199907 -0.0764,0.0094 -0.15287,0.02587 -0.17168,0.03528 -0.0447,0.02353 -0.0682,0.08114 -0.0682,0.168157 0,0.06703 0.002,0.07173 0.0365,0.08937 0.0658,0.0341 0.62677,0.05292 0.85725,0.0294 0.1952,-0.02117 0.30809,-0.06703 0.3469,-0.142286 0.0106,-0.0188 0.0235,-0.07408 0.0282,-0.12112 0.0129,-0.11289 0.0517,-0.195204 0.13876,-0.293984 0.0776,-0.08702 0.13052,-0.174036 0.14581,-0.241063 0.0447,-0.192853 -0.17874,-0.607953 -0.61148,-1.139473 -0.24577,-0.302213 -0.30221,-0.393933 -0.34337,-0.55386 -0.0341,-0.130526 -0.0329,-0.389229 10e-4,-0.546806 0.0341,-0.154046 0.10348,-0.353953 0.18932,-0.542099 0.14229,-0.30927 0.17169,-0.33749 0.36336,-0.344547 0.13876,-0.0059 0.27635,0.0247 0.41981,0.09172 0.30339,0.142287 0.46919,0.332787 0.71379,0.823147 0.14699,0.296333 0.23988,0.506822 0.53269,1.222962 0.35983,0.87724 0.35278,0.86313 0.42686,0.943093 0.17286,0.189323 0.65499,0.523287 0.69732,0.480953 0.0223,-0.02233 -0.0165,-0.10701 -0.11759,-0.254 -0.3269,-0.476249 -0.31632,-0.458613 -0.4445,-0.785519 -0.0988,-0.251647 -0.35983,-0.86548 -0.61853,-1.448739 -0.2105,-0.477427 -0.32809,-0.766703 -0.32809,-0.804333 0,-0.03057 -0.14934,-0.31985 -0.2634,-0.512704 -0.34808,-0.584436 -0.90194,-1.120656 -1.49578,-1.445212 -0.34102,-0.18697 -0.87959,-0.396287 -1.18416,-0.45861 -0.0494,-0.01057 -0.15287,-0.0247 -0.2293,-0.03057 -0.16698,-0.0141 -0.28458,-0.04116 -0.508,-0.117593 -0.35748,-0.12112 -1.02894,-0.270463 -1.81093,-0.399817 -0.76553,-0.127 -1.21943,-0.162276 -1.87442,-0.148166 -0.64088,0.0141 -1.05128,0.05057 -1.63689,0.14229 -0.543279,0.08584 -0.911343,0.11524 -1.462852,0.114063 -0.71614,0 -1.214729,-0.05292 -1.928514,-0.201083 -0.217547,-0.04586 -0.52564,-0.08937 -0.78787,-0.11289 -0.585613,-0.05174 -0.578556,-0.04939 -0.761999,-0.24224 -0.174037,-0.182267 -0.290454,-0.235183 -0.38688,-0.175213 z"
         id="path826"
         style="fill:#000000;stroke:none;stroke-width:0.00117592" />
      <path
         d="m 113.42837,47.712603 c -0.25165,0.05056 -0.42686,0.2246 -0.4833,0.479776 -0.0153,0.07173 -0.0188,0.127 -0.0129,0.295157 0.007,0.211667 0.0223,0.301037 0.067,0.389233 l 0.0212,0.04233 -0.0823,0.0635 c -0.21284,0.165803 -0.38335,0.386876 -0.60913,0.790219 -0.0717,0.128177 -0.10348,0.163453 -0.23519,0.256353 -0.15992,0.112887 -0.18344,0.15287 -0.25988,0.437444 -0.0176,0.0682 -0.0858,0.155223 -0.42686,0.550333 -0.38217,0.443323 -0.50682,0.604426 -0.53269,0.692619 -0.0388,0.134057 0.006,0.270464 0.12465,0.381 0.0647,0.0588 0.0741,0.0635 0.14228,0.07056 0.20344,0.02117 0.44921,0.01057 0.97602,-0.04586 0.1517,-0.0153 0.41628,-0.0341 0.58796,-0.03998 0.17169,-0.0059 0.49742,-0.0247 0.7232,-0.04116 0.52093,-0.03645 0.61736,-0.03763 0.64676,-0.0059 0.0188,0.02 0.02,0.0294 0.008,0.0682 -0.02,0.06703 -0.0741,0.131703 -0.14464,0.171686 -0.0564,0.03293 -0.0682,0.04704 -0.11289,0.13523 -0.0541,0.108187 -0.0753,0.129354 -0.12583,0.130527 -0.0259,0 -0.0447,-0.01177 -0.0764,-0.04821 -0.0235,-0.02587 -0.0647,-0.07173 -0.0905,-0.09995 l -0.0482,-0.05174 h -0.0894 c -0.0494,0 -0.10348,0.0059 -0.12112,0.01177 l -0.0317,0.01293 0.0459,0.04116 c 0.0259,0.02233 0.0694,0.05174 0.0988,0.06585 0.067,0.03057 0.13171,0.07879 0.12348,0.09172 -0.004,0.0047 -0.02,0.01293 -0.0365,0.01647 -0.0247,0.0071 -0.047,-0.0023 -0.10936,-0.04351 -0.10466,-0.06938 -0.14112,-0.08231 -0.2152,-0.07644 -0.0894,0.0071 -0.28928,0.05527 -0.34219,0.08232 l -0.0459,0.02233 0.0564,0.03645 c 0.0447,0.02823 0.0635,0.0341 0.0976,0.02823 0.0235,-0.0047 0.0882,-0.01057 0.14346,-0.0141 0.0858,-0.0059 0.10936,-0.0035 0.15522,0.01647 0.0588,0.02587 0.16463,0.116416 0.15405,0.13288 -0.003,0.0059 -0.06,0.01057 -0.12583,0.01057 -0.11053,0 -0.12465,0.0023 -0.17874,0.0341 -0.0318,0.0188 -0.10936,0.07879 -0.17051,0.131707 -0.12229,0.108183 -0.12229,0.112887 10e-4,0.11524 0.0717,0.0013 0.11995,-0.01647 0.20226,-0.07408 l 0.0682,-0.04821 0.1517,-0.0035 c 0.14581,-0.0035 0.15052,-0.0035 0.16933,0.02233 0.0106,0.0153 0.0188,0.03528 0.0188,0.04469 0,0.0094 -0.0353,0.05174 -0.0788,0.09407 -0.0682,0.06585 -0.0847,0.09055 -0.11289,0.168157 -0.0306,0.08114 -0.0329,0.09525 -0.02,0.13288 l 0.0141,0.04351 0.13759,-0.139937 c 0.14346,-0.145813 0.19285,-0.179916 0.30221,-0.20461 0.0753,-0.01763 0.10113,-0.01057 0.1905,0.04821 0.0788,0.05292 0.1317,0.136406 0.1317,0.206963 0,0.04939 0.0106,0.07526 0.0306,0.07526 0.008,0 0.0341,0.01647 0.0576,0.03645 0.0482,0.04351 0.0588,0.0388 0.0753,-0.03528 0.02,-0.0929 -0.0212,-0.235183 -0.0988,-0.33749 -0.0282,-0.03645 -0.0282,-0.03763 -0.006,-0.05762 0.0129,-0.01177 0.0259,-0.03881 0.0306,-0.06115 0.0106,-0.05645 0.0494,-0.08114 0.14111,-0.09055 0.0459,-0.0047 0.10113,-0.02 0.13524,-0.03645 0.0953,-0.04939 0.16698,-0.07408 0.33631,-0.117594 0.21872,-0.05762 0.30104,-0.08467 0.39393,-0.130526 l 0.0788,-0.03881 0.047,0.07291 c 0.0647,0.10113 0.0741,0.130526 0.0753,0.231656 10e-4,0.109364 -0.02,0.183447 -0.10936,0.382177 -0.0953,0.21402 -0.10818,0.255176 -0.11641,0.382176 -0.004,0.06115 -0.0129,0.12112 -0.0188,0.131704 -0.0223,0.03763 -0.13759,0.127 -0.16346,0.127 -0.0306,0 -0.0611,-0.02703 -0.11406,-0.09878 -0.0282,-0.03998 -0.0459,-0.05409 -0.0682,-0.05409 -0.0388,0 -0.28223,0.117593 -0.31045,0.150516 -0.0223,0.0247 -0.0223,0.0247 0.0212,0.03293 0.0235,0.0035 0.0823,0.0047 0.13053,0.0023 0.0788,-0.0059 0.0894,-0.0035 0.10466,0.0188 0.0247,0.03293 0.0223,0.0388 -0.0176,0.05997 -0.0459,0.02353 -0.0929,0.02233 -0.1905,-0.0071 -0.10466,-0.03173 -0.22578,-0.02703 -0.30222,0.01177 -0.047,0.0247 -0.1658,0.134057 -0.1658,0.154047 0,0.0047 0.0294,0.0141 0.0635,0.02117 0.067,0.0141 0.10818,0.0071 0.2293,-0.0388 0.067,-0.0247 0.11407,-0.01647 0.21872,0.0388 0.11407,0.06115 0.11877,0.108187 0.0106,0.108187 -0.06,0 -0.0952,0.02703 -0.15169,0.111713 -0.0235,0.0341 -0.0659,0.08231 -0.0964,0.107007 -0.0623,0.05174 -0.0858,0.09996 -0.0858,0.179916 v 0.05762 l 0.0717,-0.03057 c 0.06,-0.02703 0.0823,-0.04468 0.13053,-0.10936 0.0941,-0.125823 0.17286,-0.155223 0.31985,-0.123473 0.0482,0.01177 0.0905,0.02703 0.0929,0.03645 0.004,0.0082 -0.0165,0.08349 -0.0459,0.166983 -0.0717,0.20461 -0.0753,0.22225 -0.0623,0.289277 0.006,0.03177 0.0106,0.08467 0.0106,0.11524 0,0.03173 0.005,0.05762 0.009,0.05762 0.0188,0 0.10701,-0.08232 0.1317,-0.122296 0.0129,-0.02233 0.0317,-0.08232 0.0423,-0.13288 0.0412,-0.221074 0.0894,-0.29751 0.18462,-0.29751 0.0976,0 0.15758,0.06115 0.22813,0.235186 0.0435,0.10936 0.10701,0.195204 0.13641,0.18462 0.0176,-0.0059 0.0353,-0.15875 0.027,-0.232833 -0.008,-0.07761 -0.0388,-0.145817 -0.10348,-0.22578 -0.0306,-0.0388 -0.0565,-0.07879 -0.0565,-0.08702 0,-0.0094 0.0129,-0.0341 0.0282,-0.05409 0.0423,-0.05762 0.0635,-0.10348 0.0847,-0.191676 0.0294,-0.119944 0.0388,-0.13288 0.10348,-0.125824 0.12112,0.0141 0.27046,-0.04116 0.56562,-0.209313 0.17051,-0.0976 0.18462,-0.10466 0.47625,-0.22225 0.45508,-0.185796 0.635,-0.310446 0.77023,-0.536223 0.0459,-0.07644 0.0541,-0.08349 0.14582,-0.130527 0.17521,-0.08702 0.36101,-0.12112 0.67733,-0.12112 0.24694,0 0.3516,0.0082 0.85725,0.07173 0.20578,0.0247 0.39511,0.04586 0.42098,0.04586 0.06,0 0.10936,0.0294 0.13288,0.07761 0.0259,0.05527 0.0223,0.08114 -0.0188,0.128173 -0.0517,0.0588 -0.10936,0.07291 -0.19638,0.04821 -0.11759,-0.03293 -0.127,-0.0294 -0.33631,0.09878 -0.10466,0.0635 -0.19991,0.127 -0.21049,0.138757 -0.0188,0.02 -0.0165,0.02233 0.0553,0.04586 l 0.0753,0.0235 0.11406,-0.07055 c 0.0941,-0.0588 0.12583,-0.07173 0.17757,-0.07644 0.0741,-0.0059 0.0847,0.01177 0.0188,0.03057 -0.0247,0.0082 -0.0788,0.04116 -0.11877,0.07291 -0.0412,0.03293 -0.10466,0.07526 -0.14111,0.0929 -0.0964,0.04939 -0.21284,0.181094 -0.21284,0.24224 0,0.01057 0.007,0.01763 0.0153,0.0153 0.007,-0.0023 0.0611,-0.0188 0.11876,-0.03763 0.10113,-0.03173 0.10937,-0.03763 0.18815,-0.119943 0.067,-0.07056 0.0941,-0.09055 0.14111,-0.104657 0.0717,-0.02233 0.14464,-0.02233 0.18345,-0.0013 l 0.0294,0.01647 -0.0353,0.0141 c -0.15287,0.06115 -0.20814,0.10701 -0.33161,0.275166 -0.0435,0.0588 -0.0506,0.07644 -0.0506,0.127 v 0.0588 l 0.0412,-0.03645 c 0.0235,-0.02 0.0564,-0.03998 0.0741,-0.04351 0.0647,-0.01647 0.11876,-0.05174 0.15992,-0.108184 0.0858,-0.117593 0.17639,-0.175213 0.25753,-0.16463 l 0.0329,0.0035 -0.0412,0.04821 c -0.0576,0.0682 -0.0658,0.09525 -0.0658,0.226953 0,0.111714 0.0153,0.189324 0.0365,0.189324 0.006,0 0.0212,-0.02 0.0341,-0.04468 0.0141,-0.02353 0.0376,-0.06115 0.0529,-0.08232 0.0235,-0.03293 0.027,-0.04939 0.0212,-0.09055 -0.0153,-0.118767 0.0153,-0.163453 0.18462,-0.26811 l 0.0999,-0.06115 h 0.10818 c 0.10701,0 0.10819,0 0.14935,0.03998 0.067,0.06468 0.0741,0.09643 0.0423,0.174037 -0.0247,0.0588 -0.0259,0.06938 -0.0106,0.09525 0.0341,0.06115 0.0517,0.05997 0.11759,-0.0035 0.0717,-0.07056 0.0976,-0.116417 0.0882,-0.154047 -0.005,-0.0153 -0.027,-0.0588 -0.0506,-0.09643 -0.0365,-0.05527 -0.0447,-0.08114 -0.0506,-0.151693 -0.007,-0.09643 -0.0259,-0.128176 -0.10701,-0.189323 -0.15757,-0.116417 -0.18697,-0.1564 -0.16227,-0.215197 0.0235,-0.05997 0.0635,-0.07055 0.19402,-0.05762 0.13523,0.0141 0.2787,0.0023 0.59267,-0.04704 0.33161,-0.05174 0.32103,-0.05056 0.36689,-0.03177 0.06,0.0247 0.0976,0.08231 0.15052,0.225777 0.0741,0.206963 0.13758,0.277519 0.2975,0.337493 0.10349,0.0388 0.17757,0.112886 0.19521,0.195203 0.0388,0.18697 -0.0294,0.309267 -0.19403,0.34337 -0.0717,0.0153 -0.0905,0.01293 -0.26105,-0.03763 -0.14464,-0.04233 -0.18463,-0.03881 -0.23637,0.02117 -0.0788,0.08937 -0.10465,0.191676 -0.0564,0.221073 0.0165,0.01057 0.0353,0.0047 0.0941,-0.02587 0.13759,-0.07173 0.22696,-0.04586 0.36454,0.105833 l 0.0847,0.09407 0.08,-0.0071 c 0.0882,-0.0082 0.0952,-0.0047 0.17286,0.0976 0.0235,0.03177 0.04,0.03998 0.0847,0.04469 0.0835,0.0094 0.0929,0.02703 0.10113,0.182266 l 0.008,0.13288 0.0412,0.02 c 0.0223,0.01177 0.0553,0.03645 0.0729,0.05527 0.0165,0.0188 0.0341,0.03177 0.0376,0.02823 0.0106,-0.01177 0.007,-0.11054 -0.006,-0.16816 -0.007,-0.0294 -0.0141,-0.09055 -0.0153,-0.13523 -0.002,-0.07761 -0.0141,-0.111714 -0.0576,-0.174037 -0.0118,-0.01647 -0.0106,-0.02233 0.003,-0.03177 0.0282,-0.0188 0.0776,-0.01293 0.0988,0.01057 0.0282,0.03057 0.0541,0.183443 0.0517,0.29986 l -0.002,0.09995 0.0435,0.03881 c 0.0235,0.02117 0.0506,0.05409 0.06,0.07291 l 0.0176,0.03528 0.0129,-0.03528 c 0.0223,-0.05527 0.0282,-0.163454 0.0118,-0.2246 -0.008,-0.03057 -0.0153,-0.08937 -0.0176,-0.13053 -0.002,-0.0588 -0.0118,-0.09172 -0.0447,-0.157574 l -0.0423,-0.08231 0.0435,0.0082 c 0.10583,0.02 0.13641,0.05409 0.17992,0.20814 0.0517,0.182267 0.0682,0.21872 0.12347,0.281047 0.0282,0.03177 0.0553,0.07173 0.0588,0.08937 0.008,0.0294 0.009,0.0294 0.0176,0.0094 0.0153,-0.03998 0.0118,-0.21049 -0.008,-0.31162 -0.02,-0.110537 -0.0811,-0.290453 -0.10701,-0.319853 -0.009,-0.01057 -0.06,-0.0341 -0.11054,-0.05056 -0.0517,-0.01763 -0.0929,-0.03528 -0.0929,-0.04116 0,-0.0294 0.16934,-0.0188 0.20814,0.0141 0.009,0.0071 0.04,0.04939 0.0694,0.09407 0.0435,0.06703 0.0623,0.08584 0.11407,0.10936 0.0329,0.01647 0.067,0.0294 0.0753,0.0294 0.007,0 0.0306,0.0141 0.0506,0.03173 0.0306,0.0247 0.0388,0.02823 0.0482,0.0141 0.0153,-0.0235 0.004,-0.06703 -0.0388,-0.134053 -0.0212,-0.03293 -0.0611,-0.09878 -0.0905,-0.146993 -0.12348,-0.199907 -0.14229,-0.211667 -0.35513,-0.211667 -0.18933,0 -0.21049,-0.01057 -0.27164,-0.128173 -0.0529,-0.09996 -0.0576,-0.165807 -0.02,-0.244593 0.0282,-0.0588 0.0647,-0.08702 0.15169,-0.11877 0.0353,-0.01293 0.18109,-0.07055 0.32338,-0.12935 0.28693,-0.116417 0.60913,-0.230483 0.92898,-0.32691 0.2493,-0.07526 0.38218,-0.137583 0.53505,-0.252823 0.20696,-0.156397 0.3563,-0.206964 0.57503,-0.195204 0.15992,0.0082 0.26575,0.03881 0.44214,0.125824 0.20226,0.09995 0.35043,0.21637 0.58091,0.457436 0.27634,0.290453 0.36806,0.36336 0.61501,0.489183 0.25635,0.13053 0.33984,0.185797 0.43391,0.284577 0.0741,0.07996 0.21637,0.290453 0.40805,0.60913 0.65734,1.087729 1.00894,1.990839 1.12654,2.889245 0.0259,0.198734 0.0353,0.649113 0.0176,0.845493 -0.0917,1.00659 -0.5374,1.89912 -1.3876,2.776359 -0.15522,0.1611 -0.45508,0.439797 -0.62441,0.580907 -1.42757,1.192389 -3.43723,1.710972 -5.4563,1.408759 -0.6444,-0.09643 -1.31468,-0.288103 -1.7874,-0.510353 -0.10701,-0.05056 -0.2246,-0.10113 -0.26105,-0.11289 -0.0658,-0.02 -0.0682,-0.02 -0.0917,0.0013 -0.0388,0.03528 -0.0318,0.09055 0.02,0.13641 0.10936,0.09525 0.28457,0.18697 0.57973,0.301037 1.39699,0.5421 2.99625,0.684386 4.44499,0.396286 0.99601,-0.198733 1.97085,-0.632649 2.71639,-1.208852 0.2293,-0.177564 0.36924,-0.303387 0.63382,-0.570324 0.48213,-0.486833 0.79846,-0.872536 1.06421,-1.297046 0.67028,-1.068916 0.80786,-2.133126 0.44097,-3.401952 -0.17991,-0.62324 -0.43038,-1.213553 -1.01599,-2.401239 l -0.28575,-0.578553 -0.008,-0.0976 c -0.0317,-0.370251 -0.20226,-0.744194 -0.54681,-1.195751 -0.16345,-0.215193 -0.63617,-0.663223 -2.09903,-1.988489 -0.63264,-0.573853 -1.30527,-1.190036 -1.56985,-1.439333 -0.28105,-0.264579 -0.51624,-0.428036 -0.88195,-0.611479 -0.65381,-0.32926 -1.37231,-0.509177 -2.34597,-0.58561 -0.10466,-0.0082 -0.3857,-0.0141 -0.635,-0.0141 -0.4104,-0.0013 -0.45861,0.0013 -0.58208,0.0247 -0.33749,0.0635 -0.57738,0.154046 -1.11125,0.41863 -0.4398,0.217546 -0.56092,0.271636 -0.75965,0.335136 -0.28222,0.09055 -0.49506,0.119947 -0.85372,0.119947 -0.11877,-0.0013 -0.27164,0.0047 -0.34102,0.01293 -0.1658,0.01763 -0.16816,0.0153 -0.16816,-0.17051 -0.001,-0.174036 -0.0129,-0.221073 -0.0776,-0.296333 -0.0976,-0.11524 -0.19873,-0.127 -0.37394,-0.04233 -0.13288,0.0635 -0.22225,0.125826 -0.30456,0.212843 -0.0388,0.03881 -0.0764,0.07173 -0.0847,0.07173 -0.009,0 -0.0517,-0.0082 -0.0964,-0.0188 -0.18697,-0.04351 -0.28105,-0.05527 -0.51153,-0.06232 l -0.24224,-0.0071 -0.0447,-0.03528 c -0.0235,-0.02 -0.06,-0.06468 -0.08,-0.09995 -0.0329,-0.05762 -0.0365,-0.07408 -0.0353,-0.15875 0,-0.05762 0.0129,-0.14699 0.0317,-0.230483 0.0176,-0.07526 0.0317,-0.16698 0.0317,-0.202256 0,-0.05762 -0.005,-0.07173 -0.0376,-0.109364 -0.067,-0.07643 -0.14464,-0.09878 -0.26223,-0.07526 z"
         id="path840"
         style="fill:#000000;stroke:none;stroke-width:0.00117592" />
      <path
         d="m 99.521253,37.064268 -0.22578,0.0057 -0.07244,0.04045 c -0.0602,0.03386 -0.08843,0.04327 -0.163693,0.05456 -0.16275,0.02446 -0.379124,0.08467 -0.534348,0.148634 -0.04234,0.01786 -0.09878,0.03857 -0.127003,0.04704 -0.05739,0.01694 -0.149581,0.07149 -0.25965,0.155221 -0.04139,0.03198 -0.125119,0.0856 -0.185328,0.11947 -0.153345,0.08561 -0.22108,0.135465 -0.346199,0.253997 -0.05926,0.05645 -0.150523,0.139226 -0.202262,0.183442 -0.114773,0.09878 -0.152403,0.139227 -0.20885,0.227655 -0.02634,0.04139 -0.09125,0.114769 -0.167455,0.190026 -0.171217,0.16839 -0.269996,0.311382 -0.458147,0.663214 -0.05362,0.100657 -0.139231,0.249293 -0.190033,0.329254 -0.173101,0.276572 -0.380068,0.720594 -0.423341,0.909682 -0.0085,0.03669 -0.02162,0.138285 -0.02917,0.225772 -0.0075,0.08655 -0.01883,0.181563 -0.02446,0.209784 -0.01318,0.06303 -0.05833,0.176856 -0.157107,0.397927 -0.124179,0.275634 -0.132646,0.280337 -0.268115,0.144872 -0.08749,-0.08843 -0.325502,-0.268108 -0.388532,-0.294448 -0.07244,-0.0301 -0.102544,10e-4 -0.117597,0.119473 -0.0094,0.07337 -0.0075,0.120414 0.01318,0.351832 0.0028,0.02352 -0.204141,0.149576 -0.285047,0.174034 -0.07338,0.02162 -0.154284,0.07432 -0.174039,0.112886 -0.01883,0.03669 -0.03105,0.04234 -0.148641,0.06961 -0.05551,0.01318 -0.114773,0.0301 -0.133587,0.03857 -0.01882,0.0075 -0.07808,0.02634 -0.131706,0.04139 -0.208849,0.06114 -0.352785,0.146753 -0.528705,0.315143 -0.06962,0.06679 -0.132648,0.134526 -0.141114,0.150517 -0.0085,0.016 -0.02916,0.04515 -0.0461,0.06491 -0.01786,0.01882 -0.03198,0.04139 -0.03198,0.04892 0,0.04139 -0.118535,0.134523 -0.263409,0.206959 -0.102545,0.05174 -0.176866,0.106302 -0.202266,0.150515 -0.03198,0.05268 -0.04515,0.155222 -0.04045,0.31044 l 0.0028,0.133586 0.03763,0.0508 c 0.02163,0.02822 0.0461,0.06303 0.05551,0.07808 0.0207,0.03198 0.125121,0.135464 0.187211,0.185322 0.02446,0.01976 0.06774,0.04233 0.09596,0.04986 0.02823,0.0085 0.05645,0.02352 0.06303,0.03293 0.0207,0.02822 0.0508,0.03857 0.117595,0.03951 0.109127,0.001 0.146756,0.01034 0.193794,0.05174 0.02352,0.0207 0.09219,0.06491 0.152404,0.09783 0.06114,0.03386 0.127942,0.07055 0.148639,0.08185 0.0207,0.01224 0.04986,0.02162 0.06397,0.02162 0.01504,0 0.04704,0.0075 0.0715,0.01693 0.04045,0.0141 0.08467,0.016 0.393236,0.016 l 0.348081,-0.001 0.127941,-0.03386 c 0.157107,-0.04234 0.288813,-0.09125 0.367836,-0.135465 0.03293,-0.01882 0.09596,-0.05268 0.140173,-0.07432 l 0.08091,-0.04139 0.0508,0.04422 c 0.07055,0.06209 0.120418,0.09972 0.156164,0.118532 0.03105,0.01504 0.143937,0.02352 0.588916,0.04234 0.108185,0.0047 0.198498,0.01034 0.20132,0.01318 0.01035,0.01128 -0.04986,0.09783 -0.106304,0.152398 -0.03199,0.03104 -0.09972,0.0969 -0.150521,0.146752 -0.05175,0.04986 -0.12512,0.11477 -0.163692,0.143932 -0.148639,0.111944 -0.405465,0.372527 -0.440274,0.444963 -0.01223,0.02446 -0.02541,0.03386 -0.0715,0.04986 -0.03199,0.01128 -0.103484,0.04422 -0.160869,0.07338 -0.08655,0.04515 -0.109128,0.06114 -0.13641,0.09971 -0.01787,0.02542 -0.06303,0.08279 -0.09878,0.126998 -0.03669,0.04422 -0.07338,0.09125 -0.08279,0.10442 -0.02163,0.03105 -0.0207,0.07997 0.0028,0.103481 0.02446,0.02446 0.06774,0.02446 0.190032,-0.0018 0.0922,-0.01976 0.118536,-0.0207 0.548464,-0.02162 0.489192,0 0.507068,-0.0018 0.607728,-0.05268 0.06491,-0.03198 0.154285,-0.111945 0.166515,-0.148632 0.0075,-0.0207 0.0066,-0.03386 -0.0038,-0.05268 -0.0075,-0.0141 -0.01318,-0.03386 -0.01318,-0.04327 0,-0.0094 0.04515,-0.06303 0.101601,-0.119472 0.07808,-0.07996 0.133587,-0.124175 0.251181,-0.203197 0.14864,-0.09972 0.365014,-0.264343 0.5447,-0.412978 0.0508,-0.04234 0.106306,-0.08467 0.124179,-0.09407 0.03669,-0.0207 0.135469,-0.03293 0.135469,-0.01786 0,0.016 -0.04139,0.06209 -0.21167,0.238005 -0.08843,0.09125 -0.174038,0.188146 -0.190972,0.217307 -0.04234,0.07149 -0.0922,0.187206 -0.10913,0.256818 -0.01128,0.04139 -0.02352,0.06397 -0.0461,0.08467 -0.117594,0.106303 -0.280347,0.241767 -0.331148,0.275634 -0.03199,0.02162 -0.08937,0.06679 -0.127001,0.100657 -0.03763,0.03386 -0.07526,0.06115 -0.08373,0.06115 -0.01882,0 -0.157107,0.07808 -0.186269,0.105361 -0.02916,0.02728 -0.03763,0.0762 -0.01787,0.106302 0.01506,0.02352 0.06491,0.04234 0.111952,0.04234 0.02446,0 0.02543,10e-4 0.02543,0.0555 0,0.03857 0.0047,0.06114 0.01694,0.07525 0.03386,0.04139 0.17122,0.03481 0.282227,-0.0141 0.07056,-0.03104 0.07715,-0.0301 0.07715,0.016 0,0.03857 0.01318,0.07337 0.03199,0.08561 0.01976,0.0141 0.100659,0.0075 0.158045,-0.01224 0.03293,-0.01128 0.125122,-0.04892 0.205086,-0.08467 l 0.145816,-0.06397 0.0047,0.04704 c 0.0085,0.07337 0.0301,0.08843 0.126061,0.08843 0.06867,0 0.08091,-0.0028 0.110069,-0.02446 0.04234,-0.03198 0.07527,-0.04233 0.21167,-0.06397 0.06302,-0.0094 0.127003,-0.02445 0.142056,-0.03293 0.04422,-0.02258 0.143936,-0.136406 0.189091,-0.214485 0.04515,-0.07902 0.07715,-0.163689 0.07715,-0.203197 0,-0.0141 0.0066,-0.03481 0.01411,-0.04516 0.0075,-0.01224 0.016,-0.05644 0.01976,-0.108183 0.0038,-0.04892 0.01224,-0.10536 0.01976,-0.125118 0.0207,-0.05926 0.07903,-0.128878 0.171218,-0.204135 0.08279,-0.06679 0.08749,-0.07244 0.131707,-0.164627 0.02541,-0.05174 0.0602,-0.111947 0.07808,-0.131702 0.01787,-0.01976 0.05268,-0.06962 0.07715,-0.110065 0.02446,-0.04045 0.05645,-0.07996 0.06962,-0.08843 0.0141,-0.0085 0.05268,-0.04422 0.08655,-0.07902 0.09784,-0.09972 0.0508,-0.09407 0.823161,-0.10254 0.715913,-0.0085 0.794003,-0.01128 0.844803,-0.03293 0.0781,-0.03198 0.0997,-0.0188 0.20508,0.131702 0.032,0.0461 0.0931,0.126998 0.13453,0.178739 l 0.0762,0.09407 v 0.145812 c -8e-4,0.14205 -8e-4,0.147693 -0.0301,0.216367 -0.016,0.03857 -0.0367,0.108185 -0.0451,0.155219 -0.008,0.0461 -0.0338,0.130763 -0.0564,0.188146 -0.0226,0.05645 -0.0433,0.113828 -0.0461,0.126998 -0.004,0.0207 -0.0499,0.08843 -0.12794,0.190027 -0.0113,0.01504 -0.0583,0.05268 -0.10442,0.08372 -0.13265,0.09125 -0.17781,0.158044 -0.16276,0.240826 0.0103,0.0555 0.0348,0.07244 0.0941,0.06585 0.0282,-0.0028 0.0753,-0.01693 0.10537,-0.0301 0.12418,-0.05833 0.21731,-0.07714 0.24554,-0.04986 0.0198,0.02069 0.16933,0.01504 0.21355,-0.0085 0.0198,-0.01034 0.063,-0.03293 0.096,-0.04892 0.032,-0.01694 0.0809,-0.03386 0.1082,-0.03763 0.0263,-0.0038 0.0668,-0.016 0.0884,-0.02728 0.0546,-0.02822 0.079,-0.02634 0.12699,0.01224 0.0922,0.07432 0.11572,0.09031 0.15052,0.09972 0.0518,0.01318 0.0837,0.001 0.10349,-0.04139 0.0103,-0.0207 0.0292,-0.03951 0.0508,-0.04986 0.0602,-0.02822 0.0649,-0.0461 0.063,-0.207901 -0.003,-0.145814 -0.016,-0.263404 -0.032,-0.279396 -0.005,-0.0057 -0.008,-0.01882 -0.008,-0.02916 0,-0.02634 0.0875,-0.205079 0.11194,-0.229537 0.0103,-0.01034 0.0254,-0.03105 0.033,-0.04515 0.007,-0.0141 0.0395,-0.06021 0.0706,-0.101599 0.0997,-0.131702 0.1477,-0.24647 0.16558,-0.397927 0.009,-0.07808 0.009,-0.07902 0.0583,-0.05738 0.0536,0.02258 0.1571,0.04892 0.29445,0.07432 0.14299,0.02634 0.16369,0.03293 0.19568,0.06961 0.033,0.03763 0.13829,0.224834 0.16275,0.287862 0.031,0.08184 0.0178,0.283159 -0.0198,0.301033 -0.007,0.0038 -0.0348,0.0141 -0.0611,0.02352 -0.27376,0.0969 -0.33396,0.120411 -0.38005,0.148632 -0.0715,0.04422 -0.10631,0.09501 -0.11196,0.161806 -0.002,0.0301 7.9e-4,0.06303 0.007,0.07996 0.0141,0.03481 0.079,0.09407 0.1016,0.09407 0.009,0 0.0526,-0.02258 0.0969,-0.0508 0.12889,-0.08184 0.20886,-0.09972 0.26436,-0.06021 0.0386,0.02634 0.10348,0.03198 0.16745,0.01318 0.0395,-0.01224 0.12324,-0.01786 0.34337,-0.02538 0.32457,-0.01034 0.3923,-0.01694 0.45156,-0.0461 0.063,-0.0301 0.159,-0.123236 0.18157,-0.176856 0.0273,-0.06303 0.0301,-0.09689 0.0395,-0.467542 0.007,-0.320788 0.008,-0.331134 0.033,-0.409215 0.0489,-0.155219 0.0405,-0.32267 -0.0198,-0.395106 -0.0357,-0.04234 -0.063,-0.05268 -0.17969,-0.06962 -0.21449,-0.03105 -0.37253,-0.113827 -0.54375,-0.284099 -0.0978,-0.09689 -0.12982,-0.139228 -0.12325,-0.161806 0.007,-0.02352 0.11101,-0.08372 0.15711,-0.09125 0.0198,-0.0038 0.0367,-0.0094 0.0367,-0.0141 0,-0.01128 0.10349,-0.05456 0.16557,-0.06867 0.032,-0.0075 0.0668,-0.02162 0.0771,-0.03104 0.0367,-0.03105 0.18156,-0.09031 0.32644,-0.131702 0.21355,-0.06303 0.31139,-0.09689 0.34902,-0.122294 0.0498,-0.03386 0.13547,-0.07526 0.17969,-0.08749 0.0301,-0.0085 0.19567,-0.0809 0.23048,-0.100657 0.004,-0.0028 0.0235,0.02542 0.0451,0.06209 0.0215,0.03669 0.0696,0.09972 0.10819,0.140168 0.0386,0.04139 0.0837,0.09972 0.0997,0.129822 0.031,0.05362 0.1477,0.176856 0.25777,0.271868 0.0405,0.03386 0.0715,0.07337 0.1082,0.135465 0.0743,0.127939 0.12135,0.182501 0.18438,0.211663 0.0508,0.02446 0.18157,0.13923 0.22108,0.193792 0.0103,0.0141 0.0226,0.04798 0.0273,0.0762 0.0141,0.07525 0.0771,0.158982 0.26059,0.346187 0.15899,0.164626 0.18157,0.19473 0.18157,0.254937 0,0.0085 0.0132,0.04045 0.0292,0.07243 0.032,0.06491 0.08,0.105364 0.14958,0.128881 0.0526,0.01786 0.063,0.02822 0.10347,0.102539 0.016,0.03104 0.0565,0.09031 0.0884,0.131702 0.063,0.0809 0.13641,0.188144 0.17874,0.262463 0.0141,0.02542 0.0715,0.09125 0.127,0.147694 0.12042,0.123235 0.18533,0.159923 0.2446,0.142049 0.0875,-0.02542 0.10159,-0.08843 0.0621,-0.273751 -0.015,-0.07244 -0.0273,-0.171214 -0.033,-0.2587 -0.006,-0.111006 -0.0113,-0.150515 -0.0273,-0.185323 -0.0113,-0.02445 -0.031,-0.09125 -0.0433,-0.149576 -0.0132,-0.06021 -0.0405,-0.142049 -0.0621,-0.190968 -0.0215,-0.04704 -0.0564,-0.129819 -0.079,-0.18438 -0.0216,-0.05456 -0.0611,-0.147694 -0.0875,-0.206961 -0.0254,-0.05926 -0.0536,-0.133584 -0.063,-0.164626 -0.0743,-0.254938 -0.17874,-0.523046 -0.23049,-0.586074 -0.015,-0.0188 -0.0593,-0.06209 -0.0978,-0.09501 l -0.0696,-0.06021 -0.004,-0.174976 c -0.006,-0.23518 -0.0282,-0.29727 -0.13171,-0.36124 l -0.0451,-0.02822 v -0.250357 -0.250233 l -0.0564,-0.06491 c -0.0611,-0.07149 -0.0621,-0.07244 -0.0706,-0.222012 -0.007,-0.122294 -0.016,-0.157102 -0.0686,-0.282218 -0.0226,-0.05456 -0.048,-0.115709 -0.0555,-0.136405 -0.0103,-0.02634 -0.0178,-0.11759 -0.0273,-0.312321 -0.0103,-0.232359 -0.0151,-0.283158 -0.033,-0.333957 -0.0103,-0.03198 -0.0254,-0.09031 -0.033,-0.12794 -0.007,-0.03951 -0.0282,-0.09689 -0.048,-0.136406 l -0.0358,-0.06773 -0.006,-0.216368 c -0.003,-0.11947 -0.0103,-0.232359 -0.017,-0.252113 -0.006,-0.01882 -0.032,-0.06303 -0.0583,-0.09784 -0.0451,-0.05926 -0.047,-0.06397 -0.0367,-0.09219 0.033,-0.09219 -0.015,-0.404514 -0.0828,-0.539979 -0.016,-0.0301 -0.0686,-0.157098 -0.11854,-0.282216 -0.0498,-0.125116 -0.10254,-0.253056 -0.11665,-0.28598 -0.0536,-0.11759 -0.27282,-0.350891 -0.60585,-0.646278 -0.23802,-0.210722 -0.31327,-0.268108 -0.43462,-0.331136 -0.0509,-0.02634 -0.1383,-0.07244 -0.19286,-0.103479 -0.0546,-0.0301 -0.14299,-0.07244 -0.19756,-0.09313 -0.0546,-0.0207 -0.15428,-0.06961 -0.22297,-0.108185 -0.14958,-0.08467 -0.16274,-0.09031 -0.29164,-0.125115 -0.0564,-0.01504 -0.15521,-0.04986 -0.21918,-0.0762 -0.22672,-0.09407 -0.28129,-0.110065 -0.53717,-0.159923 -0.13642,-0.02634 -0.27376,-0.0508 -0.3048,-0.05362 -0.031,-0.0028 -0.0894,-0.01786 -0.12889,-0.03198 -0.0922,-0.03386 -0.18815,-0.04986 -0.43557,-0.07432 -0.10818,-0.01128 -0.24836,-0.03104 -0.31045,-0.04422 l -0.1129,-0.02538 -0.85138,-10e-4 c -0.46849,-0.001 -0.952984,10e-4 -1.077166,0.0038 z"
         id="path854"
         style="fill:#000000;stroke:none;stroke-width:0.000940742" />
      <g
         transform="matrix(-0.00117593,0,0,-0.00117593,128.9483,41.891705)"
         fill="#000000"
         stroke="none"
         id="g872">
        <path
           d="m 5445,7940 c -59,-10 -383,-174 -441,-224 -21,-18 -71,-50 -111,-70 -46,-24 -85,-54 -112,-86 -23,-27 -94,-84 -163,-130 -68,-46 -152,-106 -188,-135 -36,-28 -114,-80 -175,-114 -60,-34 -144,-87 -185,-117 -137,-102 -290,-167 -758,-325 l -234,-78 -86,76 c -81,71 -166,123 -203,123 -8,0 -39,-12 -67,-26 -71,-35 -84,-63 -92,-199 -3,-60 -11,-119 -18,-131 -21,-39 -80,-74 -337,-200 -140,-69 -297,-153 -348,-187 -91,-60 -214,-177 -412,-390 -58,-62 -98,-97 -111,-97 -26,0 -305,-141 -399,-202 C 895,5357 798,5276 614,5099 396,4889 294,4798 197,4726 70,4631 13,4535 3,4400 c -6,-76 16,-176 49,-222 15,-22 24,-59 34,-137 16,-138 68,-335 101,-383 28,-41 89,-95 148,-129 34,-20 41,-21 100,-11 90,17 119,15 141,-9 29,-32 103,-66 175,-79 159,-30 787,-27 919,5 70,17 221,43 395,70 158,24 360,77 452,119 44,19 104,41 134,47 140,28 186,42 258,78 102,52 220,141 344,260 115,110 172,151 246,181 127,50 385,70 931,72 l 365,2 135,-31 c 74,-17 174,-38 222,-47 109,-20 300,-84 370,-123 101,-57 124,-120 139,-383 15,-255 7,-502 -20,-605 -33,-125 -103,-287 -164,-377 -64,-96 -319,-417 -446,-561 -142,-162 -177,-206 -276,-348 -136,-195 -298,-393 -350,-429 -115,-79 -234,-117 -407,-129 -130,-9 -161,-22 -210,-82 -39,-48 -51,-102 -33,-145 13,-32 21,-37 85,-49 19,-4 51,-16 70,-27 52,-30 84,-37 127,-27 21,5 146,13 278,19 144,7 261,17 292,26 67,18 103,55 278,279 166,212 251,303 479,514 323,298 550,491 931,792 74,59 210,183 316,291 103,103 190,188 193,188 4,0 5,-294 3,-652 -5,-722 -4,-714 -72,-887 -20,-51 -47,-134 -60,-184 -22,-83 -29,-96 -68,-132 -27,-25 -134,-86 -277,-160 -128,-66 -248,-134 -266,-151 -30,-28 -34,-37 -34,-82 0,-68 6,-79 54,-101 22,-10 58,-35 78,-55 30,-29 45,-36 76,-36 57,0 457,57 527,75 133,35 194,85 220,183 38,143 61,201 140,358 46,93 109,210 140,259 153,247 206,439 265,966 38,336 110,781 149,915 15,54 44,151 64,216 20,64 39,139 43,167 l 7,51 h 1462 1463 l 63,-117 c 162,-308 494,-813 743,-1133 112,-144 278,-314 417,-426 194,-157 418,-433 528,-651 37,-74 56,-188 46,-277 -9,-77 -14,-86 -94,-171 -37,-39 -95,-107 -129,-153 -77,-101 -125,-148 -177,-174 -22,-11 -75,-45 -117,-74 -93,-66 -152,-93 -199,-94 -59,0 -131,-27 -184,-69 -27,-22 -87,-64 -132,-93 -93,-60 -108,-83 -98,-152 8,-50 32,-76 72,-76 41,0 102,-31 129,-67 26,-34 29,-35 73,-29 96,14 211,25 366,36 201,14 294,27 320,44 11,7 37,47 57,87 79,155 279,384 508,583 124,107 200,188 259,275 24,34 56,71 73,81 74,45 220,284 257,420 51,189 44,213 -94,362 -298,321 -542,630 -667,848 -30,52 -72,170 -64,178 3,3 110,-32 238,-76 128,-45 276,-93 329,-106 53,-14 165,-50 250,-81 85,-32 258,-93 384,-137 478,-166 628,-241 770,-382 83,-84 123,-145 135,-207 13,-66 13,-436 0,-597 -8,-97 -15,-133 -35,-176 -40,-85 -116,-148 -259,-216 -138,-66 -171,-96 -181,-164 -9,-57 8,-108 46,-141 32,-26 44,-30 122,-39 26,-3 58,-13 72,-22 36,-23 70,-11 128,46 57,56 74,63 207,85 189,31 242,55 285,128 60,104 71,166 90,552 23,462 34,568 81,805 13,66 17,140 17,325 1,347 -23,437 -143,548 -76,70 -146,106 -335,167 -268,89 -374,137 -580,267 -150,95 -239,169 -392,326 -217,224 -386,465 -370,529 9,35 140,187 338,393 203,212 296,322 364,428 26,42 52,77 55,77 4,0 12,-35 18,-77 6,-43 25,-170 41,-283 17,-113 35,-271 41,-350 14,-185 21,-214 60,-230 87,-36 182,29 195,133 10,82 -19,849 -45,1197 -23,297 -31,328 -146,587 -100,226 -198,412 -251,478 -68,84 -191,163 -429,274 -364,171 -536,232 -720,255 -80,10 -132,23 -194,49 -170,70 -355,100 -910,147 -392,33 -487,42 -730,70 -91,11 -290,29 -442,40 -304,22 -447,38 -673,75 -147,25 -272,35 -655,55 -301,15 -556,53 -975,145 -210,46 -318,58 -630,75 -689,36 -2291,69 -2400,50 z"
           id="path868" />
        <path
           d="m 12970,2528 c 0,-16 19,-38 33,-38 4,0 7,10 5,22 -3,25 -38,39 -38,16 z"
           id="path870" />
      </g>
      <path
         d="m 83.147206,32.616855 c 0.0341,0.02 0.16463,0.04586 0.32808,0.06468 0.22813,0.02587 0.35278,0.05997 0.42098,0.11524 0.0188,0.0153 0.0729,0.01883 0.08,0.0059 0.004,-0.0059 -0.006,-0.02 -0.0212,-0.03293 -0.0235,-0.0188 -0.0247,-0.02233 -0.007,-0.0294 0.0212,-0.0082 0.0576,0.0082 0.10701,0.04821 0.027,0.02233 0.0412,0.02587 0.0823,0.02117 0.0376,-0.0059 0.0658,0 0.1176,0.02353 0.0976,0.04233 0.14816,0.05527 0.17403,0.04233 0.0165,-0.0094 0.0341,0 0.0894,0.04704 0.0729,0.06232 0.0858,0.06938 0.0858,0.04116 0,-0.03293 0.0388,-0.01763 0.087,0.0341 0.0423,0.04586 0.087,0.07761 0.10584,0.07761 0.0141,0 0.006,-0.03293 -0.0106,-0.04704 -0.009,-0.0082 -0.0176,-0.01883 -0.0176,-0.0247 0,-0.0047 0.0564,0.0247 0.12582,0.06703 0.20579,0.124647 0.42921,0.223424 0.60913,0.269287 0.12582,0.03057 0.11642,0.02587 0.0953,0.05762 -0.0165,0.02703 -0.0165,0.02823 0.009,0.03528 0.0153,0.0035 0.0517,0.0035 0.0811,0 l 0.0517,-0.0071 0.0259,0.05174 c 0.0129,0.02823 0.0247,0.05762 0.0247,0.06467 0,0.01763 0.0447,0.07173 0.0729,0.08702 0.0212,0.01057 0.0223,0.0094 0.0153,-0.01177 -0.0141,-0.04468 0.0212,-0.02587 0.0717,0.03763 0.0353,0.04586 0.0564,0.06232 0.0858,0.06703 0.0306,0.0047 0.0506,0.02 0.0882,0.07056 0.027,0.03528 0.0658,0.07526 0.087,0.08819 0.02,0.01293 0.0365,0.03293 0.0376,0.04351 0,0.01293 0.02,0.02587 0.0576,0.03881 0.0811,0.02587 0.18227,0.09525 0.28222,0.189323 0.0635,0.05997 0.0882,0.07526 0.0976,0.06585 0.008,-0.0082 0.0341,-0.0141 0.0588,-0.0141 h 0.0447 v 0.0635 c 0,0.05997 0.002,0.0635 0.0317,0.06938 0.0188,0.0035 0.0341,0.0047 0.0364,0.0035 0.001,-0.0023 -0.0106,-0.07879 -0.0259,-0.169333 -0.0223,-0.127 -0.0376,-0.182267 -0.0647,-0.234007 -0.02,-0.03645 -0.0341,-0.0682 -0.0317,-0.07056 0.002,-0.0023 0.0259,0.0141 0.0541,0.03763 0.0517,0.04351 0.0706,0.05056 0.0706,0.02587 0,-0.02233 -0.0317,-0.06468 -0.0953,-0.131703 -0.0517,-0.05409 -0.0917,-0.123473 -0.0717,-0.123473 0.005,0 0.0353,0.02587 0.067,0.0588 0.0317,0.03177 0.0623,0.0588 0.067,0.0588 0.0165,0 -0.0247,-0.06938 -0.08,-0.137583 -0.0282,-0.0341 -0.0517,-0.07056 -0.0517,-0.07996 0,-0.0247 0.0106,-0.02233 0.0353,0.0082 0.0306,0.03763 0.0447,0.0153 0.0153,-0.02353 -0.0317,-0.04351 -0.17051,-0.286926 -0.16463,-0.29163 0.0141,-0.0153 0.0705,0.04116 0.11995,0.12112 0.0317,0.05292 0.0635,0.09995 0.0682,0.10466 0.02,0.02 -0.009,-0.03998 -0.0576,-0.11877 -0.0576,-0.09407 -0.087,-0.168156 -0.087,-0.221073 v -0.03528 l 0.0294,0.02703 c 0.0153,0.0141 0.04,0.05997 0.0529,0.09995 0.0259,0.07761 0.0517,0.122296 0.0647,0.11054 0.003,-0.0047 -10e-4,-0.0341 -0.0118,-0.06703 -0.0235,-0.06938 -0.02,-0.124647 0.007,-0.12935 0.0153,-0.0023 0.0223,0.01293 0.0329,0.07291 0.0223,0.128177 0.0365,0.143464 0.0329,0.03763 -0.001,-0.05997 0.002,-0.09407 0.0106,-0.0976 0.0235,-0.0082 0.0329,0.03293 0.0388,0.169333 0.006,0.103484 0.0118,0.136407 0.027,0.15287 0.02,0.0188 0.0212,0.0153 0.0212,-0.07291 0,-0.05174 0.005,-0.10113 0.0106,-0.10936 0.0188,-0.0294 0.0364,0.05527 0.0364,0.17286 0,0.186973 0.005,0.198733 0.0776,0.232833 0.0388,0.01763 0.0999,0.03177 0.15757,0.03763 0.0941,0.0106 0.0953,0.0094 0.12935,-0.02353 0.0259,-0.02703 0.0447,-0.0341 0.0823,-0.0341 0.04,0 0.0482,-0.0035 0.0423,-0.01883 -0.0118,-0.03057 0.005,-0.04116 0.0318,-0.02233 0.0247,0.01763 0.127,0.0247 0.14112,0.0094 0.005,-0.0035 0,-0.01763 -0.0118,-0.0294 -0.0247,-0.02703 -0.0129,-0.0388 0.0212,-0.02 0.0176,0.0094 0.0564,0.01177 0.11876,0.0071 0.0506,-0.0047 0.10584,-0.0023 0.1223,0.0035 0.027,0.01057 0.0294,0.0094 0.0223,-0.01177 -0.009,-0.03057 0.003,-0.0294 0.0376,0.0023 l 0.027,0.0247 v -0.03057 c 0,-0.04116 0.02,-0.03998 0.0647,0.0035 0.04,0.03881 0.0823,0.03881 0.0705,0 -0.006,-0.01763 0.007,-0.02117 0.11406,-0.02823 0.0658,-0.0047 0.12465,-0.0094 0.13053,-0.01057 0.006,-0.0013 0.0188,0.02 0.0282,0.04704 0.009,0.02703 0.0235,0.05174 0.0329,0.05527 0.0141,0.0047 0.0153,-0.0035 0.0106,-0.04469 l -0.007,-0.05056 0.0858,-0.0059 c 0.0482,-0.0035 0.0952,-0.01057 0.10583,-0.0141 0.0129,-0.0059 0.0247,0.0047 0.0412,0.03998 0.027,0.05762 0.0459,0.05997 0.0682,0.0059 0.0212,-0.04939 0.0423,-0.05409 0.0423,-0.0082 0,0.02703 0.0317,0.09172 0.0353,0.07291 0.001,-0.0035 0.004,-0.0153 0.006,-0.02823 0.007,-0.03528 0.0294,-0.05174 0.0294,-0.02117 0,0.03173 -10e-4,0.03173 0.0917,0.0023 0.0929,-0.0294 0.0964,-0.0294 0.0964,0 0,0.02587 0.0306,0.03293 0.0376,0.0094 0.004,-0.01057 0.0165,-0.0082 0.047,0.0059 0.0235,0.01057 0.0611,0.02 0.0847,0.02 0.0306,0 0.0459,0.0071 0.0564,0.0247 0.008,0.0141 0.0376,0.03528 0.0658,0.04704 0.0423,0.0188 0.0494,0.02587 0.0435,0.04586 -0.009,0.03057 0.008,0.03057 0.0353,0 0.0247,-0.02823 0.0412,-0.02117 0.0412,0.0188 0,0.0341 0.0176,0.03645 0.0353,0.0047 0.0118,-0.02233 0.0153,-0.02117 0.0588,0.0294 0.0259,0.03057 0.047,0.0635 0.047,0.07644 0,0.02703 0.0306,0.0388 0.0588,0.0235 0.0118,-0.0071 0.0247,-0.01177 0.0282,-0.01177 0.0141,0 0.006,0.03293 -0.0106,0.04704 -0.0235,0.02 -0.0223,0.03177 0.007,0.04704 0.0341,0.0188 0.0729,0.0071 0.12347,-0.03881 0.0435,-0.03763 0.0435,-0.03763 0.0376,-0.0082 -0.004,0.01647 -0.008,0.03528 -0.0106,0.04351 -0.002,0.0071 0,0.0141 0.007,0.0153 0.006,0.0013 0.027,-0.0341 0.0447,-0.07996 0.0376,-0.09172 0.067,-0.11877 0.067,-0.06115 0,0.0188 -0.0106,0.06232 -0.0247,0.09643 l -0.0247,0.06232 0.0306,-0.02823 c 0.0365,-0.0341 0.0459,-0.06467 0.0764,-0.221074 0.027,-0.141109 0.0506,-0.195203 0.0906,-0.214016 0.0165,-0.0071 0.0329,-0.01293 0.0365,-0.01293 0.007,0 -0.002,0.157573 -0.0153,0.252823 -0.008,0.05292 -0.007,0.05762 0.0106,0.04351 0.027,-0.0235 0.0412,-0.07643 0.0541,-0.199907 0.0118,-0.10936 0.0365,-0.175213 0.0623,-0.159926 0.0118,0.0071 0.0106,0.03177 -0.009,0.174036 -0.006,0.04116 -0.005,0.05527 0.005,0.04939 0.0129,-0.0071 0.0365,-0.07644 0.0611,-0.177563 0.0129,-0.05645 0.0412,-0.0976 0.0553,-0.08467 0.005,0.0059 0.009,0.03998 0.009,0.07761 -0.001,0.05644 -0.0106,0.08819 -0.0694,0.21049 -0.0376,0.07996 -0.0658,0.14699 -0.0623,0.151693 0.0141,0.01293 0.0635,-0.03057 0.0988,-0.08702 0.02,-0.03057 0.0553,-0.0929 0.0788,-0.136407 0.0247,-0.04469 0.047,-0.07761 0.0506,-0.07408 0.0165,0.01647 -0.0412,0.14934 -0.10936,0.249293 -0.1223,0.181093 -0.13876,0.229307 -0.0459,0.134057 0.0658,-0.06703 0.0764,-0.05762 0.0141,0.01177 -0.0376,0.04116 -0.0694,0.0976 -0.10818,0.1905 -0.0306,0.07291 -0.0682,0.155224 -0.0835,0.182267 -0.0165,0.02823 -0.0235,0.05057 -0.0176,0.05057 0.007,0 0.0388,-0.02353 0.0717,-0.05292 0.0564,-0.05057 0.0941,-0.06703 0.0941,-0.04116 0,0.0059 -0.0388,0.05292 -0.087,0.10348 -0.0894,0.09525 -0.11995,0.139937 -0.10701,0.15287 0.004,0.0035 0.0165,0.0013 0.027,-0.0071 0.0459,-0.03293 0.0729,-0.04233 0.087,-0.02823 0.009,0.0094 0,0.02703 -0.0341,0.06585 -0.0894,0.10113 -0.17992,0.319853 -0.17992,0.432743 0,0.02587 -0.007,0.03645 -0.0306,0.04586 -0.0306,0.01057 -0.0306,0.01177 -0.009,0.02703 0.0188,0.0141 0.02,0.02117 0.007,0.04704 -0.0212,0.04586 -0.0176,0.06585 0.0106,0.06585 0.0165,0 0.0223,0.0059 0.0188,0.01647 -0.003,0.0082 -0.0106,0.03998 -0.0141,0.07056 -0.007,0.04704 -0.0118,0.05409 -0.0364,0.05409 -0.0376,0 -0.0365,0.03293 10e-4,0.04233 0.0165,0.0035 0.0294,0.01177 0.0294,0.01763 0,0.03528 -0.0282,0.12935 -0.0423,0.14111 -0.0141,0.01177 -0.0141,0.0153 0.004,0.02823 0.0176,0.01293 0.0176,0.0153 -0.009,0.0294 -0.0365,0.02 -0.047,0.03645 -0.0329,0.05409 0.008,0.0094 0.006,0.03528 -0.007,0.07879 -0.009,0.03528 -0.0141,0.07291 -0.0106,0.08467 0.007,0.01647 0.004,0.0188 -0.0188,0.01177 -0.0235,-0.0071 -0.0259,-0.0059 -0.0165,0.01293 0.005,0.01293 0.009,0.04233 0.009,0.06585 0,0.0388 0.004,0.04468 0.0259,0.04468 0.0353,0 0.0435,0.0153 0.0223,0.04233 -0.0129,0.0188 -0.0212,0.02 -0.0506,0.0094 l -0.0353,-0.01293 -0.005,0.118767 c -0.004,0.105833 -0.008,0.129353 -0.0412,0.19638 -0.0459,0.0929 -0.13758,0.18815 -0.26811,0.276343 -0.0941,0.0635 -0.0976,0.06703 -0.0976,0.11289 -0.001,0.05409 -0.047,0.13288 -0.0847,0.144637 -0.0141,0.0047 -0.0235,0.01763 -0.0235,0.03293 0,0.0141 -0.007,0.04939 -0.0153,0.07879 -0.0106,0.03998 -0.02,0.05292 -0.0376,0.05292 -0.0153,0 -0.0259,0.01177 -0.0341,0.03763 -0.0118,0.04469 -0.0306,0.05174 -0.0306,0.01177 0,-0.02703 -0.0188,-0.06468 -0.027,-0.05527 -0.0129,0.01647 -0.0435,0.116417 -0.0435,0.143463 0,0.02353 -0.007,0.03177 -0.0329,0.03763 -0.0176,0.0047 -0.0459,0.0247 -0.0623,0.04586 -0.0259,0.0294 -0.0353,0.0341 -0.0482,0.02233 -0.0141,-0.01057 -0.0223,-0.0047 -0.0435,0.03293 -0.0753,0.134057 -0.2152,0.23636 -0.32808,0.24224 -0.0541,0.0023 -0.0706,0.0082 -0.10349,0.04116 -0.0317,0.03057 -0.0494,0.03763 -0.0929,0.0388 -0.0388,0.0013 -0.0529,0.0059 -0.0529,0.0188 0,0.01177 -0.0129,0.0188 -0.0412,0.02 -0.0365,0.0013 -0.04,-0.0013 -0.0353,-0.02353 0.005,-0.02117 -0.002,-0.03057 -0.0353,-0.04586 -0.0365,-0.0188 -0.0423,-0.0188 -0.047,-0.0035 -0.004,0.0094 -0.008,0.02587 -0.0118,0.03645 -0.0106,0.0341 -0.0294,0.0035 -0.0294,-0.04939 0,-0.03645 -0.005,-0.05174 -0.0165,-0.05174 -0.0212,0 -0.0365,0.02 -0.0529,0.07291 -0.0118,0.03645 -0.0318,0.05644 -0.0564,0.05644 -0.007,0 0.001,-0.04233 0.0141,-0.07408 0.0212,-0.04939 -0.08,-0.0059 -0.18579,0.07879 -0.0611,0.05056 -0.0917,0.05879 -0.0658,0.0188 0.0176,-0.0294 0.0118,-0.0588 -0.0118,-0.0588 -0.0118,0 -0.0247,-0.0082 -0.0294,-0.01763 -0.0106,-0.03057 -0.0423,-0.02 -0.067,0.02353 -0.0235,0.03881 -0.0282,0.04116 -0.0682,0.0341 -0.06,-0.01057 -0.0647,-0.0153 -0.04,-0.04351 0.0212,-0.02353 0.02,-0.02353 -0.002,-0.0141 -0.0129,0.0047 -0.04,0.01177 -0.0611,0.0153 -0.0294,0.0035 -0.0376,0 -0.0447,-0.02117 -0.008,-0.0247 -0.0129,-0.02587 -0.0741,-0.01883 -0.0623,0.0071 -0.0658,0.0059 -0.0964,-0.03057 l -0.0317,-0.03763 -0.0423,0.03293 c -0.04,0.03057 -0.0506,0.03293 -0.11171,0.02703 -0.0623,-0.0059 -0.0741,-0.0023 -0.18463,0.05174 -0.0764,0.03881 -0.14581,0.0635 -0.19755,0.07291 -0.0635,0.01057 -0.0776,0.01647 -0.0717,0.03173 0.0141,0.0341 0.0106,0.05292 -0.007,0.04704 -0.0576,-0.0188 -0.13876,-0.0035 -0.24695,0.04704 -0.0953,0.04351 -0.12347,0.05174 -0.1905,0.05174 -0.0694,0.0013 -0.08,0.0047 -0.0906,0.02703 -0.0153,0.03293 -0.0329,0.0341 -0.0423,0.0035 -0.008,-0.0247 -0.0353,-0.03177 -0.047,-0.01177 -0.005,0.0071 -0.0282,0.02117 -0.0541,0.03173 -0.0259,0.0094 -0.0541,0.0294 -0.0635,0.04233 -0.0141,0.02 -0.02,0.02233 -0.0317,0.01057 -0.008,-0.0082 -0.0318,-0.0141 -0.0529,-0.0141 -0.0317,0 -0.04,0.0059 -0.0459,0.03057 -0.006,0.02117 -0.0118,0.02587 -0.02,0.01763 -0.007,-0.0071 -0.0235,-0.01293 -0.0353,-0.01293 -0.0176,0 -0.0212,0.0059 -0.0153,0.02823 0.008,0.03528 -0.009,0.04233 -0.13405,0.05292 l -0.0882,0.0071 0.0376,0.02703 c 0.0553,0.03881 0.18579,0.10113 0.27752,0.131703 0.0694,0.02233 0.0776,0.02823 0.06,0.03998 -0.0176,0.01293 -0.0129,0.01647 0.0341,0.02233 0.21519,0.0294 0.34219,0.02117 0.59619,-0.04116 0.12112,-0.0294 0.18815,-0.06232 0.31162,-0.151693 0.12347,-0.08937 0.16228,-0.104657 0.26811,-0.104657 0.10819,0 0.20226,0.0235 0.31397,0.07879 0.0717,0.03645 0.11407,0.07055 0.22343,0.179916 0.16228,0.162277 0.29398,0.32338 0.33866,0.411574 0.0482,0.0976 0.0447,0.215193 -0.0129,0.417453 -0.0247,0.08349 -0.0482,0.154046 -0.0541,0.1564 -0.005,0.0013 -0.0376,0.02117 -0.0729,0.04351 -0.13758,0.08702 -0.11877,0.08349 -0.30691,0.05527 -0.0929,-0.0141 -0.19285,-0.02587 -0.22343,-0.02587 -0.0435,0 -0.0564,-0.0047 -0.0623,-0.02233 -0.003,-0.01177 -0.0353,-0.06232 -0.0706,-0.110536 -0.11053,-0.155223 -0.13523,-0.217547 -0.10113,-0.26576 0.0294,-0.04116 0.11877,-0.221073 0.11877,-0.237537 0,-0.0094 -0.0282,-0.01177 -0.0976,-0.0082 -0.0729,0.0047 -0.1364,0.0188 -0.26105,0.05997 -0.16463,0.05409 -0.27752,0.07879 -0.36336,0.07879 -0.0329,0 -0.0929,0.02353 -0.21167,0.08232 -0.1952,0.0976 -0.31632,0.131704 -0.43862,0.127 -0.0729,-0.0023 -0.0882,0 -0.10348,0.02 -0.0165,0.02117 -0.0188,0.02233 -0.0294,0.0035 -0.009,-0.0153 -0.0259,-0.0188 -0.0729,-0.0153 -0.0329,0.0023 -0.0635,0.01057 -0.0682,0.01763 -0.008,0.01293 -0.15522,0.0035 -0.30927,-0.02 -0.0353,-0.0047 -0.0435,-0.0023 -0.0435,0.01293 0,0.0106 -0.002,0.01883 -0.006,0.01883 -0.0106,0 -0.0952,-0.04116 -0.127,-0.06233 l -0.0317,-0.02117 v 0.03646 0.03763 l -0.0506,-0.01057 c -0.06,-0.01177 -0.42804,-0.0106 -0.44097,0.0013 -0.005,0.0047 0.004,0.01883 0.0188,0.03057 0.02,0.01647 0.0247,0.0294 0.0188,0.05174 -0.0153,0.06468 0.005,0.10936 0.0964,0.206963 0.0517,0.05644 0.0905,0.108183 0.0941,0.128177 0.005,0.0235 0.0165,0.03645 0.0353,0.04116 0.0235,0.0059 0.10936,0.10936 0.0964,0.117594 -0.001,0.0013 -0.0165,0.0082 -0.0317,0.0141 l -0.0282,0.01177 0.0423,0.02703 c 0.0635,0.0388 0.11406,0.102303 0.11406,0.142286 0,0.02823 0.006,0.03645 0.0318,0.04233 0.0694,0.01647 0.0835,0.05174 0.0212,0.05174 -0.0223,0 -0.0412,0.0047 -0.0412,0.0106 0,0.0082 0.0953,0.05527 0.1564,0.07643 0.0235,0.0082 0.0165,0.03057 -0.0106,0.03057 -0.0235,0 -0.0212,0.02353 0.004,0.03057 0.0553,0.01763 0.10113,0.04351 0.14582,0.08349 0.0423,0.03881 0.0494,0.04116 0.0588,0.02353 0.0176,-0.03057 0.0353,-0.02353 0.027,0.0082 -0.007,0.02823 -0.006,0.0294 0.0294,0.0153 0.0318,-0.01177 0.0376,-0.0106 0.06,0.0188 0.0282,0.03528 0.0811,0.06585 0.18462,0.104656 0.0376,0.01293 0.0788,0.03177 0.0929,0.04116 0.0212,0.0141 0.0329,0.01177 0.0941,-0.02 0.15052,-0.07644 0.25635,-0.07056 0.34454,0.02 l 0.0506,0.05292 0.0905,-0.08937 0.0894,-0.08937 0.047,0.01293 c 0.0259,0.0071 0.0776,0.02823 0.11406,0.04704 0.0706,0.03528 0.10348,0.04233 0.10348,0.02233 0,-0.0071 0.0118,-0.01177 0.0259,-0.01177 0.0165,0 0.0823,0.05527 0.19638,0.168156 0.0941,0.0929 0.20696,0.19638 0.2493,0.229304 0.0741,0.05762 0.0788,0.06468 0.0929,0.131706 0.008,0.03998 0.0212,0.07055 0.0294,0.07055 0.0235,0 0.0764,0.05997 0.0764,0.08584 0,0.0141 -0.0141,0.03998 -0.0318,0.05762 -0.0341,0.03528 -0.0682,0.03998 -0.14817,0.02233 l -0.0435,-0.01057 v 0.03998 c 0,0.04233 -0.0235,0.0635 -0.0706,0.0635 -0.0141,0 -0.0729,-0.01647 -0.13053,-0.03645 -0.0564,-0.02 -0.10936,-0.03293 -0.11524,-0.02823 -0.007,0.0035 -0.009,0.02233 -0.006,0.03998 0.008,0.04233 -0.007,0.05292 -0.0482,0.03177 -0.0188,-0.0094 -0.0494,-0.0141 -0.0764,-0.0106 -0.08,0.0106 -0.12229,-0.0047 -0.18344,-0.06703 -0.0317,-0.03293 -0.0811,-0.07055 -0.11054,-0.08584 -0.0506,-0.0247 -0.0635,-0.02587 -0.25282,-0.02 -0.35631,0.01057 -0.51858,0.0047 -0.70556,-0.02353 -0.16227,-0.02353 -0.32926,-0.02823 -0.44685,-0.0094 -0.0176,0.0023 -0.0247,-0.0035 -0.027,-0.02353 -0.004,-0.02587 -0.008,-0.02703 -0.047,-0.02 -0.0235,0.0047 -0.0741,0.0082 -0.11289,0.0071 -0.06,-0.0013 -0.0717,-0.0059 -0.0917,-0.0341 -0.0129,-0.01763 -0.14934,-0.156396 -0.30221,-0.308093 -0.15287,-0.151693 -0.29516,-0.296333 -0.31632,-0.322203 -0.0282,-0.03293 -0.0447,-0.04351 -0.0623,-0.03881 -0.0341,0.0094 -0.0576,-0.0023 -0.0576,-0.02703 0,-0.01177 -0.008,-0.02703 -0.0176,-0.03528 -0.009,-0.0082 -0.0176,-0.02117 -0.0176,-0.02823 0,-0.0082 -0.0306,-0.03646 -0.0682,-0.06233 -0.047,-0.03293 -0.10466,-0.09525 -0.18345,-0.19638 -0.15051,-0.194026 -0.1999,-0.237536 -0.27751,-0.24459 -0.0682,-0.0071 -0.11995,-0.04704 -0.14347,-0.111713 -0.009,-0.02587 -0.0223,-0.03881 -0.0365,-0.03881 -0.0129,0 -0.0365,-0.0141 -0.0529,-0.03177 -0.027,-0.0294 -0.0294,-0.03057 -0.0447,-0.01057 -0.008,0.01177 -0.0529,0.110537 -0.0988,0.2199 -0.0459,0.108183 -0.10113,0.225777 -0.12347,0.26223 l -0.0388,0.06468 0.007,0.151694 c 0.0118,0.301036 -0.0494,0.41275 -0.34455,0.624416 -0.0776,0.05527 -0.17286,0.134057 -0.21284,0.175213 -0.0435,0.04586 -0.0882,0.07996 -0.11642,0.09055 -0.04,0.01293 -0.0529,0.02703 -0.0835,0.08702 -0.0435,0.08584 -0.0647,0.109363 -0.1317,0.1564 -0.0341,0.02353 -0.0494,0.04233 -0.0494,0.06232 0,0.0153 -0.0153,0.06938 -0.0341,0.119943 -0.0365,0.0976 -0.0506,0.185797 -0.0306,0.185797 0.007,0 0.14699,-0.06703 0.31162,-0.149343 0.32573,-0.162277 0.46684,-0.24812 0.59384,-0.362184 0.2246,-0.201083 0.32691,-0.265759 0.47743,-0.298686 0.11406,-0.0247 0.1611,-0.05762 0.20814,-0.14699 0.04,-0.07291 0.0858,-0.118767 0.11876,-0.118767 0.0106,0 0.0482,0.0188 0.0835,0.04116 0.0353,0.02233 0.0741,0.04116 0.0858,0.04116 0.0129,0 0.0517,-0.02703 0.0882,-0.05997 0.0741,-0.06703 0.13406,-0.0976 0.21637,-0.108183 l 0.0553,-0.0071 0.11407,0.09995 c 0.0635,0.05527 0.16933,0.145816 0.23636,0.20226 l 0.12112,0.10113 v 0.110536 0.10936 l -0.0412,-0.0082 -0.0412,-0.0071 v 0.07526 c 0,0.04116 -0.008,0.105833 -0.0176,0.142287 -0.0176,0.06938 -0.067,0.177566 -0.087,0.189323 -0.0165,0.01057 -0.0929,-0.07173 -0.10113,-0.110537 -0.005,-0.0188 -0.0118,-0.03528 -0.0176,-0.03528 -0.0165,0 -0.0529,0.05762 -0.0917,0.143463 -0.0364,0.08231 -0.0541,0.09643 -0.067,0.05762 -0.004,-0.01177 -0.0423,-0.05527 -0.0858,-0.0976 -0.0435,-0.04116 -0.0894,-0.08937 -0.1023,-0.107007 -0.0306,-0.04116 -0.0506,-0.0341 -0.0906,0.03293 -0.0176,0.0294 -0.0412,0.05292 -0.0517,0.05292 -0.0141,0 -0.0165,0.0059 -0.0106,0.02 0.005,0.01177 0.02,0.0635 0.0318,0.11524 0.0447,0.17874 0.0106,0.350426 -0.0776,0.405693 -0.0529,0.03177 -0.17404,0.03293 -0.20579,0.0013 -0.02,-0.02 -0.0741,-0.148166 -0.0894,-0.214016 -0.007,-0.02703 -0.0153,-0.03177 -0.0706,-0.03763 -0.06,-0.0059 -0.17521,0.0035 -0.24694,0.02117 -0.02,0.0047 -0.10584,0.03763 -0.19285,0.07291 -0.0858,0.03528 -0.19521,0.07408 -0.24225,0.08584 -0.0753,0.0188 -0.1,0.03293 -0.1905,0.107007 -0.13523,0.11054 -0.21754,0.149343 -0.3563,0.165807 -0.1,0.01293 -0.11407,0.01763 -0.17639,0.0635 -0.0929,0.0682 -0.13288,0.08702 -0.18344,0.08702 -0.0317,0 -0.0541,0.0082 -0.0741,0.02823 -0.0247,0.0247 -0.0541,0.03293 -0.15993,0.04821 -0.16698,0.0247 -0.37982,0.07526 -0.59502,0.142287 l -0.1705,0.05409 -0.0941,-0.04704 c -0.14346,-0.07291 -0.14346,-0.07291 -0.14817,-0.263407 -0.005,-0.186973 -0.0118,-0.203437 -0.0705,-0.15875 -0.06,0.04586 -0.14464,0.08349 -0.29163,0.131703 -0.14581,0.04821 -0.23166,0.08584 -0.28928,0.130527 -0.0212,0.0153 -0.0776,0.04351 -0.127,0.0635 -0.13405,0.05292 -0.29986,0.13876 -0.62089,0.319853 -0.15875,0.09055 -0.2928,0.17286 -0.29751,0.183443 -0.003,0.01057 -0.0106,0.0588 -0.0141,0.108187 -0.009,0.12347 0.0176,0.24459 0.10936,0.491537 0.0423,0.112886 0.0823,0.231656 0.0905,0.264583 0.0106,0.04821 0.04,0.09642 0.13876,0.226953 0.11877,0.15875 0.21285,0.302213 0.26811,0.413926 0.0141,0.02823 0.0435,0.06703 0.0647,0.08584 0.0223,0.0188 0.0647,0.07408 0.0964,0.122297 0.0729,0.111713 0.0964,0.122297 0.31633,0.136407 0.0906,0.0071 0.18462,0.01647 0.20931,0.02353 0.0647,0.01763 0.12347,0.07408 0.13876,0.13523 0.0153,0.06115 0.0176,0.06115 0.13758,-0.0023 0.0412,-0.02233 0.0894,-0.03998 0.10584,-0.03998 0.0423,0 0.23518,0.169333 0.33749,0.29751 0.0741,0.09172 0.17286,0.270463 0.18932,0.339839 0.006,0.02823 0.004,0.03293 -0.0165,0.03293 -0.04,0 -0.0412,0.02 -0.004,0.07526 0.0459,0.06585 0.0717,0.16463 0.0717,0.27399 0,0.06938 -0.004,0.08584 -0.0176,0.08584 -0.0235,0 -0.0835,-0.03057 -0.13288,-0.06703 l -0.0376,-0.02823 -0.002,0.02703 c 0,0.0153 0,0.07056 0.002,0.123474 0.001,0.05292 -10e-4,0.101126 -0.005,0.108183 -0.006,0.0082 -0.0235,0.0047 -0.0541,-0.01057 -0.0259,-0.01293 -0.0741,-0.0294 -0.10818,-0.03645 -0.0341,-0.0071 -0.0882,-0.02353 -0.11877,-0.03763 -0.0705,-0.0294 -0.0823,-0.0188 -0.0741,0.07173 0.005,0.05997 0.005,0.06232 -0.02,0.05292 -0.0329,-0.01177 -0.0858,-0.01177 -0.13288,0 -0.0317,0.0082 -0.0435,0.0047 -0.0788,-0.02703 -0.0235,-0.02 -0.0764,-0.07996 -0.11877,-0.13288 -0.127,-0.15875 -0.16345,-0.175214 -0.40099,-0.174037 -0.24106,0 -0.32338,-0.01763 -0.39746,-0.08584 -0.0247,-0.02353 -0.0317,-0.03881 -0.027,-0.0588 0.005,-0.02 -0.002,-0.03528 -0.0294,-0.06115 -0.047,-0.04469 -0.11524,-0.14464 -0.16345,-0.23989 -0.0212,-0.04233 -0.0894,-0.156399 -0.15287,-0.252823 -0.0623,-0.0976 -0.18109,-0.290453 -0.26458,-0.429213 -0.17404,-0.293983 -0.22813,-0.37512 -0.37865,-0.576203 -0.13288,-0.17639 -0.17992,-0.269287 -0.18815,-0.36924 -0.005,-0.05762 -0.0141,-0.08467 -0.0506,-0.13641 -0.11642,-0.171683 -0.1858,-0.33396 -0.3175,-0.739656 l -0.0941,-0.2881 0.0282,-0.03057 c 0.0153,-0.01647 0.0494,-0.06115 0.0776,-0.09995 0.0988,-0.138757 0.18579,-0.209313 0.28692,-0.234007 0.0188,-0.0047 0.0741,-0.03881 0.12348,-0.07644 0.12817,-0.0976 0.33984,-0.23989 0.68086,-0.459787 l 0.29751,-0.191676 0.13758,-0.154047 c 0.23401,-0.26223 0.37982,-0.416277 0.50212,-0.52799 0.0647,-0.0588 0.13288,-0.131703 0.15169,-0.163453 0.0412,-0.07173 0.12936,-0.15875 0.21755,-0.217547 0.0365,-0.0247 0.15287,-0.08819 0.25988,-0.143463 0.17992,-0.09172 0.32926,-0.182267 0.32926,-0.199907 -10e-4,-0.02353 -0.06,-0.169333 -0.08,-0.198729 l -0.0247,-0.0341 0.0282,-0.02703 c 0.0317,-0.0294 0.0388,-0.0588 0.0141,-0.0588 -0.008,0 -0.0235,0.01057 -0.0353,0.02353 -0.0106,0.01293 -0.0247,0.0235 -0.0306,0.0235 -0.006,0 -0.0223,-0.0341 -0.0365,-0.07643 -0.0141,-0.04233 -0.0282,-0.07644 -0.0306,-0.07644 -0.004,0 -0.0165,0.0059 -0.0294,0.01177 -0.0188,0.01057 -0.0247,0.0059 -0.0412,-0.03528 -0.0106,-0.02587 -0.04,-0.0635 -0.0647,-0.08349 -0.0517,-0.04116 -0.0811,-0.08937 -0.0811,-0.134053 0,-0.0247 -0.006,-0.0294 -0.0353,-0.0294 -0.0506,0 -0.11524,-0.06115 -0.13171,-0.124647 -0.008,-0.02823 -0.0212,-0.05174 -0.0294,-0.05174 -0.008,0 -0.0153,0.0035 -0.0153,0.0082 0,0.0059 -0.005,0.01647 -0.0106,0.02587 -0.008,0.01293 -0.0176,0.01177 -0.0482,-0.0106 -0.0341,-0.0247 -0.0376,-0.03173 -0.0318,-0.07173 0.006,-0.04351 0.005,-0.04586 -0.027,-0.04586 -0.0612,0 -0.0717,-0.0094 -0.0635,-0.05997 0.0118,-0.07173 -0.0306,-0.109363 -0.0564,-0.05174 -0.027,0.05879 -0.0565,0.0294 -0.0565,-0.05527 v -0.04704 l -0.0447,0.0082 c -0.04,0.0059 -0.047,0.0035 -0.0717,-0.0294 -0.0141,-0.02117 -0.0412,-0.04233 -0.06,-0.04821 -0.027,-0.01057 -0.0329,-0.02 -0.0388,-0.06468 -0.006,-0.05762 -0.0294,-0.09407 -0.0412,-0.06467 -0.004,0.0094 -0.0188,0.03057 -0.0341,0.04586 l -0.0282,0.02823 -0.0353,-0.03293 c -0.0188,-0.01883 -0.0658,-0.09407 -0.10465,-0.169334 -0.0706,-0.137583 -0.12112,-0.199906 -0.17992,-0.22225 -0.0294,-0.01177 -0.0329,-0.01763 -0.0259,-0.04821 0.006,-0.02823 0.004,-0.03528 -0.0129,-0.03528 -0.0118,0 -0.0611,-0.04233 -0.11054,-0.09408 -0.0905,-0.09407 -0.12112,-0.114063 -0.10936,-0.07055 0.006,0.02117 0,0.0235 -0.0682,0.0235 -0.06,0 -0.0952,0.0094 -0.17521,0.04351 -0.0776,0.0341 -0.11642,0.04351 -0.16933,0.04469 h -0.0706 l -0.0529,0.07408 c -0.0776,0.107007 -0.29045,0.263407 -0.40569,0.298684 -0.10466,0.03057 -0.14347,0.04939 -0.32221,0.15875 -0.08,0.04939 -0.14581,0.08702 -0.14699,0.08467 -10e-4,-0.0023 -0.008,-0.0153 -0.0153,-0.02823 -0.007,-0.01293 -0.0235,-0.02353 -0.0353,-0.02353 -0.0235,0 -0.0259,0.02233 -0.0106,0.07291 0.007,0.02 0.004,0.02823 -0.0129,0.03293 -0.0129,0.0035 -0.0423,0.01763 -0.0682,0.03057 -0.0317,0.01763 -0.0564,0.02233 -0.0847,0.01763 -0.0365,-0.0071 -0.04,-0.0047 -0.047,0.0247 -0.0176,0.08467 -0.0482,0.121119 -0.0694,0.08584 -0.0141,-0.02233 -0.0517,-0.01293 -0.0553,0.0141 -0.002,0.02233 -0.0118,0.02703 -0.0435,0.02823 -0.0376,0 -0.0412,0.0035 -0.0564,0.05527 -0.0153,0.05174 -0.0188,0.05527 -0.0564,0.05527 -0.027,0 -0.0412,0.0059 -0.0412,0.01647 0,0.02 -0.0447,0.07761 -0.06,0.07761 -0.006,0 -0.0165,-0.01293 -0.0223,-0.0294 -0.0106,-0.02703 -0.0141,-0.02823 -0.0365,-0.01647 -0.0153,0.0071 -0.047,0.01057 -0.0753,0.0071 -0.0447,-0.0071 -0.0506,-0.0047 -0.0682,0.02703 -0.0259,0.04233 -0.08,0.08467 -0.21402,0.168156 -0.0588,0.03528 -0.12582,0.08584 -0.15169,0.111714 -0.04,0.04116 -0.0506,0.04704 -0.0847,0.04116 -0.0259,-0.0047 -0.04,-0.0023 -0.04,0.0071 0,0.0071 0.005,0.01293 0.0106,0.01293 0.006,0 0.0129,0.0082 0.0176,0.01763 0.005,0.01293 -0.007,0.0235 -0.04,0.03645 -0.0306,0.01293 -0.0788,0.05409 -0.14229,0.123473 -0.0917,0.101127 -0.0964,0.104657 -0.11289,0.08114 -0.009,-0.01293 -0.02,-0.02353 -0.0247,-0.02353 -0.005,0 -0.0564,0.03763 -0.11406,0.08349 -0.0588,0.04704 -0.13406,0.102307 -0.16698,0.124647 -0.0341,0.02117 -0.0706,0.05645 -0.0811,0.07761 -0.027,0.05409 -0.0929,0.131704 -0.13759,0.163454 -0.02,0.0141 -0.0635,0.03528 -0.0964,0.04704 -0.0482,0.01647 -0.0635,0.02823 -0.0882,0.07173 -0.0165,0.02823 -0.06,0.08584 -0.0964,0.127 -0.0647,0.07173 -0.0682,0.07408 -0.0847,0.05174 -0.0188,-0.02587 -0.0165,-0.0294 -0.0412,0.05879 -0.0141,0.04939 -0.0941,0.186973 -0.0953,0.161103 0,-0.0247 -0.0353,-0.0153 -0.0353,0.01057 0,0.03645 -0.02,0.0682 -0.0929,0.145813 -0.0376,0.03881 -0.0741,0.0882 -0.0823,0.108187 -0.0118,0.02823 -0.0235,0.03881 -0.0435,0.03881 -0.0341,0 -0.0447,0.01647 -0.0223,0.03528 0.009,0.0082 0.0176,0.0247 0.0176,0.03528 0,0.02233 -0.0517,0.07056 -0.0764,0.07056 -0.007,0 -0.0235,0.03293 -0.0365,0.07291 -0.0118,0.03998 -0.0576,0.136407 -0.1023,0.21402 -0.0882,0.151693 -0.11877,0.226953 -0.13171,0.322203 -0.007,0.05056 -0.0129,0.06232 -0.0353,0.0682 -0.0223,0.0059 -0.027,0.01647 -0.0318,0.06938 -0.005,0.04821 -0.0188,0.08584 -0.0635,0.1611 -0.047,0.08114 -0.0576,0.10701 -0.0576,0.1564 0,0.03998 -0.008,0.07055 -0.0247,0.09407 -0.0341,0.04939 -0.0506,0.10348 -0.06,0.196379 -0.006,0.0682 -0.0106,0.07996 -0.0294,0.07996 -0.0129,0 -0.0282,0.0141 -0.0365,0.03173 -0.007,0.0188 -0.0176,0.03645 -0.0223,0.03998 -0.006,0.0035 -0.004,0.02353 0.003,0.04469 0.0176,0.04939 0.007,0.125823 -0.0212,0.156396 -0.0188,0.02117 -0.0212,0.04821 -0.0223,0.266937 -0.001,0.148167 -0.009,0.315146 -0.0223,0.430386 -0.0118,0.10466 -0.0223,0.281047 -0.0223,0.39629 l -0.001,0.209314 h -0.027 -0.027 l 0.0235,0.03057 c 0.0282,0.03645 0.0294,0.05292 0.007,0.116417 -0.0153,0.04233 -0.0153,0.04821 0.006,0.07056 0.0306,0.03293 0.0541,0.10348 0.0635,0.194027 0.0106,0.09407 0.0365,0.177567 0.067,0.21637 l 0.0235,0.03057 h -0.0341 c -0.0635,0 -0.0659,0.02587 -0.007,0.08114 0.0329,0.03057 0.0506,0.05644 0.047,0.06703 -0.004,0.0094 -0.0106,0.0247 -0.0141,0.0341 -0.005,0.01057 -0.001,0.01763 0.0106,0.01763 0.0141,0 0.0553,0.07526 0.0553,0.09995 0,0.0035 -0.02,-0.0023 -0.0447,-0.01293 -0.0811,-0.03528 -0.0776,-0.0341 -0.0611,-0.0035 0.008,0.0153 0.0541,0.07761 0.10231,0.138759 0.0811,0.102304 0.14464,0.206964 0.14464,0.23636 0,0.0059 -0.008,0.01177 -0.0188,0.01177 -0.0141,0 -0.007,0.0153 0.0235,0.05762 0.0235,0.03177 0.0635,0.11524 0.0906,0.185797 0.0259,0.06938 0.06,0.14699 0.0764,0.17286 l 0.0306,0.04469 -0.0517,-0.0082 c -0.0482,-0.0082 -0.0494,-0.0071 -0.0306,0.01293 0.0118,0.01177 0.0435,0.03177 0.0706,0.04586 0.0564,0.02587 0.0788,0.07644 0.0341,0.07644 -0.0376,0 -0.0376,0.01763 0,0.0341 0.0188,0.0082 0.0541,0.03998 0.0788,0.06938 0.0235,0.0294 0.067,0.07879 0.0952,0.110536 0.0423,0.04586 0.0482,0.0588 0.0365,0.07291 -0.0188,0.02353 -0.007,0.03881 0.0341,0.04821 0.0506,0.0106 0.1317,0.08702 0.20579,0.192854 0.0353,0.05056 0.0823,0.105833 0.10348,0.12347 0.0212,0.01647 0.0317,0.03057 0.0235,0.03057 -0.0306,0 -0.0118,0.03057 0.0388,0.06232 0.0882,0.05644 0.17874,0.130526 0.3857,0.317499 0.10936,0.0976 0.19285,0.179917 0.1858,0.182267 -0.02,0.0071 -0.0153,0.03763 0.005,0.03763 0.0376,0 0.18109,0.07526 0.3222,0.169333 0.15993,0.105834 0.22225,0.139937 0.3128,0.172864 0.0447,0.0153 0.0588,0.02703 0.0576,0.04351 0,0.0188 0.009,0.0247 0.0459,0.03057 0.0259,0.0047 0.10465,0.03177 0.17756,0.06232 0.0964,0.03998 0.1517,0.05527 0.21167,0.05997 0.0647,0.0047 0.0823,0.0094 0.0858,0.02703 0.005,0.0153 0.0235,0.02233 0.0894,0.02823 0.047,0.0035 0.19285,0.02 0.32573,0.03528 0.42922,0.04939 0.53387,0.05645 0.7573,0.04939 0.11642,-0.0047 0.254,-0.0153 0.30339,-0.02353 0.0541,-0.0094 0.0929,-0.01177 0.0952,-0.0047 10e-4,0.0059 0.0212,0.0035 0.0435,-0.0059 0.0941,-0.03881 0.16463,-0.03763 0.16463,0.0023 0,0.0188 0.008,0.01647 0.06,-0.01763 0.0753,-0.05174 0.14228,-0.07056 0.18814,-0.05409 0.0247,0.0082 0.0341,0.0082 0.0341,-0.0023 0,-0.0082 0.0188,-0.02823 0.0412,-0.04704 0.0306,-0.0247 0.0482,-0.03057 0.0706,-0.0247 0.0223,0.0059 0.0376,0.0013 0.0564,-0.01647 0.0412,-0.03881 0.127,-0.07291 0.1858,-0.07291 0.0576,0 0.087,-0.01763 0.2928,-0.172863 0.0729,-0.05527 0.15758,-0.09642 0.19638,-0.0976 0.0153,0 0.027,-0.0047 0.027,-0.01057 0,-0.02703 0.0694,-0.0882 0.19168,-0.169333 0.0717,-0.04704 0.15052,-0.104657 0.17286,-0.125823 0.0318,-0.0294 0.0447,-0.03528 0.0588,-0.0247 0.0376,0.02703 0.0517,0.02823 0.0635,0.0071 0.0506,-0.08819 0.19638,-0.20226 0.29398,-0.229306 0.0447,-0.01177 0.0588,-0.02353 0.0858,-0.06938 0.0353,-0.06115 0.14111,-0.211667 0.23871,-0.342193 0.10819,-0.143464 0.18462,-0.261057 0.24577,-0.376297 0.0317,-0.05997 0.0612,-0.102303 0.0647,-0.09525 0.005,0.0071 0.0153,0.01293 0.0235,0.01293 0.0106,0 0.02,-0.03177 0.0282,-0.09995 0.0129,-0.10113 0.0435,-0.177566 0.0905,-0.229306 0.0176,-0.02 0.0282,-0.04939 0.0329,-0.09525 0.004,-0.03645 0.0282,-0.136407 0.0553,-0.223427 0.0259,-0.08702 0.0541,-0.1905 0.0623,-0.23048 0.0118,-0.06468 0.0188,-0.07761 0.0576,-0.105833 0.0435,-0.03173 0.0447,-0.0341 0.0388,-0.09172 -0.007,-0.06115 0.004,-0.110537 0.0576,-0.29398 0.0282,-0.09055 0.0317,-0.123474 0.0294,-0.229307 -0.006,-0.226953 -0.004,-0.244593 0.0306,-0.29398 0.0376,-0.05409 0.0353,-0.08937 -0.02,-0.238713 -0.0294,-0.08114 -0.0341,-0.10701 -0.027,-0.161103 0.004,-0.03528 0.008,-0.11524 0.009,-0.17639 0.001,-0.06115 0.007,-0.183444 0.0129,-0.271637 l 0.0106,-0.159926 -0.0341,-0.05056 c -0.0306,-0.04586 -0.0341,-0.06115 -0.0353,-0.15052 0,-0.07761 -0.005,-0.10113 -0.0188,-0.10936 -0.0153,-0.0082 -0.0165,-0.0188 -0.008,-0.05409 0.0223,-0.09878 0.005,-0.26223 -0.0506,-0.460963 -0.0223,-0.08467 -0.0223,-0.08819 -0.002,-0.10348 0.0118,-0.0082 0.0423,-0.0153 0.0682,-0.0153 0.0459,0 0.0517,0.0047 0.1223,0.09172 0.1858,0.229306 0.19991,0.243416 0.24694,0.243416 h 0.0435 l 0.0482,0.141114 c 0.047,0.136406 0.0494,0.14111 0.0823,0.14111 h 0.0341 l 0.0153,0.14111 c 0.0141,0.117593 0.0223,0.154046 0.0553,0.217546 0.0482,0.09407 0.0917,0.231657 0.12347,0.38923 0.0365,0.178743 0.10584,0.65852 0.11407,0.786696 l 0.007,0.112887 -0.0317,0.0141 c -0.0294,0.01293 -0.0435,0.04939 -0.0188,0.04939 0.0365,0 0.0365,0.05645 0,0.370416 -0.047,0.408047 -0.0753,0.58679 -0.12347,0.776113 -0.0376,0.14699 -0.0941,0.29986 -0.12935,0.35513 -0.0153,0.0235 -0.0153,0.02703 0.002,0.03645 0.0165,0.0094 0.0106,0.0247 -0.047,0.10936 -0.0353,0.05409 -0.11642,0.194027 -0.17875,0.310444 -0.13287,0.244593 -0.17403,0.312796 -0.25752,0.416279 -0.0435,0.05527 -0.0588,0.08467 -0.0564,0.107007 0.005,0.04586 -0.11054,0.19638 -0.2787,0.365713 -0.0753,0.07408 -0.14464,0.15052 -0.15404,0.16816 -0.009,0.0188 -0.0459,0.05762 -0.08,0.08702 -0.0341,0.0294 -0.0706,0.0682 -0.08,0.08702 -0.0129,0.02587 -0.0235,0.03173 -0.0435,0.02703 -0.02,-0.0047 -0.0317,0.0023 -0.0541,0.03645 -0.0694,0.101129 -0.27752,0.269286 -0.45861,0.369239 -0.0623,0.0341 -0.0776,0.04704 -0.0764,0.06938 0.001,0.02117 -0.009,0.03177 -0.0412,0.04468 -0.0506,0.02117 -0.12347,0.07056 -0.19521,0.13288 -0.0365,0.03177 -0.0788,0.05409 -0.13523,0.07056 -0.0647,0.0188 -0.0858,0.03173 -0.0988,0.05644 -0.0212,0.04116 -0.08,0.07408 -0.23871,0.13288 -0.0823,0.03057 -0.13876,0.0588 -0.15875,0.08114 -0.0176,0.0188 -0.0611,0.04468 -0.0976,0.05762 -0.0623,0.02353 -0.21402,0.05292 -0.23636,0.04586 -0.009,-0.0023 -0.0329,0.01647 -0.11877,0.09878 -0.0235,0.02117 -0.0353,0.02353 -0.10818,0.01647 -0.0447,-0.0047 -0.0941,-0.0047 -0.11171,0 l -0.0306,0.0071 0.027,0.02117 c 0.0435,0.03645 0.0118,0.04469 -0.10936,0.02823 -0.27752,-0.03763 -0.32809,-0.04233 -0.40805,-0.03645 -0.0541,0.0035 -0.10818,0.01647 -0.14817,0.03528 -0.0564,0.02587 -0.0682,0.02703 -0.13405,0.01647 -0.0517,-0.0094 -0.11407,-0.0082 -0.2246,0.0035 -0.0847,0.0082 -0.18462,0.01177 -0.22343,0.0082 -0.0623,-0.0071 -0.0717,-0.0047 -0.087,0.01647 l -0.0153,0.0247 -0.12583,-0.0247 c -0.0694,-0.01293 -0.28575,-0.04586 -0.48212,-0.07055 -0.53152,-0.07056 -0.75025,-0.11877 -0.91487,-0.201083 -0.0517,-0.02587 -0.0706,-0.0294 -0.0906,-0.02 -0.0223,0.0094 -0.0376,0.0047 -0.0941,-0.03645 -0.0376,-0.02587 -0.10819,-0.07291 -0.1564,-0.103483 -0.0482,-0.03177 -0.13876,-0.08937 -0.20108,-0.130527 -0.10819,-0.07056 -0.11642,-0.07408 -0.16816,-0.06703 -0.0482,0.0071 -0.0611,0.0035 -0.13523,-0.04116 -0.0553,-0.03293 -0.0953,-0.04821 -0.12465,-0.04821 -0.0623,0 -0.12347,-0.0294 -0.12347,-0.05762 0,-0.0188 -0.007,-0.0247 -0.0329,-0.0247 -0.0764,0 -0.19874,-0.08584 -0.2199,-0.154047 -0.006,-0.0188 -0.0141,-0.02233 -0.0388,-0.01647 -0.0282,0.0059 -0.0341,0.0013 -0.0529,-0.04468 -0.0141,-0.0341 -0.047,-0.07526 -0.0964,-0.11877 -0.0529,-0.04586 -0.0764,-0.07644 -0.0823,-0.10348 -0.0153,-0.07526 -0.0658,-0.124649 -0.0611,-0.06115 10e-4,0.01763 -0.004,0.03293 -0.009,0.03528 -0.0129,0.0047 -0.0894,-0.108183 -0.1176,-0.174036 -0.0188,-0.04704 -0.0376,-0.05644 -0.0482,-0.02703 -0.009,0.02353 -0.0447,0.02233 -0.0647,-0.0023 -0.009,-0.01057 -0.0588,-0.04704 -0.11053,-0.08114 -0.14111,-0.09172 -0.20579,-0.171686 -0.20579,-0.256353 0,-0.03645 -0.0106,-0.06585 -0.0247,-0.06585 -0.006,0 -0.0106,0.01057 -0.0106,0.0235 0,0.01293 -0.007,0.02353 -0.0165,0.02353 -0.0294,0 -0.1317,-0.122296 -0.1999,-0.241066 -0.0906,-0.15522 -0.14935,-0.232833 -0.20109,-0.264583 -0.04,-0.0247 -0.0423,-0.0294 -0.0353,-0.06938 0.006,-0.03763 0.002,-0.04704 -0.0329,-0.08232 -0.0541,-0.05174 -0.10348,-0.162276 -0.16815,-0.372766 -0.06,-0.197557 -0.08,-0.238713 -0.15287,-0.33279 -0.0706,-0.09172 -0.0788,-0.124647 -0.0623,-0.255173 0.0153,-0.11289 0.009,-0.175214 -0.0188,-0.211667 -0.0165,-0.02 -0.0176,-0.0153 -0.0153,0.05292 0.006,0.131703 -0.0188,0.09642 -0.0882,-0.13053 -0.11407,-0.370417 -0.14582,-0.546803 -0.13406,-0.762 0.005,-0.08819 0.002,-0.14346 -0.0106,-0.194027 -0.0282,-0.119943 -0.0341,-0.302213 -0.0118,-0.446849 0.0106,-0.07173 0.0223,-0.141114 0.0259,-0.1564 0.006,-0.02117 0.002,-0.02587 -0.0165,-0.02587 -0.0447,0 -0.0529,-0.03881 -0.0247,-0.114063 0.0388,-0.103484 0.04,-0.127 0.0118,-0.163457 -0.0388,-0.04821 -0.0282,-0.154043 0.0306,-0.30574 0.009,-0.02587 -0.0294,-0.02 -0.0459,0.0071 -0.008,0.01293 -0.0223,0.0235 -0.0317,0.0235 -0.0129,0 -0.0153,-0.0141 -0.009,-0.06467 0.007,-0.07408 -0.007,-0.08467 -0.0329,-0.02233 -0.009,0.02353 -0.0235,0.03998 -0.0317,0.03763 -0.027,-0.0094 -0.0223,-0.04116 0.0118,-0.0929 0.0376,-0.05527 0.11994,-0.217543 0.11994,-0.235183 0,-0.0059 -0.008,-0.01057 -0.0176,-0.01057 -0.0235,0 -0.0223,-0.0023 0.0118,-0.06938 0.0282,-0.05527 0.0282,-0.05762 0.006,-0.0635 -0.0365,-0.0094 -0.0294,-0.05762 0.0306,-0.232833 0.0588,-0.175213 0.10466,-0.26223 0.17287,-0.33749 0.0259,-0.02703 0.04,-0.04939 0.0317,-0.04939 -0.008,0 -0.0423,0.0294 -0.0753,0.06468 -0.0682,0.07408 -0.10113,0.08702 -0.0717,0.02823 0.0118,-0.02117 0.0165,-0.04821 0.0118,-0.06703 -0.005,-0.02587 0.004,-0.04468 0.0529,-0.102303 0.0788,-0.09525 0.14111,-0.184623 0.14111,-0.203437 0,-0.0294 -0.0294,-0.0071 -0.0647,0.04821 -0.0317,0.05056 -0.0694,0.07761 -0.0835,0.0635 -0.0118,-0.01177 0.0647,-0.14464 0.10584,-0.183444 0.0494,-0.04704 0.0517,-0.05997 0.0176,-0.08114 -0.0247,-0.01647 -0.0247,-0.01647 0.0106,-0.05292 0.0294,-0.03057 0.0341,-0.04233 0.0235,-0.0588 -0.0165,-0.0294 -0.003,-0.07056 0.0447,-0.14699 0.0235,-0.03528 0.0447,-0.08349 0.0482,-0.10701 0.005,-0.02353 0.0247,-0.06232 0.0459,-0.08819 0.0212,-0.0247 0.0611,-0.0882 0.0882,-0.141113 0.027,-0.05174 0.0647,-0.11759 0.0835,-0.145814 0.0317,-0.04586 0.0306,-0.07056 -0.002,-0.03177 -0.02,0.0247 -0.0353,0.02233 -0.0353,-0.0059 0,-0.01177 0.0212,-0.03998 0.047,-0.06115 0.0318,-0.0247 0.047,-0.04586 0.0459,-0.06233 -0.002,-0.0153 0.0223,-0.05056 0.0729,-0.101127 0.0506,-0.05292 0.10701,-0.13288 0.17521,-0.246946 0.11642,-0.197554 0.22225,-0.316324 0.30339,-0.341017 0.0588,-0.01763 0.0647,-0.04233 0.0106,-0.04821 l -0.0376,-0.0035 0.0529,-0.02823 c 0.0435,-0.02353 0.0494,-0.0294 0.0318,-0.03528 -0.02,-0.0071 -0.02,-0.0094 -0.004,-0.0235 0.0106,-0.0094 0.0482,-0.05762 0.0835,-0.10701 0.0706,-0.102306 0.13523,-0.169333 0.18697,-0.19638 0.0247,-0.01293 0.0294,-0.02117 0.02,-0.03057 -0.0247,-0.0247 -0.0129,-0.04233 0.0694,-0.10936 0.0729,-0.0588 0.0823,-0.07056 0.0823,-0.105834 0,-0.03293 0.007,-0.04469 0.0435,-0.06703 0.0247,-0.0153 0.0647,-0.03528 0.0882,-0.04468 0.0247,-0.0082 0.0447,-0.02233 0.0447,-0.03173 0,-0.0082 -0.006,-0.01177 -0.0129,-0.0071 -0.0353,0.02117 0.006,-0.02823 0.11171,-0.136407 0.0635,-0.06585 0.13641,-0.129353 0.16111,-0.142286 0.027,-0.01293 0.0423,-0.02823 0.0388,-0.03763 -0.002,-0.0082 0.0259,-0.04116 0.0682,-0.07526 0.0412,-0.03293 0.127,-0.108183 0.19167,-0.168157 0.13994,-0.129353 0.254,-0.211666 0.3422,-0.24812 0.0494,-0.02117 0.0635,-0.03293 0.0635,-0.05174 0,-0.01647 0.0118,-0.03057 0.0306,-0.03998 0.0176,-0.0071 0.0717,-0.04468 0.12112,-0.08349 0.0929,-0.07173 0.19167,-0.123473 0.25635,-0.136407 0.0247,-0.0047 0.0388,-0.0141 0.0388,-0.02703 0.001,-0.05409 0.11877,-0.13053 0.20461,-0.13053 0.0306,0 0.0423,-0.02587 0.0188,-0.04116 -0.0259,-0.0153 -0.009,-0.02703 0.0506,-0.0341 0.0776,-0.01057 0.10348,-0.02353 0.0647,-0.03528 l -0.027,-0.0082 0.0294,-0.0094 c 0.0165,-0.0059 0.0811,-0.03645 0.14463,-0.07056 0.0623,-0.03293 0.12583,-0.05997 0.13876,-0.05997 0.0341,0 0.0694,-0.02117 0.0694,-0.04116 0,-0.02233 0.0294,-0.03645 0.0964,-0.04586 0.0435,-0.0071 0.10819,-0.04351 0.34337,-0.201084 0.15993,-0.105833 0.30574,-0.205786 0.32573,-0.22225 0.0259,-0.02117 0.0494,-0.03057 0.0823,-0.03057 0.0435,0 0.047,-0.0023 0.0435,-0.03293 -0.002,-0.0247 0.002,-0.03293 0.0223,-0.03528 0.0223,-0.0035 0.027,0.0013 0.027,0.02823 0,0.02587 0.004,0.0294 0.0141,0.0188 0.008,-0.0082 0.027,-0.0141 0.0423,-0.0141 0.0247,0 0.0259,-0.0013 0.009,-0.0188 -0.0106,-0.0094 -0.0188,-0.02353 -0.0188,-0.0294 0,-0.0059 0.0341,-0.02587 0.0764,-0.04468 0.0682,-0.03173 0.0764,-0.03881 0.0705,-0.06232 -0.006,-0.02353 0.0165,-0.05174 0.14346,-0.181094 0.1176,-0.119943 0.16228,-0.15875 0.20579,-0.175213 0.0588,-0.02117 0.0741,-0.04116 0.0329,-0.04116 -0.0306,0 -0.0294,-0.01293 0.007,-0.06703 0.0529,-0.07761 0.0941,-0.168156 0.15757,-0.350423 0.0694,-0.201083 0.12818,-0.333963 0.17169,-0.39041 0.0165,-0.02117 0.0235,-0.0388 0.0176,-0.0388 -0.027,0 -0.0106,-0.03528 0.0341,-0.07408 0.047,-0.03998 0.0623,-0.07291 0.0294,-0.05997 -0.02,0.0082 -0.0247,-0.0247 -0.006,-0.03645 0.007,-0.0035 0.02,-0.02353 0.0306,-0.04351 0.0165,-0.03177 0.0165,-0.03645 -0.002,-0.05056 -0.02,-0.0141 -0.0188,-0.02 0.0212,-0.10701 0.0235,-0.05174 0.06,-0.13523 0.0788,-0.188147 0.02,-0.05174 0.0553,-0.116416 0.0776,-0.14229 0.0306,-0.03645 0.0412,-0.05879 0.0412,-0.09172 0,-0.0294 0.009,-0.05527 0.0294,-0.07879 0.0165,-0.0188 0.0376,-0.06468 0.047,-0.10113 0.0282,-0.102307 0.0294,-0.103484 0.16463,-0.264584 0.15052,-0.181093 0.23166,-0.262233 0.3175,-0.319853 0.0376,-0.0247 0.0647,-0.05056 0.0647,-0.0635 0,-0.02587 0.0282,-0.05174 0.14699,-0.13288 0.11759,-0.08114 0.17874,-0.112886 0.23989,-0.122296 0.0318,-0.0047 0.0494,-0.0153 0.0541,-0.0294 0.0106,-0.03293 0.0729,-0.07879 0.11759,-0.08819 0.04,-0.0071 0.0588,-0.03998 0.0235,-0.03998 -0.009,0 -0.0176,-0.0082 -0.0176,-0.01763 0,-0.0094 0.0106,-0.01763 0.0235,-0.01763 0.0353,0 0.0823,-0.02703 0.15405,-0.08819 0.0353,-0.0294 0.0882,-0.0635 0.11877,-0.07408 0.0318,-0.01057 0.0564,-0.02587 0.0564,-0.0341 0,-0.0153 0.0153,-0.02117 0.11053,-0.03763 0.067,-0.01293 0.10113,-0.0294 0.10113,-0.04939 0,-0.01647 -0.0365,-0.01293 -0.0988,0.0082 -0.0306,0.0106 -0.0588,0.0153 -0.0635,0.0106 -0.005,-0.0047 -0.002,-0.01177 0.006,-0.0141 0.007,-0.0023 0.0764,-0.04233 0.15287,-0.0882 0.1905,-0.112887 0.28693,-0.1611 0.39982,-0.197554 0.0776,-0.0247 0.0917,-0.03293 0.0764,-0.04351 -0.0176,-0.01057 -0.0141,-0.0153 0.0223,-0.03057 0.0917,-0.03881 0.22225,-0.07879 0.254,-0.07879 0.027,0 0.0365,-0.0071 0.047,-0.03528 0.0165,-0.04233 0.0741,-0.07055 0.14581,-0.07055 0.027,0 0.0459,-0.0035 0.0423,-0.0082 -0.0176,-0.01763 0.0212,-0.03881 0.0706,-0.03881 0.047,0 0.0517,-0.0023 0.0447,-0.0235 -0.006,-0.02 -0.002,-0.02353 0.0259,-0.02353 0.0176,0 0.0541,0.0059 0.08,0.01177 0.0553,0.01293 0.0635,0.0071 0.0423,-0.0247 -0.008,-0.0141 -0.0129,-0.02703 -0.0106,-0.0294 0.002,-0.0013 0.0541,0.0023 0.11524,0.0094 0.0859,0.0094 0.12348,0.0094 0.16464,-0.0023 l 0.0529,-0.0141 -0.04,-0.0141 c -0.0223,-0.0071 -0.0423,-0.0188 -0.0447,-0.02587 -0.004,-0.01057 0.0329,-0.01293 0.12817,-0.01177 0.11172,0.0013 0.13994,-0.0023 0.17404,-0.02117 0.0353,-0.02 0.0376,-0.0247 0.0176,-0.02823 -0.0129,-0.0023 -0.0306,-0.01057 -0.04,-0.0188 -0.0129,-0.0094 0.0153,-0.0141 0.12347,-0.02 0.11642,-0.0059 0.16463,-0.0153 0.29281,-0.05409 0.2199,-0.0682 0.21755,-0.06703 0.21755,-0.03881 0,0.02703 0.007,0.02823 0.047,0.0059 0.0388,-0.02233 0.11053,-0.02233 0.15287,0 0.0329,0.01763 0.0353,0.01647 0.0353,-0.0059 0,-0.02587 0.0176,-0.0294 0.0482,-0.01177 z"
         id="path885"
         style="fill:#000000;stroke:none;stroke-width:0.00117592" />
      <path
         d="m 88.401054,51.55672 c -1.148879,0.164627 -1.485196,0.23048 -2.034352,0.399814 -0.50447,0.155223 -0.564443,0.16698 -0.956026,0.194026 -0.229307,0.0153 -0.272813,0.0153 -0.272813,-0.0013 0,-0.0071 0.02703,-0.05056 0.05879,-0.09642 l 0.05997,-0.08467 -0.03293,-0.0035 c -0.04939,-0.0071 -0.506823,0.06703 -0.690266,0.109363 -0.03881,0.0094 -0.08232,0.01763 -0.09525,0.01763 -0.0141,0 -0.05762,-0.03528 -0.10936,-0.09055 l -0.08467,-0.09055 -0.05057,0.04704 c -0.07761,0.07291 -0.08114,0.07526 -0.209314,0.09407 -0.06703,0.01057 -0.262233,0.04704 -0.433916,0.08231 -0.584436,0.11877 -0.532696,0.11289 -1.111249,0.123473 -0.463317,0.0071 -0.52799,0.01057 -0.61736,0.03293 -0.05527,0.01293 -0.163456,0.0294 -0.241066,0.03645 -0.399813,0.03645 -0.390407,0.0341 -0.690267,0.168156 -0.236363,0.105833 -0.470369,0.224603 -0.563269,0.284573 -0.06585,0.04233 -0.08231,0.05997 -0.09878,0.104657 -0.02703,0.07173 -0.01763,0.15875 0.0247,0.223427 0.07996,0.12112 0.339843,0.411573 0.379823,0.424509 0.01057,0.0035 0.03173,0.03057 0.04586,0.05997 0.0141,0.0294 0.04704,0.08114 0.07173,0.114063 0.0247,0.0341 0.06232,0.0929 0.08114,0.13288 0.02,0.03998 0.0635,0.09878 0.09642,0.130527 0.148166,0.145816 0.248123,0.161103 0.836083,0.131703 0.296333,-0.0153 0.458613,-0.0035 0.733779,0.05527 0.243417,0.05174 0.37512,0.07408 0.555036,0.0929 0.09525,0.0106 0.249297,0.03528 0.341017,0.05409 0.1564,0.03173 0.203436,0.0341 0.203436,0.0094 0,-0.01647 0.02703,-0.01293 0.10113,0.01763 0.03763,0.0153 0.104657,0.0341 0.148167,0.04116 0.07055,0.01177 0.08349,0.01057 0.12347,-0.0094 0.07526,-0.03881 0.212843,-0.05292 0.47978,-0.05056 0.285749,0.0035 0.478599,0.01763 0.570323,0.04116 0.03645,0.0094 0.128176,0.02117 0.205786,0.0247 0.19638,0.01177 0.309267,0.0294 0.364537,0.05644 0.04116,0.02117 0.05292,0.02233 0.0976,0.01057 0.02703,-0.0071 0.0635,-0.01293 0.07996,-0.01293 0.03998,0 0.19403,0.08114 0.276343,0.145814 0.06232,0.04821 0.07291,0.06703 0.183443,0.28575 0.06468,0.128176 0.13288,0.269286 0.149343,0.312796 0.01763,0.04469 0.05527,0.11877 0.08349,0.16463 0.03528,0.05762 0.05645,0.10701 0.06468,0.155223 0.0294,0.162277 0.11877,0.37159 0.249296,0.583257 0.09995,0.15875 0.142287,0.244593 0.17286,0.344546 0.0294,0.09643 0.03057,0.1564 0.0059,0.437447 -0.0153,0.176386 -0.0153,0.238713 -0.0047,0.342193 0.03057,0.28575 0.0294,0.32573 -0.0047,0.415103 -0.03881,0.09878 -0.09407,0.163453 -0.241063,0.27987 -0.135233,0.107007 -0.330437,0.29986 -0.330437,0.32573 0,0.0094 -0.0188,0.05527 -0.04233,0.10113 -0.07526,0.150517 -0.04939,0.174037 0.198733,0.174037 0.148167,0.0013 0.15287,0 0.309267,-0.05292 0.11877,-0.03998 0.17286,-0.05174 0.21402,-0.04939 l 0.05527,0.0035 0.0035,0.05292 c 0.0059,0.08114 0.0153,0.08702 0.131703,0.07879 0.145813,-0.0094 0.3516,-0.07761 0.402166,-0.13288 0.0294,-0.03293 0.07879,-0.136407 0.11524,-0.243417 l 0.03293,-0.09643 0.0013,0.111714 c 0,0.06232 -0.0071,0.148166 -0.01763,0.194026 -0.0294,0.127 -0.03177,0.14464 -0.02353,0.17639 0.01057,0.03998 0.06703,0.06703 0.134057,0.06232 l 0.05527,-0.0035 0.03528,0.105833 c 0.04233,0.125824 0.0588,0.13876 0.162277,0.130527 0.08467,-0.0059 0.11877,-0.02823 0.15052,-0.09525 0.02703,-0.05644 0.07643,-0.09995 0.112886,-0.09995 0.01293,0 0.06233,0.01293 0.109364,0.0294 0.04704,0.01647 0.09643,0.0294 0.108183,0.0294 0.03763,0 0.134057,-0.05527 0.174037,-0.10113 0.03645,-0.04233 0.03763,-0.04704 0.03057,-0.11524 -0.0035,-0.03998 -0.01057,-0.09172 -0.0141,-0.116417 l -0.0071,-0.04351 h 0.04704 c 0.02587,0 0.0635,-0.0035 0.08467,-0.0071 0.04233,-0.0094 0.111713,-0.07408 0.122296,-0.116417 0.0094,-0.03763 -0.03763,-0.154043 -0.0929,-0.231657 -0.05174,-0.07055 -0.0976,-0.1611 -0.14699,-0.284573 -0.04704,-0.118766 -0.05997,-0.14464 -0.111713,-0.211666 -0.02353,-0.03173 -0.03881,-0.06115 -0.03293,-0.06938 0.02823,-0.04704 0.32573,-0.465667 0.38923,-0.549157 0.04351,-0.05409 0.165807,-0.189323 0.272817,-0.29986 0.296333,-0.304566 0.352776,-0.403343 0.352776,-0.624416 0,-0.122297 0.0059,-0.128177 0.127,-0.117593 0.04939,0.0047 0.135233,0.0106 0.1905,0.0141 0.114066,0.0082 0.577379,-0.0247 0.632649,-0.04351 0.03528,-0.01177 0.06115,-0.0047 0.122297,0.03881 0.01763,0.01293 0.03528,0.0071 0.108183,-0.02823 0.04939,-0.0247 0.122297,-0.04939 0.162277,-0.05644 0.04116,-0.0059 0.143463,-0.03177 0.22813,-0.05762 0.21637,-0.06585 0.613833,-0.142287 0.736129,-0.142287 0.03645,0 0.04704,0.0059 0.06115,0.0341 0.07996,0.154044 0.171683,1.13947 0.171683,1.84973 v 0.266933 l -0.07056,0.04821 c -0.03998,0.02703 -0.116417,0.06938 -0.170507,0.09408 -0.05409,0.0247 -0.13053,0.06703 -0.169333,0.0929 -0.03881,0.02703 -0.07526,0.04821 -0.08232,0.04821 -0.02117,0 -0.09878,0.07526 -0.13288,0.128176 -0.05409,0.08702 -0.03998,0.124647 0.05997,0.159924 0.02823,0.0094 0.07173,0.03645 0.09643,0.05762 0.06703,0.06115 0.10348,0.0635 0.252824,0.01293 0.07056,-0.02353 0.148166,-0.05527 0.174036,-0.07173 0.05762,-0.03881 0.08937,-0.02703 0.125823,0.04468 0.0141,0.02823 0.03645,0.06585 0.04939,0.08467 l 0.02353,0.0341 0.107006,-0.0071 c 0.13641,-0.0082 0.33749,-0.04939 0.399817,-0.08114 0.02587,-0.0141 0.110536,-0.08584 0.18697,-0.1611 l 0.138759,-0.136407 0.0106,-0.17051 c 0.01647,-0.235186 0.03998,-0.37865 0.108187,-0.65264 0.03177,-0.12935 0.07055,-0.298683 0.08702,-0.376296 0.0341,-0.16463 0.14699,-0.589137 0.21637,-0.817267 0.04116,-0.132879 0.04939,-0.179916 0.05409,-0.285749 0.0035,-0.102307 0.01177,-0.149344 0.04233,-0.23989 0.04469,-0.134054 0.09055,-0.201084 0.1564,-0.223427 0.07173,-0.02587 0.263407,-0.07173 0.332787,-0.07996 0.05879,-0.0082 0.06232,-0.0059 0.0929,0.02823 0.05056,0.05645 0.15287,0.244594 0.191677,0.348074 0.0588,0.157576 0.10348,0.235186 0.209313,0.36101 0.114067,0.137583 0.312796,0.362186 0.49624,0.562093 0.16228,0.17639 0.249296,0.277516 0.343373,0.399813 0.105833,0.13876 0.286923,0.409223 0.309266,0.463316 0.02703,0.06468 0.03528,0.18697 0.01763,0.28575 -0.02117,0.127 -0.06938,0.19873 -0.35513,0.524463 -0.155223,0.176387 -0.209317,0.255174 -0.209317,0.30574 0,0.08584 0.09996,0.116417 0.198733,0.06115 0.02703,-0.01647 0.0588,-0.0294 0.0682,-0.0294 0.0094,0 0.04586,0.02117 0.08231,0.04586 0.115243,0.08349 0.235187,0.08702 0.379826,0.01177 0.0388,-0.02 0.09172,-0.03881 0.11759,-0.04233 0.04469,-0.0059 0.04939,-0.0035 0.115244,0.06468 0.07408,0.07643 0.11759,0.09642 0.219896,0.09642 0.07173,0 0.154047,-0.02117 0.249297,-0.06467 0.09995,-0.04469 0.12112,-0.07056 0.13288,-0.16228 0.01177,-0.09995 0.01647,-0.105833 0.06938,-0.0976 0.101129,0.0188 0.132879,0.02117 0.159923,0.0141 0.04116,-0.01057 0.11289,-0.07643 0.131706,-0.122297 0.0153,-0.03645 0.01293,-0.04468 -0.04469,-0.176386 -0.129354,-0.29163 -0.221073,-0.610307 -0.31162,-1.075973 -0.137583,-0.719667 -0.13523,-0.703203 -0.145813,-0.96073 -0.01293,-0.319853 -0.03763,-0.41275 -0.210494,-0.820796 -0.149339,-0.351603 -0.201083,-0.555037 -0.201083,-0.794927 0,-0.08114 0.0047,-0.148166 0.01057,-0.148166 0.0059,0 0.09878,0.08467 0.20814,0.189323 0.232833,0.221073 0.36101,0.328083 0.393933,0.328083 0.03057,0 0.151696,0.11524 0.217546,0.20814 0.0588,0.08114 0.122297,0.214017 0.149344,0.309267 0.02587,0.09055 0.04116,0.211666 0.05527,0.423333 0.0059,0.09995 0.0153,0.19403 0.0188,0.209317 0.0071,0.02587 0.03998,0.03763 0.03998,0.01293 0,-0.0059 0.0059,-0.0082 0.01177,-0.0047 0.0071,0.0035 0.01177,0.0247 0.01177,0.04586 0,0.09878 0.07761,0.330433 0.129353,0.38923 0.01177,0.01293 0.04586,0.07056 0.07643,0.129353 0.0588,0.11171 0.154046,0.264584 0.16463,0.264584 0.0035,0 0.0035,-0.0188 -0.0013,-0.04116 -0.0035,-0.02233 -0.0047,-0.04116 -0.0013,-0.04116 0.0035,0 0.03645,0.04939 0.07173,0.108187 0.03528,0.05997 0.08702,0.136406 0.115243,0.170506 0.02823,0.0341 0.07996,0.0976 0.116417,0.141113 0.03645,0.04351 0.08114,0.108184 0.09878,0.143464 0.02233,0.04586 0.03528,0.0588 0.04468,0.04939 0.02587,-0.02587 -0.01647,-0.25047 -0.138757,-0.734953 -0.136406,-0.53975 -0.252823,-1.094786 -0.252823,-1.201796 0,-0.07055 -0.05057,-0.283397 -0.09525,-0.39511 -0.01293,-0.03293 -0.02117,-0.06232 -0.01763,-0.06468 0.0023,-0.0023 0.0235,0.01177 0.04704,0.03173 0.02353,0.02117 0.04233,0.0341 0.04233,0.03057 0,-0.0153 -0.07526,-0.155224 -0.13523,-0.254 -0.12112,-0.19403 -0.477427,-0.579733 -0.699676,-0.754946 -0.341017,-0.269287 -0.57973,-0.607954 -0.717313,-1.020703 -0.08467,-0.25047 -0.14464,-0.346897 -0.3175,-0.51035 -0.189323,-0.177567 -0.295157,-0.243417 -0.552687,-0.345723 -0.214016,-0.08584 -0.373943,-0.136407 -0.652636,-0.20814 -0.135233,-0.03528 -0.299863,-0.07996 -0.364536,-0.09995 -0.163453,-0.05056 -0.318677,-0.07526 -0.833733,-0.12935 -0.429213,-0.04469 -0.459786,-0.04704 -0.823146,-0.04586 -0.20814,0.0013 -0.52564,0.0047 -0.70673,0.0094 -0.389233,0.0082 -0.683213,-0.0013 -1.028936,-0.03293 -0.525639,-0.04939 -1.061859,-0.07644 -1.758009,-0.0882 l -0.329256,-0.0059 z m -0.16228,4.399135 c 0.0071,0.04233 -0.0188,0.129353 -0.06938,0.23636 -0.04821,0.103483 -0.06115,0.09643 -0.05292,-0.0294 0.0082,-0.105833 0.0294,-0.201083 0.06233,-0.27987 l 0.02,-0.04586 0.01647,0.04116 c 0.01057,0.02233 0.02,0.05762 0.02353,0.07761 z"
         id="path899"
         style="fill:#000000;stroke:none;stroke-width:0.00117592" />
      <text
         xml:space="preserve"
         transform="matrix(0.26458333,0,0,0.26458333,21.949111,-2.0401185)"
         id="text7136"
         style="font-style:normal;font-weight:normal;font-size:20px;line-height:1.25;font-family:sans-serif;white-space:pre;shape-inside:url(#rect7138);fill:#000000;fill-opacity:1;stroke:none"><tspan
           x="262.00391"
           y="265.40039"
           id="tspan10438"><tspan
             style="font-weight:bold;font-family:Rasa;-inkscape-font-specification:'Rasa Bold'"
             id="tspan10436">All species</tspan></tspan></text>
    </g>
  </g>
</svg>
