<?xml version="1.0" encoding="UTF-8" standalone="no"?>
<!-- Created with Inkscape (http://www.inkscape.org/) -->

<svg
   width="210mm"
   height="297mm"
   viewBox="0 0 210 297"
   version="1.1"
   id="svg5"
   inkscape:version="1.1.2 (0a00cf5339, 2022-02-04)"
   sodipodi:docname="all.svg"
   xmlns:inkscape="http://www.inkscape.org/namespaces/inkscape"
   xmlns:sodipodi="http://sodipodi.sourceforge.net/DTD/sodipodi-0.dtd"
   xmlns="http://www.w3.org/2000/svg"
   xmlns:svg="http://www.w3.org/2000/svg">
  <sodipodi:namedview
     id="namedview7"
     pagecolor="#ffffff"
     bordercolor="#999999"
     borderopacity="1"
     inkscape:pageshadow="0"
     inkscape:pageopacity="0"
     inkscape:pagecheckerboard="0"
     inkscape:document-units="mm"
     showgrid="false"
     inkscape:zoom="1.5500842"
     inkscape:cx="402.23621"
     inkscape:cy="219.98805"
     inkscape:window-width="1920"
     inkscape:window-height="1043"
     inkscape:window-x="1920"
     inkscape:window-y="0"
     inkscape:window-maximized="1"
     inkscape:current-layer="layer1" />
  <defs
     id="defs2">
    <rect
       x="262.00466"
       y="247.70427"
       width="283.26389"
       height="77.649588"
       id="rect7138" />
  </defs>
  <g
     inkscape:label="Calque 1"
     inkscape:groupmode="layer"
     id="layer1">
    <g
       id="g1140">
      <rect
         style="fill:#ffffff;stroke-width:0.378612"
         id="rect933"
         width="57.53783"
         height="41.798122"
         x="74.82283"
         y="20.816936" />
      <path
         d="m 94.70226,23.218406 c -0.02117,0.01177 -0.04704,0.03998 -0.0588,0.06115 -0.03173,0.0588 -0.02703,0.209313 0.01177,0.350423 0.05527,0.197557 0.03645,0.312797 -0.06585,0.388057 -0.02703,0.02 -0.09407,0.05762 -0.148167,0.08467 -0.205787,0.09878 -0.321026,0.181093 -0.52799,0.377473 -0.168156,0.1611 -0.281046,0.249296 -0.525639,0.413926 -0.328083,0.221074 -0.620887,0.456257 -0.78199,0.624413 -0.09995,0.105834 -0.12347,0.143464 -0.112886,0.184624 0.02233,0.0929 0.302209,0.404516 0.489183,0.544453 0.161103,0.12112 0.273989,0.150516 0.412749,0.104656 0.03528,-0.01177 0.169334,-0.0682 0.298687,-0.127 0.46096,-0.206963 0.797276,-0.329259 1.151229,-0.419806 0.31162,-0.07879 0.45273,-0.09878 0.71261,-0.09878 0.318676,0 0.458609,0.0294 0.946619,0.19873 0.229307,0.07996 1.027758,0.373947 1.268821,0.466843 l 0.10466,0.03998 0.07173,0.132876 c 0.03998,0.07291 0.119943,0.197557 0.177563,0.278697 0.22225,0.306916 0.235187,0.338666 0.235187,0.563266 0,0.15052 -0.0035,0.175214 -0.03881,0.299864 -0.124646,0.435089 -0.428036,1.006589 -0.730249,1.375832 -0.02823,0.03528 -0.128174,0.14111 -0.219897,0.235183 -0.201083,0.205787 -0.25165,0.26811 -0.339843,0.41863 -0.111712,0.189323 -0.204608,0.264583 -0.385702,0.309267 -0.151693,0.03763 -0.19638,0.07526 -0.19638,0.161103 0,0.104657 0.04586,0.12112 0.338667,0.122297 0.399815,0 0.639702,-0.05527 0.776108,-0.181094 0.05762,-0.05292 0.09525,-0.12112 0.125827,-0.223426 0.0388,-0.138757 0.139933,-0.306917 0.321026,-0.537397 0.119943,-0.154046 0.278693,-0.308093 0.437443,-0.42451 0.288103,-0.209313 0.58326,-0.542099 0.71614,-0.804333 0.02,-0.03998 0.05997,-0.142286 0.08937,-0.22813 0.0588,-0.170506 0.08232,-0.223422 0.10113,-0.223422 0.0059,0 0.0341,0.01177 0.06115,0.0247 0.333963,0.170509 0.451557,0.479776 0.503297,1.333499 0.0071,0.122296 0.0141,0.344546 0.0153,0.493886 0.0013,0.236363 -0.0013,0.27752 -0.02,0.325733 -0.04468,0.116417 -0.24224,0.251647 -0.511527,0.3516 -0.11877,0.04469 -0.181093,0.09878 -0.20226,0.175214 -0.01763,0.06585 0.0013,0.108186 0.05292,0.11877 0.0976,0.02117 0.651463,0.0013 0.806684,-0.0294 0.15405,-0.0294 0.23284,-0.08114 0.26811,-0.17521 0.007,-0.01763 0.0176,-0.09525 0.0235,-0.17404 0.009,-0.105834 0.0188,-0.15522 0.0365,-0.1905 0.0329,-0.06232 0.0611,-0.199907 0.11171,-0.54798 0.0541,-0.372767 0.0894,-0.558563 0.15288,-0.824323 0.08,-0.333963 0.0999,-0.466843 0.0999,-0.682036 v -0.185797 l 0.16698,-0.0071 c 0.0929,-0.0035 0.36689,-0.01293 0.60913,-0.0188 1.06538,-0.0294 1.56868,-0.06585 2.18721,-0.159927 0.31398,-0.04821 0.8161,-0.114063 0.93487,-0.124647 0.0553,-0.0047 0.04,-0.05997 0.13523,0.50212 0.0847,0.508 0.10583,0.69262 0.10583,0.924276 0,0.29398 -0.047,0.45861 -0.1905,0.665573 -0.19638,0.28575 -0.51035,0.503297 -0.86195,0.596193 -0.19756,0.05292 -0.24224,0.06938 -0.30457,0.111714 -0.0635,0.04351 -0.0941,0.10466 -0.0941,0.18815 0,0.08467 0.0153,0.09525 0.13171,0.08702 0.0835,-0.0059 0.0941,-0.0035 0.1317,0.0247 0.0976,0.07055 0.10231,0.07173 0.25871,0.07055 0.15992,-0.0013 0.3269,-0.03293 0.47742,-0.09407 0.1517,-0.05997 0.21402,-0.105833 0.28222,-0.205786 0.0412,-0.06115 0.19168,-0.177564 0.33632,-0.26223 0.0541,-0.03173 0.14817,-0.08584 0.20932,-0.122297 0.0611,-0.03528 0.14699,-0.09055 0.1905,-0.122297 0.0658,-0.04821 0.0811,-0.06703 0.0964,-0.112889 0.0282,-0.08702 0.0623,-0.296334 0.0835,-0.51388 0.0106,-0.110537 0.0294,-0.303387 0.0423,-0.429213 0.04,-0.408044 0.10818,-0.77846 0.16463,-0.899583 0.04,-0.08584 0.0623,-0.07291 0.13993,0.08232 0.14817,0.29751 0.48683,0.717313 0.94074,1.170046 0.1658,0.16463 0.32808,0.336314 0.36218,0.381 0.17286,0.23048 0.17992,0.361007 0.0247,0.508 -0.12229,0.114063 -0.25635,0.170507 -0.47625,0.199907 -0.0764,0.0094 -0.15287,0.02587 -0.17168,0.03528 -0.0447,0.02353 -0.0682,0.08114 -0.0682,0.168157 0,0.06703 0.002,0.07173 0.0365,0.08937 0.0658,0.0341 0.62677,0.05292 0.85725,0.0294 0.1952,-0.02117 0.30809,-0.06703 0.3469,-0.142286 0.0106,-0.0188 0.0235,-0.07408 0.0282,-0.12112 0.0129,-0.11289 0.0517,-0.195204 0.13876,-0.293984 0.0776,-0.08702 0.13052,-0.174036 0.14581,-0.241063 0.0447,-0.192853 -0.17874,-0.607953 -0.61148,-1.139473 -0.24577,-0.302213 -0.30221,-0.393933 -0.34337,-0.55386 -0.0341,-0.130526 -0.0329,-0.389229 10e-4,-0.546806 0.0341,-0.154046 0.10348,-0.353953 0.18932,-0.542099 0.14229,-0.30927 0.17169,-0.33749 0.36336,-0.344547 0.13876,-0.0059 0.27635,0.0247 0.41981,0.09172 0.30339,0.142287 0.46919,0.332787 0.71379,0.823147 0.14699,0.296333 0.23988,0.506822 0.53269,1.222962 0.35983,0.87724 0.35278,0.86313 0.42686,0.943093 0.17286,0.189323 0.65499,0.523287 0.69732,0.480953 0.0223,-0.02233 -0.0165,-0.10701 -0.11759,-0.254 -0.3269,-0.476249 -0.31632,-0.458613 -0.4445,-0.785519 -0.0988,-0.251647 -0.35983,-0.86548 -0.61853,-1.448739 -0.2105,-0.477427 -0.32809,-0.766703 -0.32809,-0.804333 0,-0.03057 -0.14934,-0.31985 -0.2634,-0.512704 -0.34808,-0.584436 -0.90194,-1.120656 -1.49578,-1.445212 -0.34102,-0.18697 -0.87959,-0.396287 -1.18416,-0.45861 -0.0494,-0.01057 -0.15287,-0.0247 -0.2293,-0.03057 -0.16698,-0.0141 -0.28458,-0.04116 -0.508,-0.117593 -0.35748,-0.12112 -1.02894,-0.270463 -1.81093,-0.399817 -0.76553,-0.127 -1.21943,-0.162276 -1.87442,-0.148166 -0.64088,0.0141 -1.05128,0.05057 -1.63689,0.14229 -0.543279,0.08584 -0.911343,0.11524 -1.462852,0.114063 -0.71614,0 -1.214729,-0.05292 -1.928514,-0.201083 -0.217547,-0.04586 -0.52564,-0.08937 -0.78787,-0.11289 -0.585613,-0.05174 -0.578556,-0.04939 -0.761999,-0.24224 -0.174037,-0.182267 -0.290454,-0.235183 -0.38688,-0.175213 z"
         id="path826"
         style="fill:#000000;stroke:none;stroke-width:0.00117592" />
      <path
         d="m 111.59969,48.239061 c -0.17615,0.03539 -0.29879,0.157221 -0.3383,0.335846 -0.0107,0.05021 -0.0132,0.0889 -0.009,0.206611 0.005,0.148169 0.0156,0.210728 0.0469,0.272466 l 0.0148,0.02963 -0.0576,0.04445 c -0.14899,0.116063 -0.26834,0.270816 -0.42638,0.553158 -0.0502,0.08973 -0.0724,0.114418 -0.16463,0.179449 -0.11195,0.07902 -0.12841,0.10701 -0.18192,0.306213 -0.0123,0.04774 -0.0601,0.108657 -0.29879,0.385237 -0.26752,0.310328 -0.35477,0.423101 -0.37288,0.484837 -0.0272,0.09384 0.004,0.189326 0.0872,0.266702 0.0453,0.04116 0.0519,0.04445 0.0996,0.04939 0.1424,0.01482 0.31444,0.0074 0.6832,-0.0321 0.10619,-0.01071 0.29139,-0.02387 0.41156,-0.02799 0.12018,-0.0041 0.34819,-0.01729 0.50623,-0.02881 0.36465,-0.02551 0.43215,-0.02634 0.45273,-0.0041 0.0132,0.014 0.014,0.02058 0.006,0.04774 -0.014,0.04692 -0.0519,0.09219 -0.10125,0.120181 -0.0395,0.02305 -0.0477,0.03293 -0.079,0.09466 -0.0379,0.07573 -0.0527,0.09055 -0.0881,0.09137 -0.0181,0 -0.0313,-0.0082 -0.0535,-0.03375 -0.0164,-0.01811 -0.0453,-0.05021 -0.0633,-0.06997 l -0.0337,-0.03622 h -0.0626 c -0.0346,0 -0.0724,0.0041 -0.0848,0.0082 l -0.0222,0.0091 0.0321,0.02881 c 0.0181,0.01563 0.0486,0.03622 0.0692,0.0461 0.0469,0.0214 0.0922,0.05515 0.0864,0.0642 -0.003,0.0033 -0.014,0.0091 -0.0255,0.01153 -0.0173,0.005 -0.0329,-0.0016 -0.0765,-0.03046 -0.0733,-0.04857 -0.0988,-0.05762 -0.15063,-0.05351 -0.0626,0.005 -0.20249,0.03869 -0.23953,0.05763 l -0.0321,0.01563 0.0395,0.02551 c 0.0313,0.01976 0.0444,0.02387 0.0683,0.01976 0.0165,-0.0033 0.0617,-0.0074 0.10042,-0.0099 0.0601,-0.0041 0.0765,-0.0024 0.10865,0.01153 0.0412,0.01811 0.11524,0.08149 0.10783,0.09302 -0.002,0.0041 -0.042,0.0074 -0.0881,0.0074 -0.0774,0 -0.0872,0.0016 -0.12511,0.02387 -0.0223,0.01316 -0.0765,0.05515 -0.11936,0.09219 -0.0856,0.07573 -0.0856,0.07902 7e-4,0.08067 0.0502,9.1e-4 0.084,-0.01153 0.14158,-0.05186 l 0.0477,-0.03375 0.10619,-0.0025 c 0.10206,-0.0025 0.10536,-0.0025 0.11853,0.01563 0.007,0.01071 0.0132,0.0247 0.0132,0.03128 0,0.0066 -0.0247,0.03622 -0.0552,0.06585 -0.0477,0.0461 -0.0593,0.06339 -0.079,0.117711 -0.0214,0.0568 -0.023,0.06668 -0.014,0.09302 l 0.01,0.03046 0.0963,-0.09796 c 0.10042,-0.10207 0.13499,-0.125942 0.21154,-0.143228 0.0527,-0.01234 0.0708,-0.0074 0.13335,0.03375 0.0552,0.03705 0.0922,0.09549 0.0922,0.144876 0,0.03457 0.007,0.05268 0.0214,0.05268 0.006,0 0.0239,0.01153 0.0403,0.02552 0.0337,0.03046 0.0412,0.02716 0.0527,-0.0247 0.014,-0.06503 -0.0148,-0.164629 -0.0692,-0.236245 -0.0197,-0.02551 -0.0197,-0.02634 -0.004,-0.04033 0.009,-0.0082 0.0181,-0.02717 0.0214,-0.04281 0.007,-0.03952 0.0346,-0.0568 0.0988,-0.06339 0.0321,-0.0033 0.0708,-0.014 0.0947,-0.02551 0.0667,-0.03457 0.11688,-0.05186 0.23541,-0.08232 0.1531,-0.04033 0.21072,-0.05927 0.27575,-0.09137 l 0.0551,-0.02717 0.0329,0.05104 c 0.0453,0.07079 0.0519,0.09137 0.0527,0.162161 7e-4,0.07655 -0.014,0.128414 -0.0765,0.267526 -0.0667,0.149815 -0.0757,0.178625 -0.0815,0.267526 -0.003,0.04281 -0.009,0.08478 -0.0132,0.09219 -0.0156,0.02634 -0.0963,0.0889 -0.11442,0.0889 -0.0214,0 -0.0428,-0.01892 -0.0798,-0.06915 -0.0197,-0.02799 -0.0321,-0.03786 -0.0477,-0.03786 -0.0272,0 -0.19756,0.08232 -0.21731,0.105362 -0.0156,0.01729 -0.0156,0.01729 0.0148,0.02305 0.0164,0.0024 0.0576,0.0033 0.0914,0.0016 0.0551,-0.0041 0.0626,-0.0025 0.0733,0.01316 0.0173,0.02305 0.0156,0.02716 -0.0123,0.04198 -0.0321,0.01647 -0.065,0.01563 -0.13335,-0.005 -0.0733,-0.02221 -0.15804,-0.01892 -0.21155,0.0082 -0.0329,0.01729 -0.11606,0.09384 -0.11606,0.107834 0,0.0033 0.0206,0.0099 0.0444,0.01482 0.0469,0.0099 0.0757,0.005 0.16051,-0.02716 0.0469,-0.01729 0.0798,-0.01153 0.1531,0.02716 0.0799,0.04281 0.0831,0.07573 0.007,0.07573 -0.042,0 -0.0666,0.01892 -0.10618,0.0782 -0.0164,0.02387 -0.0461,0.05762 -0.0675,0.07491 -0.0436,0.03622 -0.0601,0.06997 -0.0601,0.125942 v 0.04033 l 0.0502,-0.0214 c 0.042,-0.01892 0.0576,-0.03128 0.0914,-0.07655 0.0659,-0.08808 0.121,-0.108657 0.22389,-0.08643 0.0337,0.0082 0.0633,0.01892 0.065,0.02552 0.003,0.0057 -0.0115,0.05844 -0.0321,0.116889 -0.0502,0.143228 -0.0527,0.155576 -0.0436,0.202495 0.004,0.02224 0.007,0.05927 0.007,0.08067 0,0.02221 0.004,0.04033 0.006,0.04033 0.0132,0 0.0749,-0.05762 0.0922,-0.08561 0.009,-0.01563 0.0222,-0.05763 0.0296,-0.09302 0.0288,-0.154753 0.0626,-0.208259 0.12923,-0.208259 0.0683,0 0.1103,0.04281 0.15969,0.164632 0.0305,0.07655 0.0749,0.136644 0.0955,0.129235 0.0123,-0.0041 0.0247,-0.111126 0.0189,-0.162985 -0.006,-0.05433 -0.0272,-0.102073 -0.0724,-0.158047 -0.0214,-0.02716 -0.0395,-0.05515 -0.0395,-0.06092 0,-0.0066 0.009,-0.02387 0.0197,-0.03786 0.0296,-0.04033 0.0444,-0.07244 0.0593,-0.134174 0.0206,-0.08396 0.0272,-0.09302 0.0724,-0.08808 0.0848,0.0099 0.18932,-0.02881 0.39593,-0.14652 0.11935,-0.06832 0.12923,-0.07326 0.33336,-0.155576 0.31855,-0.130059 0.4445,-0.217315 0.53916,-0.37536 0.0321,-0.05351 0.0379,-0.05844 0.10207,-0.09137 0.12264,-0.06092 0.2527,-0.08479 0.47412,-0.08479 0.17285,0 0.24611,0.0057 0.60006,0.05021 0.14405,0.01729 0.27657,0.0321 0.29468,0.0321 0.042,0 0.0765,0.02058 0.093,0.05433 0.0181,0.03869 0.0156,0.0568 -0.0132,0.08972 -0.0362,0.04116 -0.0765,0.05104 -0.13747,0.03375 -0.0823,-0.02305 -0.0889,-0.02058 -0.23541,0.06915 -0.0733,0.04445 -0.13993,0.0889 -0.14734,0.09713 -0.0132,0.014 -0.0115,0.01563 0.0387,0.0321 l 0.0527,0.01645 0.0798,-0.04939 c 0.0659,-0.04116 0.0881,-0.05021 0.1243,-0.05351 0.0519,-0.0041 0.0593,0.0082 0.0132,0.0214 -0.0173,0.0057 -0.0552,0.02881 -0.0831,0.05104 -0.0288,0.02305 -0.0733,0.05268 -0.0988,0.06503 -0.0675,0.03457 -0.14898,0.126767 -0.14898,0.16957 0,0.0074 0.005,0.01234 0.0107,0.01071 0.005,-0.0016 0.0428,-0.01316 0.0831,-0.02634 0.0708,-0.02221 0.0766,-0.02634 0.1317,-0.08396 0.0469,-0.04939 0.0659,-0.06339 0.0988,-0.07326 0.0502,-0.01563 0.10124,-0.01563 0.12841,-9.1e-4 l 0.0206,0.01153 -0.0247,0.0099 c -0.10701,0.04281 -0.1457,0.07491 -0.23212,0.192618 -0.0305,0.04116 -0.0354,0.05351 -0.0354,0.0889 v 0.04116 l 0.0288,-0.02551 c 0.0164,-0.014 0.0395,-0.02799 0.0519,-0.03046 0.0453,-0.01153 0.0831,-0.03622 0.11194,-0.07573 0.0601,-0.08232 0.12347,-0.12265 0.18027,-0.115242 l 0.023,0.0024 -0.0288,0.03375 c -0.0403,0.04774 -0.0461,0.06667 -0.0461,0.158868 0,0.0782 0.0107,0.132528 0.0255,0.132528 0.004,0 0.0148,-0.014 0.0239,-0.03128 0.01,-0.01647 0.0263,-0.04281 0.037,-0.05763 0.0165,-0.02305 0.0189,-0.03457 0.0148,-0.06338 -0.0107,-0.08314 0.0107,-0.114418 0.12924,-0.187679 l 0.0699,-0.04281 h 0.0757 c 0.0749,0 0.0757,0 0.10454,0.02799 0.0469,0.04528 0.0519,0.0675 0.0296,0.121827 -0.0173,0.04116 -0.0181,0.04857 -0.007,0.06667 0.0239,0.04281 0.0362,0.04198 0.0823,-0.0024 0.0502,-0.04939 0.0683,-0.08149 0.0617,-0.107833 -0.004,-0.01071 -0.0189,-0.04116 -0.0354,-0.0675 -0.0256,-0.03869 -0.0313,-0.0568 -0.0354,-0.106186 -0.005,-0.0675 -0.0181,-0.08972 -0.0749,-0.132527 -0.1103,-0.08149 -0.13088,-0.109481 -0.11359,-0.150639 0.0165,-0.04198 0.0444,-0.04939 0.13581,-0.04033 0.0947,0.0099 0.19509,0.0016 0.41486,-0.03293 0.23213,-0.03622 0.22472,-0.03539 0.25682,-0.02224 0.042,0.01729 0.0683,0.05762 0.10536,0.158045 0.0519,0.144875 0.0963,0.194265 0.20825,0.236247 0.0724,0.02716 0.1243,0.07902 0.13664,0.136643 0.0272,0.130881 -0.0206,0.216489 -0.13581,0.240362 -0.0502,0.01071 -0.0633,0.0091 -0.18274,-0.02634 -0.10124,-0.02963 -0.12923,-0.02717 -0.16545,0.01482 -0.0552,0.06256 -0.0733,0.134175 -0.0395,0.154753 0.0115,0.0074 0.0247,0.0033 0.0659,-0.01811 0.0963,-0.05021 0.15887,-0.0321 0.25517,0.07408 l 0.0593,0.06585 0.056,-0.005 c 0.0617,-0.0057 0.0666,-0.0033 0.121,0.06832 0.0165,0.02224 0.028,0.02799 0.0593,0.03128 0.0584,0.0066 0.065,0.01892 0.0708,0.127587 l 0.006,0.09302 0.0288,0.014 c 0.0156,0.0082 0.0387,0.02551 0.051,0.03869 0.0115,0.01316 0.0239,0.02224 0.0263,0.01976 0.007,-0.0082 0.005,-0.07738 -0.004,-0.117713 -0.005,-0.02058 -0.01,-0.06338 -0.0107,-0.09466 -10e-4,-0.05433 -0.01,-0.0782 -0.0403,-0.121827 -0.008,-0.01153 -0.007,-0.01563 0.002,-0.02224 0.0197,-0.01316 0.0543,-0.0091 0.0692,0.0074 0.0197,0.0214 0.0379,0.128411 0.0362,0.209903 l -0.001,0.06997 0.0305,0.02717 c 0.0164,0.01482 0.0354,0.03786 0.042,0.05104 l 0.0123,0.0247 0.009,-0.0247 c 0.0156,-0.03869 0.0197,-0.114419 0.008,-0.157222 -0.006,-0.0214 -0.0107,-0.06256 -0.0123,-0.09137 -0.001,-0.04116 -0.008,-0.0642 -0.0313,-0.110302 l -0.0296,-0.05762 0.0304,0.0057 c 0.0741,0.014 0.0955,0.03786 0.12594,0.1457 0.0362,0.127588 0.0477,0.153105 0.0864,0.196734 0.0197,0.02224 0.0387,0.05021 0.0412,0.06256 0.006,0.02058 0.006,0.02058 0.0123,0.0066 0.0107,-0.02799 0.008,-0.147345 -0.006,-0.218136 -0.014,-0.07738 -0.0568,-0.203319 -0.0749,-0.223899 -0.006,-0.0074 -0.042,-0.02387 -0.0774,-0.03539 -0.0362,-0.01234 -0.065,-0.0247 -0.065,-0.02881 0,-0.02058 0.11854,-0.01316 0.14569,0.0099 0.006,0.005 0.028,0.03457 0.0486,0.06585 0.0305,0.04692 0.0436,0.06009 0.0799,0.07655 0.023,0.01153 0.0469,0.02058 0.0527,0.02058 0.005,0 0.0214,0.0099 0.0354,0.02221 0.0214,0.01729 0.0272,0.01976 0.0337,0.0099 0.0107,-0.01645 0.003,-0.04692 -0.0272,-0.09384 -0.0148,-0.02305 -0.0428,-0.06915 -0.0633,-0.102896 -0.0864,-0.139936 -0.0996,-0.148168 -0.24859,-0.148168 -0.13252,0 -0.14734,-0.0074 -0.19014,-0.08972 -0.037,-0.06997 -0.0403,-0.116066 -0.014,-0.171216 0.0197,-0.04116 0.0453,-0.06092 0.10618,-0.08314 0.0247,-0.0091 0.12676,-0.04939 0.22636,-0.09055 0.20085,-0.08149 0.42639,-0.161339 0.65028,-0.228839 0.1745,-0.05268 0.26752,-0.09631 0.37452,-0.176977 0.14487,-0.109479 0.24941,-0.144876 0.40252,-0.136644 0.11194,0.0057 0.18602,0.02717 0.30949,0.08808 0.14158,0.06997 0.2453,0.151461 0.40663,0.320208 0.19343,0.203319 0.25764,0.254354 0.4305,0.342431 0.17944,0.09137 0.23788,0.130059 0.30373,0.199206 0.0519,0.05597 0.15146,0.203319 0.28563,0.426394 0.46013,0.761417 0.70624,1.393599 0.78856,2.022489 0.0181,0.139115 0.0247,0.454383 0.0123,0.59185 -0.0642,0.704619 -0.37617,1.329395 -0.9713,1.943467 -0.10865,0.112771 -0.31855,0.307861 -0.43708,0.406639 -0.99928,0.834679 -2.40601,1.19769 -3.81934,0.986139 -0.45107,-0.0675 -0.92025,-0.201673 -1.25115,-0.35725 -0.0749,-0.03539 -0.15722,-0.07079 -0.18273,-0.07902 -0.0461,-0.014 -0.0477,-0.014 -0.0642,9.1e-4 -0.0272,0.0247 -0.0223,0.06339 0.014,0.09549 0.0765,0.06668 0.19919,0.130881 0.4058,0.210728 0.97788,0.379473 2.09734,0.479074 3.11143,0.277403 0.6972,-0.139115 1.37957,-0.442858 1.90144,-0.846204 0.16051,-0.124296 0.25846,-0.212373 0.44367,-0.39923 0.33748,-0.340786 0.55891,-0.61078 0.74493,-0.90794 0.46919,-0.748247 0.56549,-1.493201 0.30867,-2.381386 -0.12593,-0.436272 -0.30126,-0.849494 -0.71118,-1.680882 l -0.20002,-0.40499 -0.006,-0.06832 c -0.0222,-0.259178 -0.14158,-0.52094 -0.38276,-0.837032 -0.11441,-0.150637 -0.44531,-0.46426 -1.46929,-1.391954 -0.44284,-0.401701 -0.91367,-0.833033 -1.09887,-1.007542 -0.19674,-0.185207 -0.36137,-0.299628 -0.61736,-0.428039 -0.45766,-0.230484 -0.9606,-0.356427 -1.64215,-0.40993 -0.0733,-0.0057 -0.26998,-0.0099 -0.44449,-0.0099 -0.28727,-9.1e-4 -0.32102,9.1e-4 -0.40744,0.01729 -0.23624,0.04445 -0.40416,0.107833 -0.77787,0.293043 -0.30785,0.152284 -0.39263,0.190147 -0.53174,0.234597 -0.19755,0.06339 -0.34654,0.08396 -0.59759,0.08396 -0.0831,-9.1e-4 -0.19015,0.0033 -0.23871,0.0091 -0.11606,0.01234 -0.11771,0.01071 -0.11771,-0.119358 -7e-4,-0.121826 -0.009,-0.154752 -0.0543,-0.207435 -0.0683,-0.08067 -0.13911,-0.0889 -0.26175,-0.02963 -0.093,0.04445 -0.15558,0.08808 -0.21319,0.148991 -0.0272,0.02717 -0.0535,0.05021 -0.0593,0.05021 -0.006,0 -0.0362,-0.0057 -0.0675,-0.01316 -0.13088,-0.03046 -0.19673,-0.03869 -0.35806,-0.04362 l -0.16957,-0.005 -0.0313,-0.0247 c -0.0165,-0.014 -0.042,-0.04528 -0.056,-0.06997 -0.023,-0.04033 -0.0256,-0.05186 -0.0247,-0.111126 0,-0.04033 0.009,-0.102893 0.0222,-0.161339 0.0123,-0.05268 0.0222,-0.116887 0.0222,-0.14158 0,-0.04033 -0.004,-0.05021 -0.0263,-0.07656 -0.0469,-0.0535 -0.10124,-0.06915 -0.18355,-0.05268 z"
         id="path840"
         style="fill:#000000;stroke:none;stroke-width:0.000823139" />
      <path
         d="m 99.521253,37.064268 -0.22578,0.0057 -0.07244,0.04045 c -0.0602,0.03386 -0.08843,0.04327 -0.163693,0.05456 -0.16275,0.02446 -0.379124,0.08467 -0.534348,0.148634 -0.04234,0.01786 -0.09878,0.03857 -0.127003,0.04704 -0.05739,0.01694 -0.149581,0.07149 -0.25965,0.155221 -0.04139,0.03198 -0.125119,0.0856 -0.185328,0.11947 -0.153345,0.08561 -0.22108,0.135465 -0.346199,0.253997 -0.05926,0.05645 -0.150523,0.139226 -0.202262,0.183442 -0.114773,0.09878 -0.152403,0.139227 -0.20885,0.227655 -0.02634,0.04139 -0.09125,0.114769 -0.167455,0.190026 -0.171217,0.16839 -0.269996,0.311382 -0.458147,0.663214 -0.05362,0.100657 -0.139231,0.249293 -0.190033,0.329254 -0.173101,0.276572 -0.380068,0.720594 -0.423341,0.909682 -0.0085,0.03669 -0.02162,0.138285 -0.02917,0.225772 -0.0075,0.08655 -0.01883,0.181563 -0.02446,0.209784 -0.01318,0.06303 -0.05833,0.176856 -0.157107,0.397927 -0.124179,0.275634 -0.132646,0.280337 -0.268115,0.144872 -0.08749,-0.08843 -0.325502,-0.268108 -0.388532,-0.294448 -0.07244,-0.0301 -0.102544,10e-4 -0.117597,0.119473 -0.0094,0.07337 -0.0075,0.120414 0.01318,0.351832 0.0028,0.02352 -0.204141,0.149576 -0.285047,0.174034 -0.07338,0.02162 -0.154284,0.07432 -0.174039,0.112886 -0.01883,0.03669 -0.03105,0.04234 -0.148641,0.06961 -0.05551,0.01318 -0.114773,0.0301 -0.133587,0.03857 -0.01882,0.0075 -0.07808,0.02634 -0.131706,0.04139 -0.208849,0.06114 -0.352785,0.146753 -0.528705,0.315143 -0.06962,0.06679 -0.132648,0.134526 -0.141114,0.150517 -0.0085,0.016 -0.02916,0.04515 -0.0461,0.06491 -0.01786,0.01882 -0.03198,0.04139 -0.03198,0.04892 0,0.04139 -0.118535,0.134523 -0.263409,0.206959 -0.102545,0.05174 -0.176866,0.106302 -0.202266,0.150515 -0.03198,0.05268 -0.04515,0.155222 -0.04045,0.31044 l 0.0028,0.133586 0.03763,0.0508 c 0.02163,0.02822 0.0461,0.06303 0.05551,0.07808 0.0207,0.03198 0.125121,0.135464 0.187211,0.185322 0.02446,0.01976 0.06774,0.04233 0.09596,0.04986 0.02823,0.0085 0.05645,0.02352 0.06303,0.03293 0.0207,0.02822 0.0508,0.03857 0.117595,0.03951 0.109127,0.001 0.146756,0.01034 0.193794,0.05174 0.02352,0.0207 0.09219,0.06491 0.152404,0.09783 0.06114,0.03386 0.127942,0.07055 0.148639,0.08185 0.0207,0.01224 0.04986,0.02162 0.06397,0.02162 0.01504,0 0.04704,0.0075 0.0715,0.01693 0.04045,0.0141 0.08467,0.016 0.393236,0.016 l 0.348081,-0.001 0.127941,-0.03386 c 0.157107,-0.04234 0.288813,-0.09125 0.367836,-0.135465 0.03293,-0.01882 0.09596,-0.05268 0.140173,-0.07432 l 0.08091,-0.04139 0.0508,0.04422 c 0.07055,0.06209 0.120418,0.09972 0.156164,0.118532 0.03105,0.01504 0.143937,0.02352 0.588916,0.04234 0.108185,0.0047 0.198498,0.01034 0.20132,0.01318 0.01035,0.01128 -0.04986,0.09783 -0.106304,0.152398 -0.03199,0.03104 -0.09972,0.0969 -0.150521,0.146752 -0.05175,0.04986 -0.12512,0.11477 -0.163692,0.143932 -0.148639,0.111944 -0.405465,0.372527 -0.440274,0.444963 -0.01223,0.02446 -0.02541,0.03386 -0.0715,0.04986 -0.03199,0.01128 -0.103484,0.04422 -0.160869,0.07338 -0.08655,0.04515 -0.109128,0.06114 -0.13641,0.09971 -0.01787,0.02542 -0.06303,0.08279 -0.09878,0.126998 -0.03669,0.04422 -0.07338,0.09125 -0.08279,0.10442 -0.02163,0.03105 -0.0207,0.07997 0.0028,0.103481 0.02446,0.02446 0.06774,0.02446 0.190032,-0.0018 0.0922,-0.01976 0.118536,-0.0207 0.548464,-0.02162 0.489192,0 0.507068,-0.0018 0.607728,-0.05268 0.06491,-0.03198 0.154285,-0.111945 0.166515,-0.148632 0.0075,-0.0207 0.0066,-0.03386 -0.0038,-0.05268 -0.0075,-0.0141 -0.01318,-0.03386 -0.01318,-0.04327 0,-0.0094 0.04515,-0.06303 0.101601,-0.119472 0.07808,-0.07996 0.133587,-0.124175 0.251181,-0.203197 0.14864,-0.09972 0.365014,-0.264343 0.5447,-0.412978 0.0508,-0.04234 0.106306,-0.08467 0.124179,-0.09407 0.03669,-0.0207 0.135469,-0.03293 0.135469,-0.01786 0,0.016 -0.04139,0.06209 -0.21167,0.238005 -0.08843,0.09125 -0.174038,0.188146 -0.190972,0.217307 -0.04234,0.07149 -0.0922,0.187206 -0.10913,0.256818 -0.01128,0.04139 -0.02352,0.06397 -0.0461,0.08467 -0.117594,0.106303 -0.280347,0.241767 -0.331148,0.275634 -0.03199,0.02162 -0.08937,0.06679 -0.127001,0.100657 -0.03763,0.03386 -0.07526,0.06115 -0.08373,0.06115 -0.01882,0 -0.157107,0.07808 -0.186269,0.105361 -0.02916,0.02728 -0.03763,0.0762 -0.01787,0.106302 0.01506,0.02352 0.06491,0.04234 0.111952,0.04234 0.02446,0 0.02543,10e-4 0.02543,0.0555 0,0.03857 0.0047,0.06114 0.01694,0.07525 0.03386,0.04139 0.17122,0.03481 0.282227,-0.0141 0.07056,-0.03104 0.07715,-0.0301 0.07715,0.016 0,0.03857 0.01318,0.07337 0.03199,0.08561 0.01976,0.0141 0.100659,0.0075 0.158045,-0.01224 0.03293,-0.01128 0.125122,-0.04892 0.205086,-0.08467 l 0.145816,-0.06397 0.0047,0.04704 c 0.0085,0.07337 0.0301,0.08843 0.126061,0.08843 0.06867,0 0.08091,-0.0028 0.110069,-0.02446 0.04234,-0.03198 0.07527,-0.04233 0.21167,-0.06397 0.06302,-0.0094 0.127003,-0.02445 0.142056,-0.03293 0.04422,-0.02258 0.143936,-0.136406 0.189091,-0.214485 0.04515,-0.07902 0.07715,-0.163689 0.07715,-0.203197 0,-0.0141 0.0066,-0.03481 0.01411,-0.04516 0.0075,-0.01224 0.016,-0.05644 0.01976,-0.108183 0.0038,-0.04892 0.01224,-0.10536 0.01976,-0.125118 0.0207,-0.05926 0.07903,-0.128878 0.171218,-0.204135 0.08279,-0.06679 0.08749,-0.07244 0.131707,-0.164627 0.02541,-0.05174 0.0602,-0.111947 0.07808,-0.131702 0.01787,-0.01976 0.05268,-0.06962 0.07715,-0.110065 0.02446,-0.04045 0.05645,-0.07996 0.06962,-0.08843 0.0141,-0.0085 0.05268,-0.04422 0.08655,-0.07902 0.09784,-0.09972 0.0508,-0.09407 0.823161,-0.10254 0.715913,-0.0085 0.794003,-0.01128 0.844803,-0.03293 0.0781,-0.03198 0.0997,-0.0188 0.20508,0.131702 0.032,0.0461 0.0931,0.126998 0.13453,0.178739 l 0.0762,0.09407 v 0.145812 c -8e-4,0.14205 -8e-4,0.147693 -0.0301,0.216367 -0.016,0.03857 -0.0367,0.108185 -0.0451,0.155219 -0.008,0.0461 -0.0338,0.130763 -0.0564,0.188146 -0.0226,0.05645 -0.0433,0.113828 -0.0461,0.126998 -0.004,0.0207 -0.0499,0.08843 -0.12794,0.190027 -0.0113,0.01504 -0.0583,0.05268 -0.10442,0.08372 -0.13265,0.09125 -0.17781,0.158044 -0.16276,0.240826 0.0103,0.0555 0.0348,0.07244 0.0941,0.06585 0.0282,-0.0028 0.0753,-0.01693 0.10537,-0.0301 0.12418,-0.05833 0.21731,-0.07714 0.24554,-0.04986 0.0198,0.02069 0.16933,0.01504 0.21355,-0.0085 0.0198,-0.01034 0.063,-0.03293 0.096,-0.04892 0.032,-0.01694 0.0809,-0.03386 0.1082,-0.03763 0.0263,-0.0038 0.0668,-0.016 0.0884,-0.02728 0.0546,-0.02822 0.079,-0.02634 0.12699,0.01224 0.0922,0.07432 0.11572,0.09031 0.15052,0.09972 0.0518,0.01318 0.0837,0.001 0.10349,-0.04139 0.0103,-0.0207 0.0292,-0.03951 0.0508,-0.04986 0.0602,-0.02822 0.0649,-0.0461 0.063,-0.207901 -0.003,-0.145814 -0.016,-0.263404 -0.032,-0.279396 -0.005,-0.0057 -0.008,-0.01882 -0.008,-0.02916 0,-0.02634 0.0875,-0.205079 0.11194,-0.229537 0.0103,-0.01034 0.0254,-0.03105 0.033,-0.04515 0.007,-0.0141 0.0395,-0.06021 0.0706,-0.101599 0.0997,-0.131702 0.1477,-0.24647 0.16558,-0.397927 0.009,-0.07808 0.009,-0.07902 0.0583,-0.05738 0.0536,0.02258 0.1571,0.04892 0.29445,0.07432 0.14299,0.02634 0.16369,0.03293 0.19568,0.06961 0.033,0.03763 0.13829,0.224834 0.16275,0.287862 0.031,0.08184 0.0178,0.283159 -0.0198,0.301033 -0.007,0.0038 -0.0348,0.0141 -0.0611,0.02352 -0.27376,0.0969 -0.33396,0.120411 -0.38005,0.148632 -0.0715,0.04422 -0.10631,0.09501 -0.11196,0.161806 -0.002,0.0301 7.9e-4,0.06303 0.007,0.07996 0.0141,0.03481 0.079,0.09407 0.1016,0.09407 0.009,0 0.0526,-0.02258 0.0969,-0.0508 0.12889,-0.08184 0.20886,-0.09972 0.26436,-0.06021 0.0386,0.02634 0.10348,0.03198 0.16745,0.01318 0.0395,-0.01224 0.12324,-0.01786 0.34337,-0.02538 0.32457,-0.01034 0.3923,-0.01694 0.45156,-0.0461 0.063,-0.0301 0.159,-0.123236 0.18157,-0.176856 0.0273,-0.06303 0.0301,-0.09689 0.0395,-0.467542 0.007,-0.320788 0.008,-0.331134 0.033,-0.409215 0.0489,-0.155219 0.0405,-0.32267 -0.0198,-0.395106 -0.0357,-0.04234 -0.063,-0.05268 -0.17969,-0.06962 -0.21449,-0.03105 -0.37253,-0.113827 -0.54375,-0.284099 -0.0978,-0.09689 -0.12982,-0.139228 -0.12325,-0.161806 0.007,-0.02352 0.11101,-0.08372 0.15711,-0.09125 0.0198,-0.0038 0.0367,-0.0094 0.0367,-0.0141 0,-0.01128 0.10349,-0.05456 0.16557,-0.06867 0.032,-0.0075 0.0668,-0.02162 0.0771,-0.03104 0.0367,-0.03105 0.18156,-0.09031 0.32644,-0.131702 0.21355,-0.06303 0.31139,-0.09689 0.34902,-0.122294 0.0498,-0.03386 0.13547,-0.07526 0.17969,-0.08749 0.0301,-0.0085 0.19567,-0.0809 0.23048,-0.100657 0.004,-0.0028 0.0235,0.02542 0.0451,0.06209 0.0215,0.03669 0.0696,0.09972 0.10819,0.140168 0.0386,0.04139 0.0837,0.09972 0.0997,0.129822 0.031,0.05362 0.1477,0.176856 0.25777,0.271868 0.0405,0.03386 0.0715,0.07337 0.1082,0.135465 0.0743,0.127939 0.12135,0.182501 0.18438,0.211663 0.0508,0.02446 0.18157,0.13923 0.22108,0.193792 0.0103,0.0141 0.0226,0.04798 0.0273,0.0762 0.0141,0.07525 0.0771,0.158982 0.26059,0.346187 0.15899,0.164626 0.18157,0.19473 0.18157,0.254937 0,0.0085 0.0132,0.04045 0.0292,0.07243 0.032,0.06491 0.08,0.105364 0.14958,0.128881 0.0526,0.01786 0.063,0.02822 0.10347,0.102539 0.016,0.03104 0.0565,0.09031 0.0884,0.131702 0.063,0.0809 0.13641,0.188144 0.17874,0.262463 0.0141,0.02542 0.0715,0.09125 0.127,0.147694 0.12042,0.123235 0.18533,0.159923 0.2446,0.142049 0.0875,-0.02542 0.10159,-0.08843 0.0621,-0.273751 -0.015,-0.07244 -0.0273,-0.171214 -0.033,-0.2587 -0.006,-0.111006 -0.0113,-0.150515 -0.0273,-0.185323 -0.0113,-0.02445 -0.031,-0.09125 -0.0433,-0.149576 -0.0132,-0.06021 -0.0405,-0.142049 -0.0621,-0.190968 -0.0215,-0.04704 -0.0564,-0.129819 -0.079,-0.18438 -0.0216,-0.05456 -0.0611,-0.147694 -0.0875,-0.206961 -0.0254,-0.05926 -0.0536,-0.133584 -0.063,-0.164626 -0.0743,-0.254938 -0.17874,-0.523046 -0.23049,-0.586074 -0.015,-0.0188 -0.0593,-0.06209 -0.0978,-0.09501 l -0.0696,-0.06021 -0.004,-0.174976 c -0.006,-0.23518 -0.0282,-0.29727 -0.13171,-0.36124 l -0.0451,-0.02822 v -0.250357 -0.250233 l -0.0564,-0.06491 c -0.0611,-0.07149 -0.0621,-0.07244 -0.0706,-0.222012 -0.007,-0.122294 -0.016,-0.157102 -0.0686,-0.282218 -0.0226,-0.05456 -0.048,-0.115709 -0.0555,-0.136405 -0.0103,-0.02634 -0.0178,-0.11759 -0.0273,-0.312321 -0.0103,-0.232359 -0.0151,-0.283158 -0.033,-0.333957 -0.0103,-0.03198 -0.0254,-0.09031 -0.033,-0.12794 -0.007,-0.03951 -0.0282,-0.09689 -0.048,-0.136406 l -0.0358,-0.06773 -0.006,-0.216368 c -0.003,-0.11947 -0.0103,-0.232359 -0.017,-0.252113 -0.006,-0.01882 -0.032,-0.06303 -0.0583,-0.09784 -0.0451,-0.05926 -0.047,-0.06397 -0.0367,-0.09219 0.033,-0.09219 -0.015,-0.404514 -0.0828,-0.539979 -0.016,-0.0301 -0.0686,-0.157098 -0.11854,-0.282216 -0.0498,-0.125116 -0.10254,-0.253056 -0.11665,-0.28598 -0.0536,-0.11759 -0.27282,-0.350891 -0.60585,-0.646278 -0.23802,-0.210722 -0.31327,-0.268108 -0.43462,-0.331136 -0.0509,-0.02634 -0.1383,-0.07244 -0.19286,-0.103479 -0.0546,-0.0301 -0.14299,-0.07244 -0.19756,-0.09313 -0.0546,-0.0207 -0.15428,-0.06961 -0.22297,-0.108185 -0.14958,-0.08467 -0.16274,-0.09031 -0.29164,-0.125115 -0.0564,-0.01504 -0.15521,-0.04986 -0.21918,-0.0762 -0.22672,-0.09407 -0.28129,-0.110065 -0.53717,-0.159923 -0.13642,-0.02634 -0.27376,-0.0508 -0.3048,-0.05362 -0.031,-0.0028 -0.0894,-0.01786 -0.12889,-0.03198 -0.0922,-0.03386 -0.18815,-0.04986 -0.43557,-0.07432 -0.10818,-0.01128 -0.24836,-0.03104 -0.31045,-0.04422 l -0.1129,-0.02538 -0.85138,-10e-4 c -0.46849,-0.001 -0.952984,10e-4 -1.077166,0.0038 z"
         id="path854"
         style="fill:#000000;stroke:none;stroke-width:0.000940742" />
      <g
         transform="matrix(-0.00117593,0,0,-0.00117593,128.9483,41.891705)"
         fill="#000000"
         stroke="none"
         id="g872">
        <path
           d="m 5445,7940 c -59,-10 -383,-174 -441,-224 -21,-18 -71,-50 -111,-70 -46,-24 -85,-54 -112,-86 -23,-27 -94,-84 -163,-130 -68,-46 -152,-106 -188,-135 -36,-28 -114,-80 -175,-114 -60,-34 -144,-87 -185,-117 -137,-102 -290,-167 -758,-325 l -234,-78 -86,76 c -81,71 -166,123 -203,123 -8,0 -39,-12 -67,-26 -71,-35 -84,-63 -92,-199 -3,-60 -11,-119 -18,-131 -21,-39 -80,-74 -337,-200 -140,-69 -297,-153 -348,-187 -91,-60 -214,-177 -412,-390 -58,-62 -98,-97 -111,-97 -26,0 -305,-141 -399,-202 C 895,5357 798,5276 614,5099 396,4889 294,4798 197,4726 70,4631 13,4535 3,4400 c -6,-76 16,-176 49,-222 15,-22 24,-59 34,-137 16,-138 68,-335 101,-383 28,-41 89,-95 148,-129 34,-20 41,-21 100,-11 90,17 119,15 141,-9 29,-32 103,-66 175,-79 159,-30 787,-27 919,5 70,17 221,43 395,70 158,24 360,77 452,119 44,19 104,41 134,47 140,28 186,42 258,78 102,52 220,141 344,260 115,110 172,151 246,181 127,50 385,70 931,72 l 365,2 135,-31 c 74,-17 174,-38 222,-47 109,-20 300,-84 370,-123 101,-57 124,-120 139,-383 15,-255 7,-502 -20,-605 -33,-125 -103,-287 -164,-377 -64,-96 -319,-417 -446,-561 -142,-162 -177,-206 -276,-348 -136,-195 -298,-393 -350,-429 -115,-79 -234,-117 -407,-129 -130,-9 -161,-22 -210,-82 -39,-48 -51,-102 -33,-145 13,-32 21,-37 85,-49 19,-4 51,-16 70,-27 52,-30 84,-37 127,-27 21,5 146,13 278,19 144,7 261,17 292,26 67,18 103,55 278,279 166,212 251,303 479,514 323,298 550,491 931,792 74,59 210,183 316,291 103,103 190,188 193,188 4,0 5,-294 3,-652 -5,-722 -4,-714 -72,-887 -20,-51 -47,-134 -60,-184 -22,-83 -29,-96 -68,-132 -27,-25 -134,-86 -277,-160 -128,-66 -248,-134 -266,-151 -30,-28 -34,-37 -34,-82 0,-68 6,-79 54,-101 22,-10 58,-35 78,-55 30,-29 45,-36 76,-36 57,0 457,57 527,75 133,35 194,85 220,183 38,143 61,201 140,358 46,93 109,210 140,259 153,247 206,439 265,966 38,336 110,781 149,915 15,54 44,151 64,216 20,64 39,139 43,167 l 7,51 h 1462 1463 l 63,-117 c 162,-308 494,-813 743,-1133 112,-144 278,-314 417,-426 194,-157 418,-433 528,-651 37,-74 56,-188 46,-277 -9,-77 -14,-86 -94,-171 -37,-39 -95,-107 -129,-153 -77,-101 -125,-148 -177,-174 -22,-11 -75,-45 -117,-74 -93,-66 -152,-93 -199,-94 -59,0 -131,-27 -184,-69 -27,-22 -87,-64 -132,-93 -93,-60 -108,-83 -98,-152 8,-50 32,-76 72,-76 41,0 102,-31 129,-67 26,-34 29,-35 73,-29 96,14 211,25 366,36 201,14 294,27 320,44 11,7 37,47 57,87 79,155 279,384 508,583 124,107 200,188 259,275 24,34 56,71 73,81 74,45 220,284 257,420 51,189 44,213 -94,362 -298,321 -542,630 -667,848 -30,52 -72,170 -64,178 3,3 110,-32 238,-76 128,-45 276,-93 329,-106 53,-14 165,-50 250,-81 85,-32 258,-93 384,-137 478,-166 628,-241 770,-382 83,-84 123,-145 135,-207 13,-66 13,-436 0,-597 -8,-97 -15,-133 -35,-176 -40,-85 -116,-148 -259,-216 -138,-66 -171,-96 -181,-164 -9,-57 8,-108 46,-141 32,-26 44,-30 122,-39 26,-3 58,-13 72,-22 36,-23 70,-11 128,46 57,56 74,63 207,85 189,31 242,55 285,128 60,104 71,166 90,552 23,462 34,568 81,805 13,66 17,140 17,325 1,347 -23,437 -143,548 -76,70 -146,106 -335,167 -268,89 -374,137 -580,267 -150,95 -239,169 -392,326 -217,224 -386,465 -370,529 9,35 140,187 338,393 203,212 296,322 364,428 26,42 52,77 55,77 4,0 12,-35 18,-77 6,-43 25,-170 41,-283 17,-113 35,-271 41,-350 14,-185 21,-214 60,-230 87,-36 182,29 195,133 10,82 -19,849 -45,1197 -23,297 -31,328 -146,587 -100,226 -198,412 -251,478 -68,84 -191,163 -429,274 -364,171 -536,232 -720,255 -80,10 -132,23 -194,49 -170,70 -355,100 -910,147 -392,33 -487,42 -730,70 -91,11 -290,29 -442,40 -304,22 -447,38 -673,75 -147,25 -272,35 -655,55 -301,15 -556,53 -975,145 -210,46 -318,58 -630,75 -689,36 -2291,69 -2400,50 z"
           id="path868" />
        <path
           d="m 12970,2528 c 0,-16 19,-38 33,-38 4,0 7,10 5,22 -3,25 -38,39 -38,16 z"
           id="path870" />
      </g>
      <path
         d="m 84.27656,33.141202 c 0.01923,0.0112 0.09283,0.02568 0.184997,0.03622 0.128639,0.01449 0.198927,0.03358 0.237384,0.06453 0.0106,0.0086 0.0411,0.01054 0.04511,0.0033 0.0022,-0.0033 -0.0034,-0.0112 -0.01196,-0.01844 -0.01325,-0.01053 -0.01393,-0.0125 -0.0039,-0.01646 0.01196,-0.0046 0.03248,0.0046 0.06034,0.027 0.01523,0.0125 0.02323,0.01449 0.04641,0.01186 0.0212,-0.0033 0.0371,0 0.06631,0.01317 0.05504,0.0237 0.08355,0.03095 0.09813,0.0237 0.0093,-0.0052 0.01923,0 0.05041,0.02634 0.0411,0.0349 0.04838,0.03885 0.04838,0.02305 0,-0.01844 0.02188,-0.0099 0.04906,0.0191 0.02385,0.02568 0.04906,0.04346 0.05968,0.04346 0.008,0 0.0034,-0.01844 -0.006,-0.02634 -0.005,-0.0046 -0.0099,-0.01054 -0.0099,-0.01383 0,-0.0027 0.0318,0.01383 0.07095,0.03753 0.11604,0.0698 0.242024,0.125113 0.343477,0.150795 0.07095,0.01712 0.06565,0.01449 0.05374,0.03227 -0.0093,0.01513 -0.0093,0.01581 0.005,0.01975 0.0086,0.002 0.02916,0.002 0.04573,0 l 0.02915,-0.004 0.0146,0.02897 c 0.0073,0.01581 0.01393,0.03226 0.01393,0.03621 0,0.0099 0.02521,0.04016 0.0411,0.04873 0.01196,0.006 0.01257,0.0053 0.0086,-0.0066 -0.008,-0.02502 0.01196,-0.01449 0.04043,0.02107 0.01991,0.02568 0.0318,0.03489 0.04838,0.03753 0.01726,0.0027 0.02853,0.0112 0.04974,0.03951 0.01523,0.01975 0.0371,0.04215 0.04906,0.04938 0.01128,0.0072 0.02058,0.01844 0.0212,0.02437 0,0.0072 0.01128,0.01448 0.03248,0.02173 0.04573,0.01449 0.102779,0.05334 0.15914,0.106017 0.0358,0.03359 0.04973,0.04215 0.05503,0.03688 0.0045,-0.0046 0.01923,-0.0079 0.03316,-0.0079 h 0.02521 v 0.03556 c 0,0.03359 0.0011,0.03556 0.01788,0.03885 0.0106,0.002 0.01923,0.0027 0.02052,0.002 5.64e-4,-0.0013 -0.006,-0.04412 -0.0146,-0.09482 -0.01257,-0.07112 -0.0212,-0.102066 -0.03648,-0.131039 -0.01128,-0.02041 -0.01923,-0.03819 -0.01788,-0.03951 0.0011,-0.0013 0.0146,0.0079 0.03051,0.02107 0.02916,0.02437 0.03981,0.02831 0.03981,0.01448 0,-0.0125 -0.01787,-0.03622 -0.05374,-0.07375 -0.02915,-0.03029 -0.05171,-0.06915 -0.04043,-0.06915 0.0028,0 0.01991,0.01449 0.03778,0.03293 0.01788,0.01779 0.03513,0.03293 0.03778,0.03293 0.0093,0 -0.01393,-0.03885 -0.04511,-0.07704 -0.0159,-0.0191 -0.02916,-0.03952 -0.02916,-0.04478 0,-0.01383 0.006,-0.0125 0.01991,0.0046 0.01726,0.02107 0.02521,0.0086 0.0086,-0.01317 -0.01788,-0.02437 -0.09615,-0.160672 -0.09283,-0.163306 0.008,-0.0086 0.03975,0.02305 0.06763,0.06782 0.01788,0.02963 0.0358,0.05597 0.03846,0.05861 0.01128,0.0112 -0.005,-0.02238 -0.03248,-0.06651 -0.03248,-0.05267 -0.04906,-0.09416 -0.04906,-0.123796 v -0.01975 l 0.01658,0.01513 c 0.0086,0.0079 0.02255,0.03358 0.02983,0.05597 0.0146,0.04346 0.02916,0.06848 0.03648,0.0619 0.0017,-0.0027 -5.64e-4,-0.0191 -0.0067,-0.03753 -0.01325,-0.03885 -0.01128,-0.0698 0.0039,-0.07243 0.0086,-0.0013 0.01257,0.0072 0.01855,0.04083 0.01257,0.07178 0.02058,0.08034 0.01855,0.02107 -5.63e-4,-0.03358 0.0011,-0.05267 0.006,-0.05465 0.01325,-0.0046 0.01855,0.01844 0.02188,0.09482 0.0034,0.05795 0.0067,0.07639 0.01523,0.0856 0.01128,0.01053 0.01196,0.0086 0.01196,-0.04083 0,-0.02897 0.0028,-0.05663 0.006,-0.06124 0.0106,-0.01646 0.02052,0.03095 0.02052,0.0968 0,0.104701 0.0028,0.111286 0.04376,0.130381 0.02188,0.0099 0.05633,0.01779 0.08885,0.02107 0.05306,0.0059 0.05374,0.0052 0.07294,-0.01317 0.0146,-0.01513 0.02521,-0.0191 0.04641,-0.0191 0.02255,0 0.02718,-0.002 0.02385,-0.01054 -0.0067,-0.01711 0.0028,-0.02305 0.01793,-0.0125 0.01393,0.0099 0.07161,0.01383 0.07958,0.0052 0.0028,-0.002 0,-0.0099 -0.0067,-0.01646 -0.01393,-0.01513 -0.0073,-0.02173 0.01196,-0.0112 0.0099,0.0053 0.0318,0.0066 0.06697,0.004 0.02853,-0.0027 0.05968,-0.0013 0.06896,0.002 0.01523,0.0059 0.01658,0.0052 0.01257,-0.0066 -0.005,-0.01712 0.0017,-0.01646 0.0212,0.0013 l 0.01523,0.01383 v -0.01712 c 0,-0.02305 0.01128,-0.02239 0.03648,0.002 0.02255,0.02173 0.04641,0.02173 0.03975,0 -0.0034,-0.0099 0.0039,-0.01185 0.06432,-0.01581 0.0371,-0.0027 0.07029,-0.0052 0.0736,-0.0059 0.0034,-7e-4 0.0106,0.0112 0.0159,0.02634 0.005,0.01513 0.01325,0.02897 0.01855,0.03095 0.008,0.0027 0.0086,-0.002 0.006,-0.02502 l -0.0039,-0.02832 0.04838,-0.0033 c 0.02718,-0.002 0.05368,-0.0059 0.05968,-0.0079 0.0073,-0.0033 0.01393,0.0027 0.02323,0.02239 0.01523,0.03227 0.02588,0.03359 0.03846,0.0033 0.01196,-0.02766 0.02385,-0.03029 0.02385,-0.0046 0,0.01513 0.01788,0.05136 0.01991,0.04083 5.63e-4,-0.002 0.0022,-0.0086 0.0034,-0.01581 0.0039,-0.01975 0.01658,-0.02897 0.01658,-0.01186 0,0.01777 -5.64e-4,0.01777 0.05171,0.0013 0.05238,-0.01646 0.05436,-0.01646 0.05436,0 0,0.01449 0.01725,0.01844 0.0212,0.0052 0.0022,-0.0059 0.0093,-0.0046 0.0265,0.0033 0.01325,0.006 0.03445,0.0112 0.04776,0.0112 0.01726,0 0.02588,0.004 0.0318,0.01383 0.0045,0.0079 0.0212,0.01975 0.0371,0.02634 0.02385,0.01053 0.02785,0.01449 0.02453,0.02568 -0.005,0.01712 0.0045,0.01712 0.01991,0 0.01393,-0.01581 0.02323,-0.01186 0.02323,0.01053 0,0.0191 0.0099,0.02041 0.01991,0.0027 0.0067,-0.0125 0.0086,-0.01186 0.03315,0.01646 0.0146,0.01712 0.0265,0.03556 0.0265,0.0428 0,0.01513 0.01725,0.02173 0.03315,0.01316 0.0066,-0.004 0.01393,-0.0066 0.0159,-0.0066 0.008,0 0.0034,0.01844 -0.006,0.02634 -0.01325,0.0112 -0.01257,0.01779 0.0039,0.02634 0.01923,0.01053 0.04111,0.004 0.06962,-0.02173 0.02453,-0.02107 0.02453,-0.02107 0.0212,-0.0046 -0.0022,0.0092 -0.0045,0.01975 -0.006,0.02437 -0.0011,0.004 0,0.0079 0.0039,0.0086 0.0034,7e-4 0.01523,-0.0191 0.02521,-0.04478 0.0212,-0.05136 0.03778,-0.06651 0.03778,-0.03424 0,0.01053 -0.006,0.0349 -0.01393,0.054 l -0.01393,0.0349 0.01725,-0.01581 c 0.02058,-0.0191 0.02588,-0.03622 0.04308,-0.123797 0.01523,-0.07902 0.02853,-0.10931 0.05109,-0.119844 0.0093,-0.004 0.01855,-0.0072 0.02058,-0.0072 0.0039,0 -0.0011,0.08824 -0.0086,0.141576 -0.0045,0.02963 -0.0039,0.03227 0.006,0.02437 0.01523,-0.01316 0.02323,-0.0428 0.03051,-0.111944 0.0066,-0.06124 0.02058,-0.09811 0.03513,-0.08955 0.0066,0.004 0.006,0.01779 -0.005,0.09746 -0.0034,0.02305 -0.0028,0.03095 0.0028,0.02766 0.0073,-0.004 0.02058,-0.04281 0.03445,-0.09943 0.0073,-0.03161 0.02323,-0.05465 0.03118,-0.04741 0.0028,0.0033 0.005,0.02239 0.005,0.04346 -5.64e-4,0.0316 -0.006,0.04938 -0.03913,0.11787 -0.0212,0.04478 -0.0371,0.08231 -0.03513,0.08494 0.008,0.0072 0.0358,-0.01712 0.05571,-0.04873 0.01128,-0.01712 0.03119,-0.05202 0.04444,-0.07638 0.01393,-0.02502 0.0265,-0.04346 0.02853,-0.04148 0.0093,0.0092 -0.02323,0.08363 -0.06167,0.139599 -0.06896,0.101408 -0.07825,0.128407 -0.02588,0.07507 0.0371,-0.03753 0.04308,-0.03227 0.008,0.0066 -0.0212,0.02305 -0.03913,0.05466 -0.061,0.106676 -0.01726,0.04083 -0.03846,0.08692 -0.04708,0.102066 -0.0093,0.01581 -0.01325,0.02832 -0.0099,0.02832 0.0039,0 0.02187,-0.01317 0.04043,-0.02964 0.0318,-0.02831 0.05306,-0.03753 0.05306,-0.02305 0,0.0033 -0.02188,0.02963 -0.04906,0.05795 -0.05041,0.05334 -0.06763,0.07836 -0.06034,0.0856 0.0022,0.002 0.0093,7e-4 0.01522,-0.004 0.02588,-0.01844 0.0411,-0.0237 0.04906,-0.01581 0.005,0.0052 0,0.01513 -0.01923,0.03688 -0.05041,0.05663 -0.101454,0.179111 -0.101454,0.242327 0,0.01448 -0.0039,0.02041 -0.01726,0.02568 -0.01725,0.0059 -0.01725,0.0066 -0.005,0.01513 0.0106,0.0079 0.01128,0.01186 0.0039,0.02634 -0.01196,0.02568 -0.0099,0.03688 0.006,0.03688 0.0093,0 0.01257,0.0033 0.0106,0.0092 -0.0017,0.0046 -0.006,0.02239 -0.008,0.03951 -0.0039,0.02634 -0.0066,0.03029 -0.02052,0.03029 -0.0212,0 -0.02058,0.01844 5.64e-4,0.0237 0.0093,0.002 0.01658,0.0066 0.01658,0.0099 0,0.01975 -0.01591,0.07243 -0.02385,0.07902 -0.008,0.0066 -0.008,0.0086 0.0022,0.01581 0.0099,0.0072 0.0099,0.0086 -0.005,0.01646 -0.02058,0.0112 -0.0265,0.02041 -0.01855,0.03029 0.0045,0.0052 0.0034,0.01975 -0.0039,0.04412 -0.0051,0.01975 -0.008,0.04083 -0.006,0.04741 0.0039,0.0092 0.0022,0.01053 -0.0106,0.0066 -0.01325,-0.004 -0.0146,-0.0033 -0.0093,0.0072 0.0028,0.0072 0.005,0.0237 0.005,0.03688 0,0.02173 0.0022,0.02502 0.0146,0.02502 0.01991,0 0.02453,0.0086 0.01257,0.0237 -0.0073,0.01053 -0.01196,0.0112 -0.02853,0.0053 l -0.01991,-0.0072 -0.0028,0.06651 c -0.0022,0.05926 -0.0045,0.07244 -0.02323,0.109969 -0.02588,0.05202 -0.07758,0.10536 -0.151183,0.154746 -0.05306,0.03556 -0.05503,0.03753 -0.05503,0.06322 -5.63e-4,0.03029 -0.0265,0.07441 -0.04776,0.08099 -0.008,0.0027 -0.01325,0.0099 -0.01325,0.01844 0,0.0079 -0.0039,0.02766 -0.0086,0.04412 -0.006,0.02238 -0.01128,0.02964 -0.0212,0.02964 -0.0086,0 -0.0146,0.0066 -0.01923,0.02107 -0.0066,0.02502 -0.01725,0.02897 -0.01725,0.0066 0,-0.01513 -0.0106,-0.03622 -0.01523,-0.03095 -0.0073,0.0092 -0.02453,0.06519 -0.02453,0.08034 0,0.01317 -0.0039,0.01779 -0.01855,0.02107 -0.0099,0.0027 -0.02588,0.01383 -0.03513,0.02568 -0.0146,0.01646 -0.01991,0.0191 -0.02718,0.0125 -0.008,-0.0059 -0.01257,-0.0027 -0.02453,0.01844 -0.04246,0.07507 -0.121348,0.132356 -0.184999,0.135649 -0.03051,0.0013 -0.03981,0.0046 -0.05835,0.02305 -0.01788,0.01712 -0.02785,0.02107 -0.05238,0.02173 -0.02188,7e-4 -0.02983,0.0033 -0.02983,0.01053 0,0.0066 -0.0073,0.01053 -0.02323,0.0112 -0.02058,7e-4 -0.02255,-7e-4 -0.01991,-0.01317 0.0028,-0.01186 -0.0011,-0.01712 -0.0199,-0.02568 -0.02058,-0.01053 -0.02386,-0.01053 -0.0265,-0.002 -0.0022,0.0052 -0.0045,0.01449 -0.0067,0.02041 -0.006,0.0191 -0.01658,0.002 -0.01658,-0.02766 0,-0.02041 -0.0028,-0.02897 -0.0093,-0.02897 -0.01196,0 -0.02058,0.0112 -0.02983,0.04083 -0.0066,0.02041 -0.01793,0.0316 -0.0318,0.0316 -0.0039,0 5.63e-4,-0.0237 0.008,-0.04148 0.01196,-0.02766 -0.04511,-0.0033 -0.104764,0.04412 -0.03445,0.02832 -0.05171,0.03292 -0.0371,0.01053 0.0099,-0.01646 0.0066,-0.03293 -0.0067,-0.03293 -0.0066,0 -0.01393,-0.0046 -0.01658,-0.0099 -0.006,-0.01712 -0.02385,-0.0112 -0.03778,0.01317 -0.01325,0.02173 -0.0159,0.02305 -0.03846,0.0191 -0.03383,-0.0059 -0.03648,-0.0086 -0.02255,-0.02437 0.01196,-0.01317 0.01128,-0.01317 -0.0011,-0.0079 -0.0073,0.0027 -0.02255,0.0066 -0.03445,0.0086 -0.01658,0.002 -0.0212,0 -0.02521,-0.01186 -0.0045,-0.01383 -0.0073,-0.01449 -0.04178,-0.01054 -0.03513,0.004 -0.0371,0.0033 -0.05436,-0.01712 l -0.01788,-0.02107 -0.02385,0.01844 c -0.02255,0.01712 -0.02853,0.01844 -0.06299,0.01513 -0.03513,-0.0033 -0.04178,-0.0013 -0.104109,0.02897 -0.04308,0.02173 -0.08222,0.03556 -0.111395,0.04083 -0.0358,0.006 -0.04376,0.0092 -0.04043,0.01777 0.008,0.0191 0.006,0.02964 -0.0039,0.02634 -0.03248,-0.01053 -0.07825,-0.002 -0.139252,0.02634 -0.05374,0.02437 -0.06962,0.02897 -0.107419,0.02897 -0.03913,7e-4 -0.04511,0.0027 -0.05109,0.01513 -0.0086,0.01844 -0.01855,0.0191 -0.02385,0.002 -0.0045,-0.01383 -0.01991,-0.01779 -0.0265,-0.0066 -0.0028,0.004 -0.0159,0.01185 -0.03051,0.01777 -0.0146,0.0052 -0.03051,0.01646 -0.0358,0.0237 -0.008,0.0112 -0.01128,0.0125 -0.01788,0.006 -0.0045,-0.0046 -0.01794,-0.0079 -0.02983,-0.0079 -0.01788,0 -0.02255,0.0033 -0.02588,0.01712 -0.0034,0.01185 -0.0067,0.01448 -0.01128,0.0099 -0.0039,-0.004 -0.01325,-0.0072 -0.01991,-0.0072 -0.0099,0 -0.01196,0.0033 -0.0086,0.01581 0.0045,0.01975 -0.005,0.0237 -0.07559,0.02964 l -0.04973,0.004 0.0212,0.01513 c 0.03119,0.02174 0.104763,0.05663 0.156488,0.07375 0.03913,0.0125 0.04376,0.01581 0.03383,0.02239 -0.0099,0.0072 -0.0073,0.0092 0.01923,0.0125 0.121342,0.01646 0.192955,0.01186 0.336181,-0.02305 0.0683,-0.01646 0.106094,-0.0349 0.175717,-0.08494 0.06962,-0.05004 0.09151,-0.0586 0.151182,-0.0586 0.061,0 0.11405,0.01316 0.177041,0.04412 0.04043,0.02041 0.06432,0.03951 0.125988,0.100749 0.09151,0.09087 0.16577,0.181086 0.190965,0.230474 0.02718,0.05465 0.02521,0.120503 -0.0073,0.233765 -0.01393,0.04675 -0.02718,0.08626 -0.03051,0.08758 -0.0028,7e-4 -0.0212,0.01185 -0.04111,0.02437 -0.07758,0.04873 -0.06697,0.04675 -0.17306,0.03095 -0.05238,-0.0079 -0.108744,-0.01449 -0.125988,-0.01449 -0.02453,0 -0.0318,-0.0027 -0.03513,-0.0125 -0.0017,-0.0066 -0.01991,-0.0349 -0.03981,-0.0619 -0.06232,-0.08692 -0.07625,-0.121822 -0.05702,-0.148821 0.01658,-0.02305 0.06697,-0.123796 0.06697,-0.133015 0,-0.0052 -0.0159,-0.0066 -0.05503,-0.0046 -0.0411,0.0027 -0.07691,0.01053 -0.147201,0.03358 -0.09283,0.03029 -0.156489,0.04412 -0.204893,0.04412 -0.01855,0 -0.05238,0.01317 -0.119356,0.04609 -0.11007,0.05465 -0.178368,0.07375 -0.24733,0.07112 -0.0411,-0.0013 -0.04973,0 -0.05835,0.0112 -0.0093,0.01186 -0.0106,0.0125 -0.01658,0.002 -0.005,-0.0086 -0.0146,-0.01053 -0.0411,-0.0086 -0.01855,0.0013 -0.0358,0.0059 -0.03846,0.0099 -0.0045,0.0072 -0.08753,0.002 -0.174392,-0.0112 -0.01991,-0.0027 -0.02453,-0.0013 -0.02453,0.0072 0,0.0059 -0.0011,0.01054 -0.0034,0.01054 -0.006,0 -0.05368,-0.02305 -0.07161,-0.0349 l -0.01788,-0.01185 v 0.02042 0.02107 l -0.02853,-0.006 c -0.03383,-0.0066 -0.241364,-0.0059 -0.248655,7e-4 -0.0028,0.0027 0.0022,0.01054 0.0106,0.01712 0.01128,0.0092 0.01393,0.01646 0.0106,0.02897 -0.0086,0.03622 0.0028,0.06124 0.05436,0.115895 0.02916,0.0316 0.05103,0.06058 0.05306,0.07178 0.0028,0.01316 0.0093,0.02041 0.01991,0.02305 0.01325,0.0033 0.06166,0.06124 0.05436,0.06585 -5.64e-4,7e-4 -0.0093,0.0046 -0.01787,0.0079 l -0.0159,0.0066 0.02385,0.01513 c 0.0358,0.02173 0.06432,0.05729 0.06432,0.07968 0,0.01581 0.0034,0.02041 0.01794,0.0237 0.03913,0.0092 0.04708,0.02897 0.01196,0.02897 -0.01257,0 -0.02323,0.0027 -0.02323,0.0059 0,0.0046 0.05374,0.03095 0.08819,0.0428 0.01325,0.0046 0.0093,0.01712 -0.006,0.01712 -0.01325,0 -0.01196,0.01317 0.0022,0.01712 0.03119,0.0099 0.05702,0.02437 0.08223,0.04675 0.02385,0.02173 0.02785,0.02305 0.03316,0.01317 0.0099,-0.01712 0.01991,-0.01317 0.01523,0.0046 -0.0039,0.01581 -0.0034,0.01646 0.01658,0.0086 0.01793,-0.0066 0.0212,-0.0059 0.03383,0.01053 0.0159,0.01975 0.04573,0.03688 0.104104,0.0586 0.0212,0.0072 0.04444,0.01779 0.05238,0.02305 0.01196,0.0079 0.01855,0.0066 0.05306,-0.0112 0.08488,-0.0428 0.144551,-0.03951 0.19428,0.0112 l 0.02853,0.02963 0.05103,-0.05004 0.05041,-0.05004 0.0265,0.0072 c 0.0146,0.004 0.04376,0.01581 0.06432,0.02634 0.03981,0.01975 0.05835,0.0237 0.05835,0.0125 0,-0.004 0.0066,-0.0066 0.0146,-0.0066 0.0093,0 0.04641,0.03095 0.110736,0.09416 0.05306,0.05202 0.116701,0.109969 0.140575,0.128406 0.04178,0.03227 0.04444,0.03622 0.05238,0.07375 0.0045,0.02239 0.01196,0.03951 0.01658,0.03951 0.01325,0 0.04308,0.03358 0.04308,0.04807 0,0.0079 -0.008,0.02239 -0.01793,0.03227 -0.01923,0.01975 -0.03846,0.02239 -0.08355,0.0125 l -0.02453,-0.0059 v 0.02239 c 0,0.0237 -0.01325,0.03556 -0.03981,0.03556 -0.008,0 -0.0411,-0.0092 -0.0736,-0.02041 -0.0318,-0.0112 -0.06166,-0.01844 -0.06498,-0.01581 -0.0039,0.002 -0.005,0.0125 -0.0034,0.02238 0.0045,0.0237 -0.0039,0.02964 -0.02718,0.01779 -0.0106,-0.0052 -0.02785,-0.0079 -0.04308,-0.0059 -0.04511,0.0059 -0.06896,-0.0027 -0.103439,-0.03753 -0.01788,-0.01844 -0.04573,-0.03951 -0.06233,-0.04807 -0.02853,-0.01383 -0.03581,-0.01449 -0.14256,-0.0112 -0.200917,0.006 -0.292418,0.0027 -0.397853,-0.01317 -0.0915,-0.01317 -0.185664,-0.01581 -0.25197,-0.0053 -0.0099,0.0013 -0.01393,-0.002 -0.01523,-0.01317 -0.0022,-0.01448 -0.0045,-0.01513 -0.0265,-0.0112 -0.01325,0.0027 -0.04178,0.0046 -0.06366,0.004 -0.03383,-7e-4 -0.04043,-0.0033 -0.05171,-0.0191 -0.0073,-0.0099 -0.08421,-0.08758 -0.170412,-0.172525 -0.0862,-0.08495 -0.166434,-0.165941 -0.178366,-0.180427 -0.0159,-0.01844 -0.02521,-0.02437 -0.03513,-0.02173 -0.01923,0.0052 -0.03248,-0.0013 -0.03248,-0.01513 0,-0.0066 -0.0045,-0.01513 -0.0099,-0.01975 -0.005,-0.0046 -0.0099,-0.01186 -0.0099,-0.01581 0,-0.0046 -0.01725,-0.02042 -0.03846,-0.0349 -0.0265,-0.01844 -0.05902,-0.05334 -0.103444,-0.109969 -0.08487,-0.10865 -0.11272,-0.133015 -0.156483,-0.136965 -0.03846,-0.004 -0.06763,-0.02634 -0.0809,-0.06256 -0.005,-0.01449 -0.01257,-0.02174 -0.02058,-0.02174 -0.0073,0 -0.02058,-0.0079 -0.02983,-0.01779 -0.01523,-0.01646 -0.01658,-0.01712 -0.02521,-0.0059 -0.0045,0.0066 -0.02983,0.0619 -0.05571,0.123139 -0.02588,0.06058 -0.05702,0.126431 -0.06962,0.146844 l -0.02188,0.03622 0.0039,0.08495 c 0.0067,0.168574 -0.02785,0.231131 -0.194285,0.349659 -0.04376,0.03095 -0.09747,0.07507 -0.120017,0.09812 -0.02453,0.02568 -0.04973,0.04478 -0.06565,0.05071 -0.02255,0.0072 -0.02983,0.01513 -0.04708,0.04873 -0.02453,0.04807 -0.03648,0.06124 -0.07426,0.08758 -0.01923,0.01317 -0.02785,0.0237 -0.02785,0.0349 0,0.0086 -0.0086,0.03885 -0.01923,0.06716 -0.02058,0.05466 -0.02853,0.104043 -0.01726,0.104043 0.0039,0 0.08289,-0.03753 0.175717,-0.08363 0.183673,-0.09087 0.263243,-0.138942 0.334855,-0.202815 0.126649,-0.112602 0.18434,-0.14882 0.269215,-0.167258 0.06432,-0.01383 0.09084,-0.03227 0.117366,-0.08231 0.02255,-0.04083 0.04838,-0.06651 0.06697,-0.06651 0.006,0 0.02718,0.01053 0.04708,0.02305 0.01991,0.0125 0.04178,0.02305 0.04838,0.02305 0.0073,0 0.02915,-0.01513 0.04974,-0.03359 0.04178,-0.03753 0.07559,-0.05465 0.122006,-0.06058 l 0.03119,-0.004 0.06432,0.05597 c 0.0358,0.03095 0.09548,0.08165 0.13328,0.113262 l 0.06829,0.05663 v 0.0619 0.06124 l -0.02323,-0.0046 -0.02323,-0.004 v 0.04215 c 0,0.02305 -0.0045,0.05926 -0.0099,0.07968 -0.0099,0.03885 -0.03778,0.09943 -0.04906,0.106017 -0.0093,0.0059 -0.05238,-0.04017 -0.05702,-0.0619 -0.0028,-0.01053 -0.0066,-0.01975 -0.0099,-0.01975 -0.0093,0 -0.02983,0.03227 -0.05171,0.08034 -0.02052,0.0461 -0.03051,0.054 -0.03778,0.03227 -0.0022,-0.0066 -0.02386,-0.03095 -0.04838,-0.05466 -0.02453,-0.02305 -0.05041,-0.05004 -0.05769,-0.05992 -0.01726,-0.02305 -0.02853,-0.0191 -0.05109,0.01844 -0.0099,0.01646 -0.02323,0.02963 -0.02916,0.02963 -0.008,0 -0.0093,0.0033 -0.006,0.0112 0.0028,0.0066 0.01128,0.03556 0.01793,0.06453 0.02521,0.10009 0.006,0.196231 -0.04376,0.227179 -0.02983,0.01779 -0.09814,0.01844 -0.116041,7e-4 -0.01128,-0.0112 -0.04178,-0.08297 -0.05041,-0.119844 -0.0039,-0.01513 -0.0086,-0.01779 -0.03981,-0.02107 -0.03383,-0.0033 -0.0988,0.002 -0.139245,0.01186 -0.01128,0.0027 -0.05968,0.02107 -0.108744,0.04083 -0.04838,0.01975 -0.110076,0.04148 -0.136601,0.04807 -0.04246,0.01053 -0.05639,0.01844 -0.107419,0.05992 -0.07625,0.0619 -0.122667,0.08363 -0.200911,0.09285 -0.05639,0.0072 -0.06432,0.0099 -0.09946,0.03556 -0.05238,0.03819 -0.07493,0.04873 -0.103439,0.04873 -0.01788,0 -0.03051,0.0046 -0.04178,0.01581 -0.01393,0.01383 -0.03051,0.01844 -0.09018,0.027 -0.09416,0.01383 -0.214174,0.04215 -0.335521,0.07968 l -0.09614,0.03029 -0.05306,-0.02634 c -0.08089,-0.04083 -0.08089,-0.04083 -0.08355,-0.147502 -0.0028,-0.104701 -0.0067,-0.113921 -0.03975,-0.0889 -0.03383,0.02568 -0.08156,0.04675 -0.164445,0.07375 -0.08222,0.027 -0.130628,0.04807 -0.163119,0.07309 -0.01196,0.0086 -0.04376,0.02437 -0.07161,0.03556 -0.07559,0.02964 -0.169086,0.0777 -0.350109,0.179111 -0.08952,0.05071 -0.165104,0.0968 -0.16776,0.102725 -0.0017,0.0059 -0.006,0.03293 -0.008,0.06058 -0.005,0.06914 0.0099,0.136965 0.06166,0.275251 0.02386,0.06322 0.04641,0.129722 0.05103,0.14816 0.006,0.027 0.02255,0.05399 0.07824,0.127089 0.06698,0.0889 0.120022,0.169233 0.151182,0.231791 0.008,0.01581 0.02453,0.03753 0.03649,0.04807 0.01257,0.01053 0.03648,0.04148 0.05435,0.06849 0.0411,0.06256 0.05436,0.06848 0.178372,0.07638 0.05109,0.004 0.104104,0.0092 0.118026,0.01317 0.03648,0.0099 0.06962,0.04148 0.07824,0.07573 0.0086,0.03424 0.0099,0.03424 0.07758,-0.0013 0.02323,-0.0125 0.05041,-0.02239 0.05968,-0.02239 0.02386,0 0.132615,0.09482 0.190305,0.1666 0.04178,0.05136 0.09747,0.151453 0.106755,0.190302 0.0034,0.01581 0.0022,0.01844 -0.0093,0.01844 -0.02255,0 -0.02323,0.0112 -0.0022,0.04215 0.02588,0.03688 0.04043,0.09219 0.04043,0.153429 0,0.03885 -0.0022,0.04807 -0.0099,0.04807 -0.01325,0 -0.04708,-0.01711 -0.07493,-0.03753 l -0.0212,-0.01581 -0.0011,0.01513 c 0,0.0086 0,0.03951 0.0011,0.06914 5.63e-4,0.02964 -5.65e-4,0.05663 -0.0028,0.06058 -0.0034,0.0046 -0.01325,0.0027 -0.03051,-0.0059 -0.0146,-0.0072 -0.04178,-0.01646 -0.061,-0.02041 -0.01923,-0.004 -0.04974,-0.01317 -0.06698,-0.02107 -0.03975,-0.01646 -0.04641,-0.01053 -0.04178,0.04017 0.0028,0.03359 0.0028,0.0349 -0.01128,0.02964 -0.01855,-0.0066 -0.04838,-0.0066 -0.07493,0 -0.01788,0.0046 -0.02453,0.0027 -0.04444,-0.01513 -0.01325,-0.0112 -0.04308,-0.04478 -0.06698,-0.07441 -0.07161,-0.0889 -0.09217,-0.09812 -0.226111,-0.09746 -0.135929,0 -0.182348,-0.0099 -0.22412,-0.04807 -0.01393,-0.01317 -0.01788,-0.02173 -0.01523,-0.03293 0.0028,-0.0112 -0.0011,-0.01975 -0.01658,-0.03424 -0.0265,-0.02502 -0.06498,-0.081 -0.09217,-0.134333 -0.01196,-0.0237 -0.05041,-0.08758 -0.0862,-0.141576 -0.03513,-0.05466 -0.102113,-0.162648 -0.149192,-0.240351 -0.09814,-0.164624 -0.128638,-0.210059 -0.213514,-0.322661 -0.07493,-0.09878 -0.101454,-0.150795 -0.106094,-0.206767 -0.0028,-0.03227 -0.008,-0.04741 -0.02853,-0.07639 -0.06565,-0.09614 -0.104769,-0.187011 -0.179032,-0.414192 l -0.05306,-0.16133 0.0159,-0.01711 c 0.0086,-0.0092 0.02785,-0.03424 0.04376,-0.05597 0.05571,-0.0777 0.104763,-0.117211 0.161788,-0.131039 0.0106,-0.0027 0.04178,-0.02173 0.06962,-0.04281 0.07227,-0.05465 0.191629,-0.134333 0.383924,-0.25747 l 0.167761,-0.107335 0.07758,-0.08626 c 0.131955,-0.146844 0.214173,-0.233107 0.283136,-0.295664 0.03648,-0.03293 0.07493,-0.07375 0.08554,-0.09153 0.02323,-0.04017 0.07294,-0.0889 0.122673,-0.121822 0.02058,-0.01383 0.0862,-0.04938 0.146541,-0.08034 0.101454,-0.05136 0.185665,-0.102065 0.185665,-0.111943 -5.65e-4,-0.01317 -0.03383,-0.09482 -0.04511,-0.111284 l -0.01393,-0.0191 0.0159,-0.01513 c 0.01788,-0.01646 0.02188,-0.03293 0.008,-0.03293 -0.0045,0 -0.01325,0.006 -0.01991,0.01317 -0.006,0.0072 -0.01393,0.01316 -0.01726,0.01316 -0.0034,0 -0.01257,-0.0191 -0.02058,-0.0428 -0.008,-0.0237 -0.0159,-0.04281 -0.01726,-0.04281 -0.0022,0 -0.0093,0.0033 -0.01658,0.0066 -0.0106,0.0059 -0.01393,0.0033 -0.02323,-0.01975 -0.006,-0.01448 -0.02255,-0.03556 -0.03648,-0.04675 -0.02915,-0.02305 -0.04573,-0.05004 -0.04573,-0.07507 0,-0.01383 -0.0034,-0.01646 -0.01991,-0.01646 -0.02853,0 -0.06498,-0.03424 -0.07427,-0.0698 -0.0045,-0.01581 -0.01196,-0.02897 -0.01658,-0.02897 -0.0045,0 -0.0086,0.002 -0.0086,0.0046 0,0.0033 -0.0028,0.0092 -0.006,0.01449 -0.0045,0.0072 -0.0099,0.0066 -0.02718,-0.0059 -0.01923,-0.01383 -0.0212,-0.01777 -0.01793,-0.04017 0.0034,-0.02437 0.0028,-0.02568 -0.01523,-0.02568 -0.03451,0 -0.04043,-0.0053 -0.0358,-0.03359 0.0067,-0.04017 -0.01725,-0.06124 -0.0318,-0.02897 -0.01523,0.03292 -0.03186,0.01646 -0.03186,-0.03095 v -0.02634 l -0.02521,0.0046 c -0.02255,0.0033 -0.0265,0.002 -0.04043,-0.01646 -0.008,-0.01186 -0.02323,-0.0237 -0.03383,-0.027 -0.01523,-0.0059 -0.01855,-0.0112 -0.02188,-0.03622 -0.0034,-0.03227 -0.01658,-0.05267 -0.02323,-0.03622 -0.0022,0.0053 -0.01061,0.01712 -0.01923,0.02568 l -0.0159,0.01581 -0.01991,-0.01844 c -0.0106,-0.01054 -0.0371,-0.05267 -0.05901,-0.09482 -0.03981,-0.07704 -0.06829,-0.111943 -0.101453,-0.124456 -0.01658,-0.0066 -0.01855,-0.0099 -0.0146,-0.027 0.0034,-0.01581 0.0022,-0.01975 -0.0073,-0.01975 -0.0067,0 -0.03445,-0.0237 -0.06233,-0.05268 -0.05103,-0.05267 -0.0683,-0.06387 -0.06167,-0.03951 0.0034,0.01185 0,0.01316 -0.03846,0.01316 -0.03383,0 -0.05368,0.0052 -0.0988,0.02437 -0.04376,0.0191 -0.06564,0.02437 -0.09548,0.02502 h -0.03981 l -0.02983,0.04148 c -0.04376,0.05992 -0.163779,0.147502 -0.22876,0.167257 -0.05902,0.01711 -0.0809,0.02766 -0.181689,0.0889 -0.04511,0.02766 -0.08222,0.04873 -0.08288,0.04741 -5.65e-4,-0.0013 -0.0045,-0.0086 -0.0086,-0.01581 -0.0039,-0.0072 -0.01325,-0.01317 -0.01991,-0.01317 -0.01325,0 -0.0146,0.0125 -0.006,0.04083 0.0039,0.0112 0.0022,0.01581 -0.0073,0.01844 -0.0073,0.002 -0.02385,0.0099 -0.03846,0.01711 -0.01788,0.0099 -0.0318,0.0125 -0.04776,0.0099 -0.02058,-0.004 -0.02255,-0.0027 -0.0265,0.01383 -0.0099,0.04741 -0.02718,0.06782 -0.03913,0.04807 -0.008,-0.0125 -0.02916,-0.0072 -0.03118,0.0079 -0.0011,0.0125 -0.0067,0.01513 -0.02453,0.01581 -0.0212,0 -0.02323,0.002 -0.0318,0.03095 -0.0086,0.02897 -0.0106,0.03095 -0.0318,0.03095 -0.01523,0 -0.02323,0.0033 -0.02323,0.0092 0,0.0112 -0.02521,0.04346 -0.03383,0.04346 -0.0034,0 -0.0093,-0.0072 -0.01257,-0.01646 -0.006,-0.01513 -0.008,-0.01581 -0.02058,-0.0092 -0.0086,0.004 -0.0265,0.0059 -0.04246,0.004 -0.02521,-0.004 -0.02853,-0.0027 -0.03846,0.01513 -0.0146,0.0237 -0.04511,0.04741 -0.120682,0.09416 -0.03316,0.01975 -0.07095,0.04807 -0.08553,0.06256 -0.02255,0.02305 -0.02853,0.02634 -0.04776,0.02305 -0.0146,-0.0027 -0.02255,-0.0013 -0.02255,0.004 0,0.004 0.0028,0.0072 0.006,0.0072 0.0034,0 0.0073,0.0046 0.0099,0.0099 0.0028,0.0072 -0.0039,0.01316 -0.02255,0.02041 -0.01725,0.0072 -0.04444,0.03029 -0.08024,0.06914 -0.05171,0.05663 -0.05436,0.0586 -0.06366,0.04544 -0.005,-0.0072 -0.01128,-0.01317 -0.01393,-0.01317 -0.0028,0 -0.0318,0.02107 -0.06432,0.04675 -0.03316,0.02634 -0.0756,0.05729 -0.09416,0.0698 -0.01923,0.01185 -0.03981,0.03161 -0.04573,0.04346 -0.01523,0.03029 -0.05239,0.07375 -0.07758,0.09153 -0.01128,0.0079 -0.0358,0.01975 -0.05436,0.02634 -0.02718,0.0092 -0.03581,0.01581 -0.04974,0.04017 -0.0093,0.01581 -0.03383,0.04807 -0.05436,0.07112 -0.03648,0.04017 -0.03846,0.04148 -0.04776,0.02897 -0.0106,-0.01449 -0.0093,-0.01646 -0.02323,0.03292 -0.008,0.02766 -0.05306,0.104701 -0.05374,0.09021 0,-0.01383 -0.01991,-0.0086 -0.01991,0.0059 0,0.02041 -0.01128,0.03819 -0.05238,0.08165 -0.0212,0.02173 -0.04178,0.04939 -0.04641,0.06058 -0.0066,0.01581 -0.01325,0.02173 -0.02453,0.02173 -0.01923,0 -0.02521,0.0092 -0.01257,0.01975 0.005,0.0046 0.0099,0.01383 0.0099,0.01975 0,0.0125 -0.02915,0.03951 -0.04308,0.03951 -0.0039,0 -0.01325,0.01844 -0.02058,0.04083 -0.0066,0.02239 -0.03248,0.07639 -0.05769,0.119847 -0.04974,0.08494 -0.06698,0.127089 -0.07427,0.180427 -0.0039,0.02831 -0.0073,0.0349 -0.01991,0.03819 -0.01257,0.0033 -0.01523,0.0092 -0.01793,0.03885 -0.0028,0.027 -0.0106,0.04807 -0.0358,0.09021 -0.0265,0.04544 -0.03248,0.05993 -0.03248,0.08758 0,0.02238 -0.0045,0.03951 -0.01393,0.05267 -0.01923,0.02766 -0.02853,0.05795 -0.03383,0.109969 -0.0034,0.03819 -0.006,0.04478 -0.01658,0.04478 -0.0073,0 -0.0159,0.0079 -0.02058,0.01777 -0.0039,0.01053 -0.0099,0.02041 -0.01257,0.02239 -0.0034,0.002 -0.0022,0.01317 0.0017,0.02502 0.0099,0.02766 0.0039,0.07046 -0.01196,0.08758 -0.0106,0.01186 -0.01196,0.027 -0.01257,0.149479 -5.64e-4,0.08297 -0.005,0.176475 -0.01257,0.241007 -0.0066,0.05861 -0.01257,0.157381 -0.01257,0.221915 l -5.65e-4,0.117211 h -0.01523 -0.01522 l 0.01325,0.01712 c 0.0159,0.02041 0.01658,0.02964 0.0039,0.06519 -0.0086,0.0237 -0.0086,0.027 0.0034,0.03952 0.01726,0.01844 0.03051,0.05795 0.03581,0.108651 0.006,0.05267 0.02058,0.09943 0.03778,0.121163 l 0.01325,0.01711 h -0.01928 c -0.03581,0 -0.03716,0.01449 -0.0039,0.04544 0.01855,0.01712 0.02853,0.0316 0.0265,0.03753 -0.0022,0.0053 -0.006,0.01383 -0.008,0.0191 -0.0028,0.0059 -5.64e-4,0.0099 0.006,0.0099 0.008,0 0.03118,0.04215 0.03118,0.05597 0,0.002 -0.01128,-0.0013 -0.02521,-0.0072 -0.04573,-0.01975 -0.04376,-0.0191 -0.03445,-0.002 0.0045,0.0086 0.03051,0.04346 0.05769,0.0777 0.04573,0.05729 0.08156,0.115896 0.08156,0.132357 0,0.0033 -0.0045,0.0066 -0.0106,0.0066 -0.008,0 -0.0039,0.0086 0.01325,0.03227 0.01325,0.01779 0.03581,0.06453 0.05109,0.104043 0.0146,0.03885 0.03383,0.08231 0.04308,0.0968 l 0.01725,0.02502 -0.02915,-0.0046 c -0.02718,-0.0046 -0.02785,-0.004 -0.01726,0.0072 0.0067,0.0066 0.02453,0.01779 0.03981,0.02568 0.0318,0.01449 0.04444,0.04281 0.01923,0.04281 -0.0212,0 -0.0212,0.0099 0,0.0191 0.0106,0.0046 0.03051,0.02238 0.04444,0.03885 0.01325,0.01646 0.03778,0.04412 0.05368,0.0619 0.02385,0.02568 0.02718,0.03293 0.02058,0.04083 -0.0106,0.01317 -0.0039,0.02173 0.01923,0.027 0.02853,0.0059 0.07426,0.04873 0.116041,0.107994 0.01991,0.02831 0.0464,0.05926 0.05835,0.06914 0.01196,0.0092 0.01788,0.01712 0.01325,0.01712 -0.01726,0 -0.0067,0.01711 0.02188,0.03489 0.04974,0.0316 0.100788,0.07309 0.217489,0.177793 0.06166,0.05465 0.108744,0.100749 0.104769,0.102065 -0.01128,0.004 -0.0086,0.02107 0.0028,0.02107 0.0212,0 0.102113,0.04215 0.181684,0.09482 0.09018,0.05927 0.125322,0.07836 0.176381,0.0968 0.02521,0.0086 0.03315,0.01513 0.03248,0.02437 0,0.01053 0.005,0.01383 0.02588,0.01712 0.0146,0.0027 0.05901,0.01779 0.100122,0.0349 0.05436,0.02239 0.08554,0.03095 0.119357,0.03359 0.03648,0.0027 0.04641,0.0053 0.04838,0.01513 0.0028,0.0086 0.01325,0.0125 0.05041,0.01581 0.0265,0.002 0.108745,0.0112 0.183673,0.01975 0.242029,0.02766 0.30104,0.03161 0.427027,0.02766 0.06564,-0.0027 0.143226,-0.0086 0.171077,-0.01317 0.03051,-0.0052 0.05238,-0.0066 0.05368,-0.0027 5.63e-4,0.0033 0.01196,0.002 0.02453,-0.0033 0.05306,-0.02173 0.09283,-0.02107 0.09283,0.0013 0,0.01053 0.0045,0.0092 0.03383,-0.0099 0.04246,-0.02897 0.08023,-0.03951 0.106089,-0.03029 0.01393,0.0046 0.01923,0.0046 0.01923,-0.0013 0,-0.0046 0.0106,-0.01581 0.02323,-0.02634 0.01726,-0.01383 0.02718,-0.01712 0.03981,-0.01383 0.01257,0.0033 0.0212,7e-4 0.0318,-0.0092 0.02323,-0.02173 0.07161,-0.04083 0.10477,-0.04083 0.03248,0 0.04906,-0.0099 0.165103,-0.0968 0.04111,-0.03095 0.08886,-0.05399 0.110736,-0.05465 0.0086,0 0.01523,-0.0027 0.01523,-0.0059 0,-0.01513 0.03913,-0.04939 0.108085,-0.09482 0.04043,-0.02634 0.08487,-0.0586 0.09747,-0.07046 0.01793,-0.01646 0.02521,-0.01975 0.03316,-0.01383 0.0212,0.01513 0.02916,0.01581 0.0358,0.004 0.02853,-0.04938 0.110735,-0.113261 0.16577,-0.128407 0.02521,-0.0066 0.03316,-0.01317 0.04838,-0.03885 0.01991,-0.03424 0.07957,-0.118529 0.134604,-0.191621 0.06101,-0.08034 0.104104,-0.146186 0.138585,-0.210719 0.01788,-0.03359 0.03451,-0.05729 0.03648,-0.05334 0.0028,0.004 0.0086,0.0072 0.01325,0.0072 0.006,0 0.01128,-0.01779 0.0159,-0.05597 0.0073,-0.05663 0.02453,-0.09943 0.05103,-0.128407 0.0099,-0.0112 0.0159,-0.02766 0.01855,-0.05334 0.0022,-0.02041 0.0159,-0.07639 0.03119,-0.125114 0.0146,-0.04873 0.03051,-0.106676 0.03513,-0.129065 0.0067,-0.03622 0.0106,-0.04346 0.03248,-0.05926 0.02453,-0.01777 0.02521,-0.0191 0.02188,-0.05136 -0.0039,-0.03424 0.0022,-0.0619 0.03248,-0.164623 0.0159,-0.05071 0.01788,-0.06914 0.01658,-0.128407 -0.0034,-0.127089 -0.0022,-0.136967 0.01726,-0.164623 0.0212,-0.03029 0.01991,-0.05004 -0.01128,-0.133674 -0.01658,-0.04544 -0.01923,-0.05993 -0.01523,-0.09022 0.0022,-0.01975 0.0045,-0.06453 0.005,-0.09877 5.64e-4,-0.03424 0.0039,-0.102725 0.0073,-0.152111 l 0.006,-0.08956 -0.01923,-0.02831 c -0.01726,-0.02568 -0.01923,-0.03424 -0.01991,-0.08429 0,-0.04346 -0.0028,-0.05663 -0.0106,-0.06124 -0.0086,-0.0046 -0.0093,-0.01053 -0.0045,-0.03029 0.01257,-0.05531 0.0028,-0.146844 -0.02853,-0.25813 -0.01257,-0.04741 -0.01257,-0.04938 -0.0011,-0.05794 0.0066,-0.0046 0.02385,-0.0086 0.03846,-0.0086 0.02588,0 0.02916,0.0027 0.06897,0.05136 0.104769,0.128406 0.112725,0.136308 0.139245,0.136308 h 0.02453 l 0.02718,0.07902 c 0.0265,0.07638 0.02785,0.07902 0.04641,0.07902 h 0.01923 l 0.0086,0.07902 c 0.008,0.06585 0.01257,0.08626 0.03118,0.121821 0.02718,0.05268 0.05171,0.129724 0.06962,0.217961 0.02058,0.100092 0.05968,0.368757 0.06432,0.440533 l 0.0039,0.06322 -0.01788,0.0079 c -0.01658,0.0072 -0.02453,0.02766 -0.0106,0.02766 0.02058,0 0.02058,0.03161 0,0.207425 -0.0265,0.228498 -0.04246,0.32859 -0.06962,0.434607 -0.0212,0.08231 -0.05306,0.167915 -0.07294,0.198865 -0.0086,0.01316 -0.0086,0.01513 0.0011,0.02041 0.0093,0.0053 0.006,0.01383 -0.0265,0.06124 -0.01991,0.03029 -0.06565,0.108652 -0.100794,0.173843 -0.07492,0.136967 -0.09813,0.175159 -0.145211,0.233108 -0.02453,0.03095 -0.03316,0.04741 -0.0318,0.05992 0.0028,0.02568 -0.06233,0.109969 -0.157154,0.204792 -0.04246,0.04148 -0.08156,0.08429 -0.08686,0.09417 -0.005,0.01053 -0.02588,0.03227 -0.04511,0.04873 -0.01923,0.01646 -0.03981,0.03819 -0.04511,0.04873 -0.0073,0.01448 -0.01325,0.01777 -0.02453,0.01513 -0.01128,-0.0027 -0.01787,0.0013 -0.03051,0.02041 -0.03913,0.05663 -0.156488,0.150795 -0.258602,0.206766 -0.03513,0.0191 -0.04376,0.02634 -0.04308,0.03885 5.64e-4,0.01186 -0.005,0.01779 -0.02323,0.02502 -0.02853,0.01186 -0.06961,0.03951 -0.110075,0.07441 -0.02058,0.01779 -0.04444,0.03029 -0.07625,0.03952 -0.03648,0.01053 -0.04838,0.01776 -0.05571,0.0316 -0.01196,0.02305 -0.04511,0.04148 -0.134605,0.07441 -0.04641,0.01712 -0.07824,0.03293 -0.08952,0.04544 -0.0099,0.01053 -0.03446,0.02502 -0.05504,0.03227 -0.03513,0.01317 -0.120682,0.02964 -0.13328,0.02568 -0.005,-0.0013 -0.01855,0.0092 -0.06697,0.05531 -0.01325,0.01186 -0.0199,0.01317 -0.061,0.0092 -0.02521,-0.0027 -0.05306,-0.0027 -0.06299,0 l -0.01726,0.004 0.01523,0.01186 c 0.02453,0.02041 0.0067,0.02502 -0.06167,0.01581 -0.156489,-0.02107 -0.185005,-0.0237 -0.230093,-0.02041 -0.03051,0.002 -0.061,0.0092 -0.08355,0.01975 -0.0318,0.01448 -0.03846,0.01513 -0.07559,0.0092 -0.02916,-0.0053 -0.06432,-0.0046 -0.126647,0.002 -0.04776,0.0046 -0.104104,0.0066 -0.125989,0.0046 -0.03513,-0.004 -0.04043,-0.0027 -0.04906,0.0092 l -0.0086,0.01383 -0.07095,-0.01383 c -0.03913,-0.0072 -0.161129,-0.02568 -0.271859,-0.03951 -0.299714,-0.03951 -0.423052,-0.06651 -0.515878,-0.112602 -0.02916,-0.01449 -0.03981,-0.01646 -0.05109,-0.0112 -0.01257,0.0052 -0.0212,0.0027 -0.05306,-0.02041 -0.0212,-0.01449 -0.06101,-0.04083 -0.08819,-0.05795 -0.02718,-0.01779 -0.07824,-0.05004 -0.113385,-0.07309 -0.06101,-0.03951 -0.06564,-0.04148 -0.09482,-0.03753 -0.02718,0.004 -0.03445,0.002 -0.07625,-0.02305 -0.03119,-0.01844 -0.05374,-0.027 -0.07029,-0.027 -0.03513,0 -0.06962,-0.01646 -0.06962,-0.03227 0,-0.01053 -0.0039,-0.01383 -0.01855,-0.01383 -0.04308,0 -0.112066,-0.04807 -0.123998,-0.08626 -0.0034,-0.01053 -0.008,-0.0125 -0.02188,-0.0092 -0.0159,0.0033 -0.01923,7e-4 -0.02983,-0.02502 -0.008,-0.0191 -0.0265,-0.04215 -0.05436,-0.06651 -0.02983,-0.02568 -0.04308,-0.04281 -0.04641,-0.05795 -0.0086,-0.04215 -0.0371,-0.0698 -0.03445,-0.03424 5.63e-4,0.0099 -0.0022,0.01844 -0.005,0.01975 -0.0073,0.0027 -0.05041,-0.06058 -0.06631,-0.09746 -0.0106,-0.02634 -0.0212,-0.0316 -0.02718,-0.01513 -0.005,0.01317 -0.02521,0.0125 -0.03648,-0.0013 -0.005,-0.0059 -0.03316,-0.02634 -0.06232,-0.04544 -0.07957,-0.05136 -0.11604,-0.09614 -0.11604,-0.143552 0,-0.02041 -0.006,-0.03688 -0.01393,-0.03688 -0.0034,0 -0.006,0.0059 -0.006,0.01316 0,0.0072 -0.0039,0.01317 -0.0093,0.01317 -0.01658,0 -0.07426,-0.06848 -0.112719,-0.134992 -0.05109,-0.08692 -0.08422,-0.130382 -0.113392,-0.148161 -0.02255,-0.01383 -0.02385,-0.01646 -0.01991,-0.03885 0.0034,-0.02107 0.0011,-0.02634 -0.01855,-0.0461 -0.03051,-0.02897 -0.05835,-0.09087 -0.09482,-0.208741 -0.03383,-0.110628 -0.04511,-0.133674 -0.0862,-0.186355 -0.03981,-0.05136 -0.04444,-0.0698 -0.03513,-0.142892 0.0086,-0.06322 0.005,-0.09812 -0.0106,-0.118529 -0.0093,-0.0112 -0.0099,-0.0086 -0.0086,0.02964 0.0034,0.07375 -0.0106,0.05399 -0.04974,-0.07309 -0.06432,-0.207427 -0.08222,-0.306199 -0.07559,-0.426705 0.0028,-0.04938 0.0011,-0.08033 -0.006,-0.108651 -0.0159,-0.06716 -0.01923,-0.169233 -0.0066,-0.250226 0.006,-0.04017 0.01257,-0.07902 0.0146,-0.08758 0.0034,-0.01185 0.0011,-0.01448 -0.0093,-0.01448 -0.02521,0 -0.02983,-0.02173 -0.01393,-0.06387 0.02188,-0.05795 0.02255,-0.07112 0.0066,-0.09153 -0.02187,-0.027 -0.0159,-0.08626 0.01726,-0.171208 0.005,-0.01449 -0.01658,-0.0112 -0.02588,0.004 -0.0045,0.0072 -0.01257,0.01316 -0.01788,0.01316 -0.0073,0 -0.0086,-0.0079 -0.005,-0.03622 0.0039,-0.04148 -0.0039,-0.04741 -0.01855,-0.0125 -0.0051,0.01317 -0.01325,0.02239 -0.01788,0.02107 -0.01523,-0.0053 -0.01257,-0.02305 0.0067,-0.05202 0.0212,-0.03095 0.06763,-0.121819 0.06763,-0.131697 0,-0.0033 -0.0045,-0.006 -0.0099,-0.006 -0.01325,0 -0.01257,-0.0013 0.0067,-0.03885 0.0159,-0.03095 0.0159,-0.03227 0.0034,-0.03556 -0.02058,-0.0053 -0.01658,-0.03226 0.01725,-0.130381 0.03316,-0.09811 0.05902,-0.146843 0.09748,-0.188988 0.0146,-0.01513 0.02255,-0.02766 0.01788,-0.02766 -0.0045,0 -0.02385,0.01646 -0.04246,0.03622 -0.03846,0.04148 -0.05702,0.04873 -0.04043,0.01581 0.0067,-0.01186 0.0093,-0.027 0.0067,-0.03753 -0.0028,-0.01449 0.0022,-0.02502 0.02983,-0.05729 0.04444,-0.05334 0.07957,-0.103385 0.07957,-0.11392 0,-0.01646 -0.01658,-0.004 -0.03648,0.027 -0.01787,0.02831 -0.03913,0.04346 -0.04708,0.03556 -0.0067,-0.0066 0.03648,-0.08099 0.05968,-0.102724 0.02785,-0.02634 0.02916,-0.03359 0.0099,-0.04544 -0.01393,-0.0092 -0.01393,-0.0092 0.006,-0.02964 0.01658,-0.01712 0.01923,-0.0237 0.01325,-0.03293 -0.0093,-0.01646 -0.0017,-0.03951 0.02521,-0.08231 0.01325,-0.01975 0.02521,-0.04675 0.02718,-0.05993 0.0028,-0.01317 0.01393,-0.0349 0.02588,-0.04938 0.01196,-0.01383 0.03445,-0.04939 0.04974,-0.07902 0.01523,-0.02897 0.03648,-0.06585 0.04708,-0.08165 0.01788,-0.02568 0.01725,-0.03951 -0.0011,-0.01779 -0.01128,0.01383 -0.01991,0.0125 -0.01991,-0.0033 0,-0.0066 0.01196,-0.02239 0.0265,-0.03424 0.01793,-0.01383 0.0265,-0.02568 0.02588,-0.0349 -0.0011,-0.0086 0.01257,-0.02831 0.04111,-0.05663 0.02853,-0.02964 0.06034,-0.07441 0.0988,-0.138284 0.06565,-0.110626 0.125323,-0.177135 0.171076,-0.190963 0.03315,-0.0099 0.03648,-0.0237 0.006,-0.027 l -0.0212,-0.002 0.02983,-0.01581 c 0.02453,-0.01317 0.02785,-0.01646 0.01793,-0.01975 -0.01128,-0.004 -0.01128,-0.0052 -0.0022,-0.01316 0.006,-0.0052 0.02718,-0.03227 0.04708,-0.05993 0.03981,-0.05729 0.07625,-0.09482 0.105428,-0.109969 0.01393,-0.0072 0.01658,-0.01186 0.01128,-0.01712 -0.01393,-0.01383 -0.0073,-0.0237 0.03913,-0.06124 0.04111,-0.03293 0.04641,-0.03951 0.04641,-0.05927 0,-0.01844 0.0039,-0.02502 0.02453,-0.03753 0.01393,-0.0086 0.03648,-0.01975 0.04973,-0.02502 0.01393,-0.0046 0.02521,-0.0125 0.02521,-0.01777 0,-0.0046 -0.0034,-0.0066 -0.0073,-0.004 -0.01991,0.01186 0.0034,-0.01581 0.06299,-0.07639 0.03581,-0.03688 0.07692,-0.07243 0.09085,-0.07968 0.01523,-0.0072 0.02386,-0.01581 0.02188,-0.02107 -0.0011,-0.0046 0.0146,-0.02305 0.03846,-0.04215 0.02323,-0.01844 0.07161,-0.06058 0.108079,-0.09416 0.07891,-0.07243 0.143226,-0.118528 0.19296,-0.138942 0.02785,-0.01186 0.03581,-0.01844 0.03581,-0.02897 0,-0.0092 0.0067,-0.01712 0.01726,-0.02239 0.0099,-0.004 0.04043,-0.02502 0.0683,-0.04675 0.05238,-0.04017 0.10808,-0.06914 0.144551,-0.07638 0.01393,-0.0027 0.02188,-0.0079 0.02188,-0.01513 5.63e-4,-0.03029 0.06697,-0.07309 0.115375,-0.07309 0.01726,0 0.02385,-0.01449 0.0106,-0.02305 -0.0146,-0.0086 -0.005,-0.01513 0.02853,-0.0191 0.04376,-0.0059 0.05835,-0.01317 0.03648,-0.01975 l -0.01523,-0.0046 0.01658,-0.0052 c 0.0093,-0.0033 0.04573,-0.02041 0.08155,-0.03951 0.03513,-0.01844 0.07095,-0.03359 0.07824,-0.03359 0.01923,0 0.03914,-0.01186 0.03914,-0.02305 0,-0.0125 0.01658,-0.02041 0.05436,-0.02568 0.02453,-0.004 0.06101,-0.02437 0.19362,-0.112603 0.09018,-0.05926 0.1724,-0.115236 0.183673,-0.124455 0.0146,-0.01185 0.02785,-0.01711 0.04641,-0.01711 0.02453,0 0.0265,-0.0013 0.02453,-0.01844 -0.0011,-0.01383 0.0011,-0.01844 0.01257,-0.01975 0.01257,-0.002 0.01523,7e-4 0.01523,0.01581 0,0.01449 0.0022,0.01646 0.008,0.01053 0.0045,-0.0046 0.01523,-0.0079 0.02385,-0.0079 0.01393,0 0.0146,-7e-4 0.005,-0.01053 -0.006,-0.0052 -0.0106,-0.01317 -0.0106,-0.01646 0,-0.0033 0.01923,-0.01449 0.04308,-0.02502 0.03846,-0.01777 0.04308,-0.02173 0.03975,-0.0349 -0.0034,-0.01317 0.0093,-0.02897 0.08089,-0.101409 0.06631,-0.06716 0.09151,-0.0889 0.11604,-0.09812 0.03316,-0.01186 0.04178,-0.02305 0.01855,-0.02305 -0.01726,0 -0.01658,-0.0072 0.0039,-0.03753 0.02983,-0.04346 0.05306,-0.09416 0.08885,-0.196229 0.03913,-0.112603 0.07228,-0.187013 0.09681,-0.218622 0.0093,-0.01185 0.01325,-0.02173 0.0099,-0.02173 -0.01523,0 -0.006,-0.01975 0.01923,-0.04148 0.0265,-0.02239 0.03513,-0.04083 0.01658,-0.03359 -0.01128,0.0046 -0.01393,-0.01383 -0.0034,-0.02041 0.0039,-0.002 0.01128,-0.01317 0.01725,-0.02437 0.0093,-0.01779 0.0093,-0.02041 -0.0011,-0.02831 -0.01128,-0.0079 -0.0106,-0.0112 0.01196,-0.05993 0.01325,-0.02897 0.03383,-0.07573 0.04444,-0.105358 0.01128,-0.02897 0.03119,-0.06519 0.04376,-0.07968 0.01726,-0.02041 0.02323,-0.03292 0.02323,-0.05136 0,-0.01646 0.005,-0.03095 0.01658,-0.04412 0.0093,-0.01053 0.0212,-0.03622 0.0265,-0.05663 0.0159,-0.05729 0.01658,-0.05795 0.09283,-0.148162 0.08488,-0.101408 0.13063,-0.146845 0.179034,-0.179112 0.0212,-0.01383 0.03648,-0.02831 0.03648,-0.03556 0,-0.01449 0.0159,-0.02897 0.08289,-0.07441 0.0663,-0.04544 0.100788,-0.06322 0.135269,-0.06848 0.01794,-0.0027 0.02785,-0.0086 0.03051,-0.01646 0.006,-0.01844 0.0411,-0.04412 0.0663,-0.04938 0.02255,-0.004 0.03316,-0.02239 0.01325,-0.02239 -0.005,0 -0.0099,-0.0046 -0.0099,-0.0099 0,-0.0053 0.006,-0.0099 0.01325,-0.0099 0.01991,0 0.04641,-0.01513 0.08687,-0.04939 0.01991,-0.01646 0.04973,-0.03556 0.06697,-0.04148 0.01793,-0.006 0.0318,-0.01449 0.0318,-0.0191 0,-0.0086 0.0086,-0.01186 0.06232,-0.02107 0.03778,-0.0072 0.05702,-0.01646 0.05702,-0.02766 0,-0.0092 -0.02058,-0.0072 -0.05571,0.0046 -0.01726,0.0059 -0.03315,0.0086 -0.0358,0.0059 -0.0028,-0.0027 -0.0011,-0.0066 0.0034,-0.0079 0.0039,-0.0013 0.04308,-0.0237 0.0862,-0.04939 0.10742,-0.06322 0.161795,-0.09021 0.225452,-0.110626 0.04376,-0.01383 0.05171,-0.01844 0.04308,-0.02437 -0.0099,-0.0059 -0.008,-0.0086 0.01257,-0.01712 0.05171,-0.02173 0.125322,-0.04412 0.143226,-0.04412 0.01523,0 0.02058,-0.004 0.0265,-0.01975 0.0093,-0.0237 0.04178,-0.03951 0.08222,-0.03951 0.01523,0 0.02588,-0.002 0.02385,-0.0046 -0.0099,-0.0099 0.01196,-0.02173 0.03981,-0.02173 0.0265,0 0.02916,-0.0013 0.02521,-0.01316 -0.0034,-0.0112 -0.0011,-0.01317 0.0146,-0.01317 0.0099,0 0.03051,0.0033 0.04511,0.0066 0.03118,0.0072 0.0358,0.004 0.02385,-0.01383 -0.0045,-0.0079 -0.0073,-0.01513 -0.006,-0.01646 0.0011,-7e-4 0.03051,0.0013 0.06498,0.0052 0.04844,0.0053 0.06962,0.0053 0.09284,-0.0013 l 0.02983,-0.0079 -0.02255,-0.0079 c -0.01257,-0.004 -0.02386,-0.01053 -0.02521,-0.01449 -0.0022,-0.006 0.01855,-0.0072 0.07227,-0.0066 0.063,7e-4 0.07891,-0.0013 0.09814,-0.01186 0.01991,-0.0112 0.0212,-0.01383 0.0099,-0.01581 -0.0073,-0.0013 -0.01726,-0.0059 -0.02255,-0.01053 -0.0073,-0.0052 0.0086,-0.0079 0.06962,-0.0112 0.06565,-0.0033 0.09283,-0.0086 0.16511,-0.03029 0.123998,-0.03819 0.122673,-0.03753 0.122673,-0.02173 0,0.01513 0.0039,0.01581 0.0265,0.0033 0.02188,-0.0125 0.06232,-0.0125 0.0862,0 0.01855,0.0099 0.01991,0.0092 0.01991,-0.0033 0,-0.01448 0.0099,-0.01646 0.02718,-0.0066 z"
         id="path885"
         style="fill:#000000;stroke:none;stroke-width:0.00066078" />
      <path
         d="m 88.401054,51.55672 c -1.148879,0.164627 -1.485196,0.23048 -2.034352,0.399814 -0.50447,0.155223 -0.564443,0.16698 -0.956026,0.194026 -0.229307,0.0153 -0.272813,0.0153 -0.272813,-0.0013 0,-0.0071 0.02703,-0.05056 0.05879,-0.09642 l 0.05997,-0.08467 -0.03293,-0.0035 c -0.04939,-0.0071 -0.506823,0.06703 -0.690266,0.109363 -0.03881,0.0094 -0.08232,0.01763 -0.09525,0.01763 -0.0141,0 -0.05762,-0.03528 -0.10936,-0.09055 l -0.08467,-0.09055 -0.05057,0.04704 c -0.07761,0.07291 -0.08114,0.07526 -0.209314,0.09407 -0.06703,0.01057 -0.262233,0.04704 -0.433916,0.08231 -0.584436,0.11877 -0.532696,0.11289 -1.111249,0.123473 -0.463317,0.0071 -0.52799,0.01057 -0.61736,0.03293 -0.05527,0.01293 -0.163456,0.0294 -0.241066,0.03645 -0.399813,0.03645 -0.390407,0.0341 -0.690267,0.168156 -0.236363,0.105833 -0.470369,0.224603 -0.563269,0.284573 -0.06585,0.04233 -0.08231,0.05997 -0.09878,0.104657 -0.02703,0.07173 -0.01763,0.15875 0.0247,0.223427 0.07996,0.12112 0.339843,0.411573 0.379823,0.424509 0.01057,0.0035 0.03173,0.03057 0.04586,0.05997 0.0141,0.0294 0.04704,0.08114 0.07173,0.114063 0.0247,0.0341 0.06232,0.0929 0.08114,0.13288 0.02,0.03998 0.0635,0.09878 0.09642,0.130527 0.148166,0.145816 0.248123,0.161103 0.836083,0.131703 0.296333,-0.0153 0.458613,-0.0035 0.733779,0.05527 0.243417,0.05174 0.37512,0.07408 0.555036,0.0929 0.09525,0.0106 0.249297,0.03528 0.341017,0.05409 0.1564,0.03173 0.203436,0.0341 0.203436,0.0094 0,-0.01647 0.02703,-0.01293 0.10113,0.01763 0.03763,0.0153 0.104657,0.0341 0.148167,0.04116 0.07055,0.01177 0.08349,0.01057 0.12347,-0.0094 0.07526,-0.03881 0.212843,-0.05292 0.47978,-0.05056 0.285749,0.0035 0.478599,0.01763 0.570323,0.04116 0.03645,0.0094 0.128176,0.02117 0.205786,0.0247 0.19638,0.01177 0.309267,0.0294 0.364537,0.05644 0.04116,0.02117 0.05292,0.02233 0.0976,0.01057 0.02703,-0.0071 0.0635,-0.01293 0.07996,-0.01293 0.03998,0 0.19403,0.08114 0.276343,0.145814 0.06232,0.04821 0.07291,0.06703 0.183443,0.28575 0.06468,0.128176 0.13288,0.269286 0.149343,0.312796 0.01763,0.04469 0.05527,0.11877 0.08349,0.16463 0.03528,0.05762 0.05645,0.10701 0.06468,0.155223 0.0294,0.162277 0.11877,0.37159 0.249296,0.583257 0.09995,0.15875 0.142287,0.244593 0.17286,0.344546 0.0294,0.09643 0.03057,0.1564 0.0059,0.437447 -0.0153,0.176386 -0.0153,0.238713 -0.0047,0.342193 0.03057,0.28575 0.0294,0.32573 -0.0047,0.415103 -0.03881,0.09878 -0.09407,0.163453 -0.241063,0.27987 -0.135233,0.107007 -0.330437,0.29986 -0.330437,0.32573 0,0.0094 -0.0188,0.05527 -0.04233,0.10113 -0.07526,0.150517 -0.04939,0.174037 0.198733,0.174037 0.148167,0.0013 0.15287,0 0.309267,-0.05292 0.11877,-0.03998 0.17286,-0.05174 0.21402,-0.04939 l 0.05527,0.0035 0.0035,0.05292 c 0.0059,0.08114 0.0153,0.08702 0.131703,0.07879 0.145813,-0.0094 0.3516,-0.07761 0.402166,-0.13288 0.0294,-0.03293 0.07879,-0.136407 0.11524,-0.243417 l 0.03293,-0.09643 0.0013,0.111714 c 0,0.06232 -0.0071,0.148166 -0.01763,0.194026 -0.0294,0.127 -0.03177,0.14464 -0.02353,0.17639 0.01057,0.03998 0.06703,0.06703 0.134057,0.06232 l 0.05527,-0.0035 0.03528,0.105833 c 0.04233,0.125824 0.0588,0.13876 0.162277,0.130527 0.08467,-0.0059 0.11877,-0.02823 0.15052,-0.09525 0.02703,-0.05644 0.07643,-0.09995 0.112886,-0.09995 0.01293,0 0.06233,0.01293 0.109364,0.0294 0.04704,0.01647 0.09643,0.0294 0.108183,0.0294 0.03763,0 0.134057,-0.05527 0.174037,-0.10113 0.03645,-0.04233 0.03763,-0.04704 0.03057,-0.11524 -0.0035,-0.03998 -0.01057,-0.09172 -0.0141,-0.116417 l -0.0071,-0.04351 h 0.04704 c 0.02587,0 0.0635,-0.0035 0.08467,-0.0071 0.04233,-0.0094 0.111713,-0.07408 0.122296,-0.116417 0.0094,-0.03763 -0.03763,-0.154043 -0.0929,-0.231657 -0.05174,-0.07055 -0.0976,-0.1611 -0.14699,-0.284573 -0.04704,-0.118766 -0.05997,-0.14464 -0.111713,-0.211666 -0.02353,-0.03173 -0.03881,-0.06115 -0.03293,-0.06938 0.02823,-0.04704 0.32573,-0.465667 0.38923,-0.549157 0.04351,-0.05409 0.165807,-0.189323 0.272817,-0.29986 0.296333,-0.304566 0.352776,-0.403343 0.352776,-0.624416 0,-0.122297 0.0059,-0.128177 0.127,-0.117593 0.04939,0.0047 0.135233,0.0106 0.1905,0.0141 0.114066,0.0082 0.577379,-0.0247 0.632649,-0.04351 0.03528,-0.01177 0.06115,-0.0047 0.122297,0.03881 0.01763,0.01293 0.03528,0.0071 0.108183,-0.02823 0.04939,-0.0247 0.122297,-0.04939 0.162277,-0.05644 0.04116,-0.0059 0.143463,-0.03177 0.22813,-0.05762 0.21637,-0.06585 0.613833,-0.142287 0.736129,-0.142287 0.03645,0 0.04704,0.0059 0.06115,0.0341 0.07996,0.154044 0.171683,1.13947 0.171683,1.84973 v 0.266933 l -0.07056,0.04821 c -0.03998,0.02703 -0.116417,0.06938 -0.170507,0.09408 -0.05409,0.0247 -0.13053,0.06703 -0.169333,0.0929 -0.03881,0.02703 -0.07526,0.04821 -0.08232,0.04821 -0.02117,0 -0.09878,0.07526 -0.13288,0.128176 -0.05409,0.08702 -0.03998,0.124647 0.05997,0.159924 0.02823,0.0094 0.07173,0.03645 0.09643,0.05762 0.06703,0.06115 0.10348,0.0635 0.252824,0.01293 0.07056,-0.02353 0.148166,-0.05527 0.174036,-0.07173 0.05762,-0.03881 0.08937,-0.02703 0.125823,0.04468 0.0141,0.02823 0.03645,0.06585 0.04939,0.08467 l 0.02353,0.0341 0.107006,-0.0071 c 0.13641,-0.0082 0.33749,-0.04939 0.399817,-0.08114 0.02587,-0.0141 0.110536,-0.08584 0.18697,-0.1611 l 0.138759,-0.136407 0.0106,-0.17051 c 0.01647,-0.235186 0.03998,-0.37865 0.108187,-0.65264 0.03177,-0.12935 0.07055,-0.298683 0.08702,-0.376296 0.0341,-0.16463 0.14699,-0.589137 0.21637,-0.817267 0.04116,-0.132879 0.04939,-0.179916 0.05409,-0.285749 0.0035,-0.102307 0.01177,-0.149344 0.04233,-0.23989 0.04469,-0.134054 0.09055,-0.201084 0.1564,-0.223427 0.07173,-0.02587 0.263407,-0.07173 0.332787,-0.07996 0.05879,-0.0082 0.06232,-0.0059 0.0929,0.02823 0.05056,0.05645 0.15287,0.244594 0.191677,0.348074 0.0588,0.157576 0.10348,0.235186 0.209313,0.36101 0.114067,0.137583 0.312796,0.362186 0.49624,0.562093 0.16228,0.17639 0.249296,0.277516 0.343373,0.399813 0.105833,0.13876 0.286923,0.409223 0.309266,0.463316 0.02703,0.06468 0.03528,0.18697 0.01763,0.28575 -0.02117,0.127 -0.06938,0.19873 -0.35513,0.524463 -0.155223,0.176387 -0.209317,0.255174 -0.209317,0.30574 0,0.08584 0.09996,0.116417 0.198733,0.06115 0.02703,-0.01647 0.0588,-0.0294 0.0682,-0.0294 0.0094,0 0.04586,0.02117 0.08231,0.04586 0.115243,0.08349 0.235187,0.08702 0.379826,0.01177 0.0388,-0.02 0.09172,-0.03881 0.11759,-0.04233 0.04469,-0.0059 0.04939,-0.0035 0.115244,0.06468 0.07408,0.07643 0.11759,0.09642 0.219896,0.09642 0.07173,0 0.154047,-0.02117 0.249297,-0.06467 0.09995,-0.04469 0.12112,-0.07056 0.13288,-0.16228 0.01177,-0.09995 0.01647,-0.105833 0.06938,-0.0976 0.101129,0.0188 0.132879,0.02117 0.159923,0.0141 0.04116,-0.01057 0.11289,-0.07643 0.131706,-0.122297 0.0153,-0.03645 0.01293,-0.04468 -0.04469,-0.176386 -0.129354,-0.29163 -0.221073,-0.610307 -0.31162,-1.075973 -0.137583,-0.719667 -0.13523,-0.703203 -0.145813,-0.96073 -0.01293,-0.319853 -0.03763,-0.41275 -0.210494,-0.820796 -0.149339,-0.351603 -0.201083,-0.555037 -0.201083,-0.794927 0,-0.08114 0.0047,-0.148166 0.01057,-0.148166 0.0059,0 0.09878,0.08467 0.20814,0.189323 0.232833,0.221073 0.36101,0.328083 0.393933,0.328083 0.03057,0 0.151696,0.11524 0.217546,0.20814 0.0588,0.08114 0.122297,0.214017 0.149344,0.309267 0.02587,0.09055 0.04116,0.211666 0.05527,0.423333 0.0059,0.09995 0.0153,0.19403 0.0188,0.209317 0.0071,0.02587 0.03998,0.03763 0.03998,0.01293 0,-0.0059 0.0059,-0.0082 0.01177,-0.0047 0.0071,0.0035 0.01177,0.0247 0.01177,0.04586 0,0.09878 0.07761,0.330433 0.129353,0.38923 0.01177,0.01293 0.04586,0.07056 0.07643,0.129353 0.0588,0.11171 0.154046,0.264584 0.16463,0.264584 0.0035,0 0.0035,-0.0188 -0.0013,-0.04116 -0.0035,-0.02233 -0.0047,-0.04116 -0.0013,-0.04116 0.0035,0 0.03645,0.04939 0.07173,0.108187 0.03528,0.05997 0.08702,0.136406 0.115243,0.170506 0.02823,0.0341 0.07996,0.0976 0.116417,0.141113 0.03645,0.04351 0.08114,0.108184 0.09878,0.143464 0.02233,0.04586 0.03528,0.0588 0.04468,0.04939 0.02587,-0.02587 -0.01647,-0.25047 -0.138757,-0.734953 -0.136406,-0.53975 -0.252823,-1.094786 -0.252823,-1.201796 0,-0.07055 -0.05057,-0.283397 -0.09525,-0.39511 -0.01293,-0.03293 -0.02117,-0.06232 -0.01763,-0.06468 0.0023,-0.0023 0.0235,0.01177 0.04704,0.03173 0.02353,0.02117 0.04233,0.0341 0.04233,0.03057 0,-0.0153 -0.07526,-0.155224 -0.13523,-0.254 -0.12112,-0.19403 -0.477427,-0.579733 -0.699676,-0.754946 -0.341017,-0.269287 -0.57973,-0.607954 -0.717313,-1.020703 -0.08467,-0.25047 -0.14464,-0.346897 -0.3175,-0.51035 -0.189323,-0.177567 -0.295157,-0.243417 -0.552687,-0.345723 -0.214016,-0.08584 -0.373943,-0.136407 -0.652636,-0.20814 -0.135233,-0.03528 -0.299863,-0.07996 -0.364536,-0.09995 -0.163453,-0.05056 -0.318677,-0.07526 -0.833733,-0.12935 -0.429213,-0.04469 -0.459786,-0.04704 -0.823146,-0.04586 -0.20814,0.0013 -0.52564,0.0047 -0.70673,0.0094 -0.389233,0.0082 -0.683213,-0.0013 -1.028936,-0.03293 -0.525639,-0.04939 -1.061859,-0.07644 -1.758009,-0.0882 l -0.329256,-0.0059 z m -0.16228,4.399135 c 0.0071,0.04233 -0.0188,0.129353 -0.06938,0.23636 -0.04821,0.103483 -0.06115,0.09643 -0.05292,-0.0294 0.0082,-0.105833 0.0294,-0.201083 0.06233,-0.27987 l 0.02,-0.04586 0.01647,0.04116 c 0.01057,0.02233 0.02,0.05762 0.02353,0.07761 z"
         id="path899"
         style="fill:#000000;stroke:none;stroke-width:0.00117592" />
    </g>
  </g>
</svg>
