<?xml version="1.0" standalone="no"?>
<!DOCTYPE svg PUBLIC "-//W3C//DTD SVG 20010904//EN"
 "http://www.w3.org/TR/2001/REC-SVG-20010904/DTD/svg10.dtd">
<svg version="1.0" xmlns="http://www.w3.org/2000/svg"
 width="1536.000000pt" height="627.000000pt" viewBox="0 0 1536.000000 627.000000"
 preserveAspectRatio="xMidYMid meet">
<metadata>
Created by potrace 1.16, written by Peter Selinger 2001-2019
</metadata>
<g transform="translate(0.000000,627.000000) scale(0.100000,-0.100000)"
fill="#000000" stroke="none">
<path d="M1883 6250 c-18 -10 -40 -34 -50 -52 -27 -50 -23 -178 10 -298 47
-168 31 -266 -56 -330 -23 -17 -80 -49 -126 -72 -175 -84 -273 -154 -449 -321
-143 -137 -239 -212 -447 -352 -279 -188 -528 -388 -665 -531 -85 -90 -105
-122 -96 -157 19 -79 257 -344 416 -463 137 -103 233 -128 351 -89 30 10 144
58 254 108 392 176 678 280 979 357 265 67 385 84 606 84 271 0 390 -25 805
-169 195 -68 874 -318 1079 -397 l89 -34 61 -113 c34 -62 102 -168 151 -237
189 -261 200 -288 200 -479 0 -128 -3 -149 -33 -255 -106 -370 -364 -856 -621
-1170 -24 -30 -109 -120 -187 -200 -171 -175 -214 -228 -289 -356 -95 -161
-174 -225 -328 -263 -129 -32 -167 -64 -167 -137 0 -89 39 -103 288 -104 340
0 544 47 660 154 49 45 81 103 107 190 33 118 119 261 273 457 102 131 237
262 372 361 245 178 496 461 609 684 17 34 51 121 76 194 50 145 70 190 86
190 5 0 29 -10 52 -21 284 -145 384 -408 428 -1134 6 -104 12 -293 13 -420 1
-201 -1 -236 -17 -277 -38 -99 -206 -214 -435 -299 -101 -38 -154 -84 -172
-149 -15 -56 1 -92 45 -101 83 -18 554 -1 686 25 131 25 198 69 228 149 6 15
15 81 20 148 8 90 16 132 31 162 28 53 52 170 95 466 46 317 76 475 130 701
68 284 85 397 85 580 l0 158 142 6 c79 3 312 11 518 16 906 25 1334 56 1860
136 267 41 694 97 795 106 47 4 34 51 115 -427 72 -432 90 -589 90 -786 0
-250 -40 -390 -162 -566 -167 -243 -434 -428 -733 -507 -168 -45 -206 -59
-259 -95 -54 -37 -80 -89 -80 -160 0 -72 13 -81 112 -74 71 5 80 3 112 -21 83
-60 87 -61 220 -60 136 1 278 28 406 80 129 51 182 90 240 175 35 52 163 151
286 223 46 27 126 73 178 104 52 30 125 77 162 104 56 41 69 57 82 96 24 74
53 252 71 437 9 94 25 258 36 365 34 347 92 662 140 765 34 73 53 62 119 -70
126 -253 414 -610 800 -995 141 -140 279 -286 308 -324 147 -196 153 -307 21
-432 -104 -97 -218 -145 -405 -170 -65 -8 -130 -22 -146 -30 -38 -20 -58 -69
-58 -143 0 -57 2 -61 31 -76 56 -29 533 -45 729 -25 166 18 262 57 295 121 9
16 20 63 24 103 11 96 44 166 118 250 66 74 111 148 124 205 38 164 -152 517
-520 969 -209 257 -257 335 -292 471 -29 111 -28 331 1 465 29 131 88 301 161
461 121 263 146 287 309 293 118 5 235 -21 357 -78 258 -121 399 -283 607
-700 125 -252 204 -431 453 -1040 306 -746 300 -734 363 -802 147 -161 557
-445 593 -409 19 19 -14 91 -100 216 -278 405 -269 390 -378 668 -84 214 -306
736 -526 1232 -179 406 -279 652 -279 684 0 26 -127 272 -224 436 -296 497
-767 953 -1272 1229 -290 159 -748 337 -1007 390 -42 9 -130 21 -195 26 -142
12 -242 35 -432 100 -304 103 -875 230 -1540 340 -651 108 -1037 138 -1594
126 -545 -12 -894 -43 -1392 -121 -462 -73 -775 -98 -1244 -97 -609 0 -1033
45 -1640 171 -185 39 -447 76 -670 96 -498 44 -492 42 -648 206 -148 155 -247
200 -329 149z"/>
</g>
</svg>
