<?xml version="1.0" standalone="no"?>
<!DOCTYPE svg PUBLIC "-//W3C//DTD SVG 20010904//EN"
 "http://www.w3.org/TR/2001/REC-SVG-20010904/DTD/svg10.dtd">
<svg version="1.0" xmlns="http://www.w3.org/2000/svg"
 width="1536.000000pt" height="958.000000pt" viewBox="0 0 1536.000000 958.000000"
 preserveAspectRatio="xMidYMid meet">
<metadata>
Created by potrace 1.16, written by Peter Selinger 2001-2019
</metadata>
<g transform="translate(0.000000,958.000000) scale(0.100000,-0.100000)"
fill="#000000" stroke="none">
<path d="M7085 9571 l-240 -6 -77 -43 c-64 -36 -94 -46 -174 -58 -173 -26
-403 -90 -568 -158 -45 -19 -105 -41 -135 -50 -61 -18 -159 -76 -276 -165 -44
-34 -133 -91 -197 -127 -163 -91 -235 -144 -368 -270 -63 -60 -160 -148 -215
-195 -122 -105 -162 -148 -222 -242 -28 -44 -97 -122 -178 -202 -182 -179
-287 -331 -487 -705 -57 -107 -148 -265 -202 -350 -184 -294 -404 -766 -450
-967 -9 -39 -23 -147 -31 -240 -8 -92 -20 -193 -26 -223 -14 -67 -62 -188
-167 -423 -132 -293 -141 -298 -285 -154 -93 94 -346 285 -413 313 -77 32
-109 -1 -125 -127 -10 -78 -8 -128 14 -374 3 -25 -217 -159 -303 -185 -78 -23
-164 -79 -185 -120 -20 -39 -33 -45 -158 -74 -59 -14 -122 -32 -142 -41 -20
-8 -83 -28 -140 -44 -222 -65 -375 -156 -562 -335 -74 -71 -141 -143 -150
-160 -9 -17 -31 -48 -49 -69 -19 -20 -34 -44 -34 -52 0 -44 -126 -143 -280
-220 -109 -55 -188 -113 -215 -160 -34 -56 -48 -165 -43 -330 l3 -142 40 -54
c23 -30 49 -67 59 -83 22 -34 133 -144 199 -197 26 -21 72 -45 102 -53 30 -9
60 -25 67 -35 22 -30 54 -41 125 -42 116 -1 156 -11 206 -55 25 -22 98 -69
162 -104 65 -36 136 -75 158 -87 22 -13 53 -23 68 -23 16 0 50 -8 76 -18 43
-15 90 -17 418 -17 l370 1 136 36 c167 45 307 97 391 144 35 20 102 56 149 79
l86 44 54 -47 c75 -66 128 -106 166 -126 33 -16 153 -25 626 -45 115 -5 211
-11 214 -14 11 -12 -53 -104 -113 -162 -34 -33 -106 -103 -160 -156 -55 -53
-133 -122 -174 -153 -158 -119 -431 -396 -468 -473 -13 -26 -27 -36 -76 -53
-34 -12 -110 -47 -171 -78 -92 -48 -116 -65 -145 -106 -19 -27 -67 -88 -105
-135 -39 -47 -78 -97 -88 -111 -23 -33 -22 -85 3 -110 26 -26 72 -26 202 2 98
21 126 22 583 23 520 0 539 2 646 56 69 34 164 119 177 158 8 22 7 36 -4 56
-8 15 -14 36 -14 46 0 10 48 67 108 127 83 85 142 132 267 216 158 106 388
281 579 439 54 45 113 90 132 100 39 22 144 35 144 19 0 -17 -44 -66 -225
-253 -94 -97 -185 -200 -203 -231 -45 -76 -98 -199 -116 -273 -12 -44 -25 -68
-49 -90 -125 -113 -298 -257 -352 -293 -34 -23 -95 -71 -135 -107 -40 -36 -80
-65 -89 -65 -20 0 -167 -83 -198 -112 -31 -29 -40 -81 -19 -113 16 -25 69 -45
119 -45 26 0 27 -1 27 -59 0 -41 5 -65 18 -80 36 -44 182 -37 300 15 75 33 82
32 82 -17 0 -41 14 -78 34 -91 21 -15 107 -8 168 13 35 12 133 52 218 90 l155
68 5 -50 c9 -78 32 -94 134 -94 73 0 86 3 117 26 45 34 80 45 225 68 67 10
135 26 151 35 47 24 153 145 201 228 48 84 82 174 82 216 0 15 7 37 15 48 8
13 17 60 21 115 4 52 13 112 21 133 22 63 84 137 182 217 88 71 93 77 140 175
27 55 64 119 83 140 19 21 56 74 82 117 26 43 60 85 74 94 15 9 56 47 92 84
104 106 54 100 875 109 761 9 844 12 898 35 83 34 106 20 218 -140 34 -49 99
-135 143 -190 l81 -100 0 -155 c-1 -151 -1 -157 -32 -230 -17 -41 -39 -115
-48 -165 -9 -49 -36 -139 -60 -200 -24 -60 -46 -121 -49 -135 -4 -22 -53 -94
-136 -202 -12 -16 -62 -56 -111 -89 -141 -97 -189 -168 -173 -256 11 -59 37
-77 100 -70 30 3 80 18 112 32 132 62 231 82 261 53 21 -22 180 -16 227 9 21
11 67 35 102 52 34 18 86 36 115 40 28 4 71 17 94 29 58 30 84 28 135 -13 98
-79 123 -96 160 -106 55 -14 89 -1 110 44 11 22 31 42 54 53 64 30 69 49 67
221 -3 155 -17 280 -34 297 -5 6 -9 20 -9 31 0 28 93 218 119 244 11 11 27 33
35 48 8 15 42 64 75 108 106 140 157 262 176 423 9 83 10 84 62 61 57 -24 167
-52 313 -79 152 -28 174 -35 208 -74 35 -40 147 -239 173 -306 33 -87 19 -301
-21 -320 -8 -4 -37 -15 -65 -25 -291 -103 -355 -128 -404 -158 -76 -47 -113
-101 -119 -172 -3 -32 1 -67 8 -85 15 -37 84 -100 108 -100 10 0 56 24 103 54
137 87 222 106 281 64 41 -28 110 -34 178 -14 42 13 131 19 365 27 345 11 417
18 480 49 67 32 169 131 193 188 29 67 32 103 42 497 8 341 9 352 35 435 52
165 43 343 -21 420 -38 45 -67 56 -191 74 -228 33 -396 121 -578 302 -104 103
-138 148 -131 172 8 25 118 89 167 97 21 4 39 10 39 15 0 12 110 58 176 73 34
8 71 23 82 33 39 33 193 96 347 140 227 67 331 103 371 130 53 36 144 80 191
93 32 9 208 86 245 107 4 3 25 -27 48 -66 23 -39 74 -106 115 -149 41 -44 89
-106 106 -138 33 -57 157 -188 274 -289 43 -36 76 -78 115 -144 79 -136 129
-194 196 -225 54 -26 193 -148 235 -206 11 -15 24 -51 29 -81 15 -80 82 -169
277 -368 169 -175 193 -207 193 -271 0 -9 14 -43 31 -77 34 -69 85 -112 159
-137 56 -19 67 -30 110 -109 17 -33 60 -96 94 -140 67 -86 145 -200 190 -279
15 -27 76 -97 135 -157 128 -131 197 -170 260 -151 93 27 108 94 66 291 -16
77 -29 182 -35 275 -6 118 -12 160 -29 197 -12 26 -33 97 -46 159 -14 64 -43
151 -66 203 -23 50 -60 138 -84 196 -23 58 -65 157 -93 220 -27 63 -57 142
-67 175 -79 271 -190 556 -245 623 -16 20 -63 66 -104 101 l-74 64 -4 186 c-6
250 -30 316 -140 384 l-48 30 0 266 0 266 -60 69 c-65 76 -66 77 -75 236 -8
130 -17 167 -73 300 -24 58 -51 123 -59 145 -11 28 -19 125 -29 332 -11 247
-16 301 -35 355 -11 34 -27 96 -35 136 -8 42 -30 103 -51 145 l-38 72 -7 230
c-3 127 -11 247 -18 268 -6 20 -34 67 -62 104 -48 63 -50 68 -39 98 35 98 -16
430 -88 574 -17 32 -73 167 -126 300 -53 133 -109 269 -124 304 -57 125 -290
373 -644 687 -253 224 -333 285 -462 352 -54 28 -147 77 -205 110 -58 32 -152
77 -210 99 -58 22 -164 74 -237 115 -159 90 -173 96 -310 133 -60 16 -165 53
-233 81 -241 100 -299 117 -571 170 -145 28 -291 54 -324 57 -33 3 -95 19
-137 34 -98 36 -200 53 -463 79 -115 12 -264 33 -330 47 l-120 27 -905 1
c-498 1 -1013 -1 -1145 -4z"/>
</g>
</svg>
