<?xml version="1.0" standalone="no"?>
<!DOCTYPE svg PUBLIC "-//W3C//DTD SVG 20010904//EN"
 "http://www.w3.org/TR/2001/REC-SVG-20010904/DTD/svg10.dtd">
<svg version="1.0" xmlns="http://www.w3.org/2000/svg"
 width="1536.000000pt" height="626.000000pt" viewBox="0 0 1536.000000 626.000000"
 preserveAspectRatio="xMidYMid meet">
<metadata>
Created by potrace 1.16, written by Peter Selinger 2001-2019
</metadata>
<g transform="translate(0.000000,626.000000) scale(0.100000,-0.100000)"
fill="#000000" stroke="none">
<path d="M6965 6195 c-977 -140 -1263 -196 -1730 -340 -429 -132 -480 -142
-813 -165 -195 -13 -232 -13 -232 1 0 6 23 43 50 82 l51 72 -28 3 c-42 6 -431
-57 -587 -93 -33 -8 -70 -15 -81 -15 -12 0 -49 30 -93 77 l-72 77 -43 -40
c-66 -62 -69 -64 -178 -80 -57 -9 -223 -40 -369 -70 -497 -101 -453 -96 -945
-105 -394 -6 -449 -9 -525 -28 -47 -11 -139 -25 -205 -31 -340 -31 -332 -29
-587 -143 -201 -90 -400 -191 -479 -242 -56 -36 -70 -51 -84 -89 -23 -61 -15
-135 21 -190 68 -103 289 -350 323 -361 9 -3 27 -26 39 -51 12 -25 40 -69 61
-97 21 -29 53 -79 69 -113 17 -34 54 -84 82 -111 126 -124 211 -137 711 -112
252 13 390 3 624 -47 207 -44 319 -63 472 -79 81 -9 212 -30 290 -46 133 -27
173 -29 173 -8 0 14 23 11 86 -15 32 -13 89 -29 126 -35 60 -10 71 -9 105 8
64 33 181 45 408 43 243 -3 407 -15 485 -35 31 -8 109 -18 175 -21 167 -10
263 -25 310 -48 35 -18 45 -19 83 -9 23 6 54 11 68 11 34 0 165 -69 235 -124
53 -41 62 -57 156 -243 55 -109 113 -229 127 -266 15 -38 47 -101 71 -140 30
-49 48 -91 55 -132 25 -138 101 -316 212 -496 85 -135 121 -208 147 -293 25
-82 26 -133 5 -372 -13 -150 -13 -203 -4 -291 26 -243 25 -277 -4 -353 -33
-84 -80 -139 -205 -238 -115 -91 -281 -255 -281 -277 0 -8 -16 -47 -36 -86
-64 -128 -42 -148 169 -148 126 -1 130 0 263 45 101 34 147 44 182 42 l47 -3
3 -45 c5 -69 13 -74 112 -67 124 8 299 66 342 113 25 28 67 116 98 207 l28 82
1 -95 c0 -53 -6 -126 -15 -165 -25 -108 -27 -123 -20 -150 9 -34 57 -57 114
-53 l47 3 30 -90 c36 -107 50 -118 138 -111 72 5 101 24 128 81 23 48 65 85
96 85 11 0 53 -11 93 -25 40 -14 82 -25 92 -25 32 0 114 47 148 86 31 36 32
40 26 98 -3 34 -9 78 -12 99 l-6 37 40 0 c22 0 54 3 72 6 36 8 95 63 104 99 8
32 -32 131 -79 197 -44 60 -83 137 -125 242 -40 101 -51 123 -95 180 -20 27
-33 52 -28 59 24 40 277 396 331 467 37 46 141 161 232 255 252 259 300 343
300 531 0 104 5 109 108 100 42 -4 115 -9 162 -12 97 -7 491 21 538 37 30 10
52 4 104 -33 15 -11 30 -6 92 24 42 21 104 42 138 48 35 5 122 27 194 49 184
56 522 121 626 121 31 0 40 -5 52 -29 68 -131 146 -969 146 -1573 l0 -227 -60
-41 c-34 -23 -99 -59 -145 -80 -46 -21 -111 -57 -144 -79 -33 -23 -64 -41 -70
-41 -18 0 -84 -64 -113 -109 -46 -74 -34 -106 51 -136 24 -8 61 -31 82 -49 57
-52 88 -54 215 -11 60 20 126 47 148 61 49 33 76 23 107 -38 12 -24 31 -56 42
-72 l20 -29 91 6 c116 7 287 42 340 69 22 12 94 73 159 137 l118 116 9 145
c14 200 34 322 92 555 27 110 60 254 74 320 29 140 125 501 184 695 35 113 42
153 46 243 3 87 10 127 36 204 38 114 77 171 133 190 61 22 224 61 283 68 50
7 53 5 79 -24 43 -48 130 -208 163 -296 50 -134 88 -200 178 -307 97 -117 266
-308 422 -478 138 -150 212 -236 292 -340 90 -118 244 -348 263 -394 23 -55
30 -159 15 -243 -18 -108 -59 -169 -302 -446 -132 -150 -178 -217 -178 -260 0
-73 85 -99 169 -52 23 14 50 25 58 25 8 0 39 -18 70 -39 98 -71 200 -74 323
-10 33 17 78 33 100 36 38 5 42 3 98 -55 63 -65 100 -82 187 -82 61 0 131 18
212 55 85 38 103 60 113 138 10 85 14 90 59 83 86 -16 113 -18 136 -12 35 9
96 65 112 104 13 31 11 38 -38 150 -110 248 -188 519 -265 915 -117 612 -115
598 -124 817 -11 272 -32 351 -179 698 -127 299 -171 472 -171 676 0 69 4 126
9 126 5 0 84 -72 177 -161 198 -188 307 -279 335 -279 26 0 129 -98 185 -177
50 -69 104 -182 127 -263 22 -77 35 -180 47 -360 5 -85 13 -165 16 -178 6 -22
34 -32 34 -11 0 5 5 7 10 4 6 -3 10 -21 10 -39 0 -84 66 -281 110 -331 10 -11
39 -60 65 -110 50 -95 131 -225 140 -225 3 0 3 16 -1 35 -3 19 -4 35 -1 35 3
0 31 -42 61 -92 30 -51 74 -116 98 -145 24 -29 68 -83 99 -120 31 -37 69 -92
84 -122 19 -39 30 -50 38 -42 22 22 -14 213 -118 625 -116 459 -215 931 -215
1022 0 60 -43 241 -81 336 -11 28 -18 53 -15 55 2 2 20 -10 40 -27 20 -18 36
-29 36 -26 0 13 -64 132 -115 216 -103 165 -406 493 -595 642 -290 229 -493
517 -610 868 -72 213 -123 295 -270 434 -161 151 -251 207 -470 294 -182 73
-318 116 -555 177 -115 30 -255 68 -310 85 -139 43 -271 64 -709 110 -365 38
-391 40 -700 39 -177 -1 -447 -4 -601 -8 -331 -7 -581 1 -875 28 -447 42 -903
65 -1495 75 l-280 5 -450 -64z m-138 -3741 c6 -36 -16 -110 -59 -201 -41 -88
-52 -82 -45 25 7 90 25 171 53 238 l17 39 14 -35 c9 -19 17 -49 20 -66z"/>
</g>
</svg>
