<?xml version="1.0" standalone="no"?>
<!DOCTYPE svg PUBLIC "-//W3C//DTD SVG 20010904//EN"
 "http://www.w3.org/TR/2001/REC-SVG-20010904/DTD/svg10.dtd">
<svg version="1.0" xmlns="http://www.w3.org/2000/svg"
 width="1536.000000pt" height="1349.000000pt" viewBox="0 0 1536.000000 1349.000000"
 preserveAspectRatio="xMidYMid meet">
<metadata>
Created by potrace 1.16, written by Peter Selinger 2001-2019
</metadata>
<g transform="translate(0.000000,1349.000000) scale(0.100000,-0.100000)"
fill="#000000" stroke="none">
<path d="M2185 13480 c-214 -43 -363 -191 -411 -408 -13 -61 -16 -108 -11
-251 6 -180 19 -256 57 -331 l18 -36 -70 -54 c-181 -141 -326 -329 -518 -672
-61 -109 -88 -139 -200 -218 -136 -96 -156 -130 -221 -372 -15 -58 -73 -132
-363 -468 -325 -377 -431 -514 -453 -589 -33 -114 5 -230 106 -324 55 -50 63
-54 121 -60 173 -18 382 -9 830 39 129 13 354 29 500 34 146 5 423 21 615 35
443 31 525 32 550 5 16 -17 17 -25 7 -58 -17 -57 -63 -112 -123 -146 -48 -28
-58 -40 -96 -115 -46 -92 -64 -110 -107 -111 -22 0 -38 10 -65 41 -20 22 -55
61 -77 85 l-41 44 -76 0 c-42 0 -88 -5 -103 -10 l-27 -11 39 -35 c22 -19 59
-44 84 -56 57 -26 112 -67 105 -78 -3 -4 -17 -11 -31 -14 -21 -6 -40 2 -93 37
-89 59 -120 70 -183 65 -76 -6 -246 -47 -291 -70 l-39 -19 48 -31 c38 -24 54
-29 83 -24 20 4 75 9 122 12 73 5 93 3 132 -14 50 -22 140 -99 131 -113 -3 -5
-51 -9 -107 -9 -94 0 -106 -2 -152 -29 -27 -16 -93 -67 -145 -112 -104 -92
-104 -96 1 -98 61 -1 102 14 172 63 l58 41 129 3 c124 3 128 3 144 -19 9 -13
16 -30 16 -38 0 -8 -30 -44 -67 -80 -58 -56 -72 -77 -96 -143 -26 -69 -28 -81
-17 -113 l12 -37 117 119 c122 124 164 153 257 174 64 15 86 9 162 -41 67 -45
112 -116 112 -176 0 -42 9 -64 26 -64 7 0 29 -14 49 -31 41 -37 50 -33 64 30
17 79 -18 200 -84 287 -24 31 -24 32 -5 49 11 10 22 33 26 52 9 48 42 69 120
77 39 4 86 17 115 31 81 42 142 63 286 100 186 49 256 72 335 111 l67 33 40
-62 c55 -86 63 -111 64 -197 1 -93 -17 -156 -93 -325 -81 -182 -92 -217 -99
-325 -3 -52 -11 -103 -16 -112 -19 -32 -117 -108 -139 -108 -26 0 -52 23 -97
84 -24 34 -39 46 -58 46 -33 0 -240 -100 -264 -128 -19 -21 -19 -21 18 -28 20
-3 70 -4 111 -2 67 5 76 3 89 -16 21 -28 19 -33 -15 -51 -39 -20 -79 -19 -162
6 -89 27 -192 23 -257 -10 -40 -21 -141 -114 -141 -131 0 -4 25 -12 54 -18 57
-12 92 -6 195 33 57 21 97 14 186 -33 97 -52 101 -92 9 -92 -51 0 -81 -23
-129 -95 -20 -29 -56 -70 -82 -91 -53 -44 -73 -85 -73 -153 l0 -49 61 26 c51
23 70 38 111 93 80 107 147 132 272 105 41 -10 77 -23 79 -31 3 -7 -14 -71
-39 -142 -61 -174 -64 -189 -53 -246 5 -27 9 -72 9 -98 0 -27 4 -49 8 -49 16
0 91 70 112 104 11 19 27 70 36 113 35 188 76 253 157 253 83 0 134 -52 194
-200 37 -93 91 -166 116 -157 15 5 30 135 23 198 -7 66 -33 124 -88 192 -26
33 -48 67 -48 74 0 8 11 29 24 46 36 49 54 88 72 163 25 102 33 113 88 107
103 -12 230 35 481 178 145 83 157 89 405 189 387 158 540 264 655 456 39 65
46 71 124 111 149 74 307 103 576 103 210 0 299 -7 729 -61 175 -21 336 -39
358 -39 51 0 93 -25 113 -66 22 -47 19 -69 -16 -109 -44 -50 -93 -62 -167 -41
-100 28 -108 25 -286 -84 -89 -54 -170 -108 -179 -118 -16 -17 -14 -19 47 -39
l64 -20 97 60 c80 50 107 61 151 65 63 5 72 -10 16 -26 -21 -7 -67 -35 -101
-62 -35 -28 -89 -64 -120 -79 -82 -42 -181 -154 -181 -206 0 -9 6 -15 13 -13
6 2 52 16 101 32 86 27 93 32 160 102 57 60 80 77 120 89 61 19 123 19 156 1
l25 -14 -30 -12 c-130 -52 -177 -91 -282 -234 -37 -50 -43 -65 -43 -108 l0
-50 35 31 c20 17 48 34 63 37 55 14 101 44 136 92 73 100 150 149 219 140 l28
-3 -35 -41 c-49 -58 -56 -81 -56 -193 0 -95 13 -161 31 -161 5 0 18 17 29 38
12 20 32 52 45 70 20 28 23 42 18 77 -13 101 13 139 157 228 l85 52 92 0 c91
0 92 0 127 -34 57 -55 63 -82 36 -148 -21 -50 -22 -59 -9 -81 29 -52 44 -51
100 3 61 60 83 99 75 131 -4 13 -23 50 -43 82 -31 47 -38 69 -43 129 -6 82
-22 109 -91 161 -134 99 -159 133 -138 183 20 51 54 60 165 49 115 -12 237 -2
504 40 282 44 273 43 312 27 51 -21 83 -70 128 -192 63 -176 117 -236 253
-287 88 -33 151 -96 166 -166 33 -159 -25 -263 -165 -292 -61 -13 -77 -11
-222 32 -123 36 -157 33 -201 -18 -67 -76 -89 -163 -48 -188 14 -9 30 -4 80
22 117 61 193 39 310 -90 l72 -80 68 6 c75 7 81 4 147 -83 20 -27 34 -34 72
-38 71 -8 79 -23 86 -155 l7 -113 35 -17 c19 -10 47 -31 62 -47 14 -16 29 -27
32 -24 9 10 6 94 -5 143 -6 25 -12 77 -13 115 -2 66 -12 95 -49 148 -10 14 -9
19 3 27 24 16 66 11 84 -9 24 -26 46 -156 44 -255 l-2 -85 37 -33 c20 -18 43
-46 51 -62 l15 -30 11 30 c19 47 24 139 10 191 -7 26 -13 76 -15 111 -2 50
-10 78 -38 134 l-36 70 37 -7 c90 -17 116 -46 153 -177 44 -155 58 -186 105
-239 24 -27 47 -61 50 -76 7 -25 8 -25 15 -8 13 34 10 179 -7 265 -17 94 -69
247 -91 272 -8 9 -51 29 -94 43 -44 15 -79 30 -79 35 0 25 144 16 177 -12 8
-6 34 -42 59 -80 37 -57 53 -73 97 -93 28 -14 57 -25 64 -25 6 0 26 -12 43
-27 26 -21 33 -24 41 -12 13 20 3 57 -33 114 -18 28 -52 84 -77 125 -105 170
-121 180 -302 180 -161 0 -179 9 -231 109 -45 85 -49 141 -17 208 24 50 55 74
129 101 30 11 154 60 275 110 244 99 518 196 790 278 212 64 325 117 455 215
176 133 303 176 489 166 136 -7 226 -33 376 -107 172 -85 298 -184 494 -389
235 -247 313 -309 523 -416 218 -111 289 -158 369 -242 63 -68 184 -247 347
-518 559 -925 858 -1693 958 -2457 22 -169 30 -552 15 -719 -78 -856 -457
-1615 -1180 -2361 -132 -137 -387 -374 -531 -494 -1214 -1014 -2923 -1455
-4640 -1198 -548 82 -1118 245 -1520 434 -91 43 -191 86 -222 96 -56 17 -58
17 -78 -1 -33 -30 -27 -77 17 -116 93 -81 242 -159 493 -256 1188 -461 2548
-582 3780 -337 847 169 1676 538 2310 1028 195 151 314 258 539 485 410 414
679 742 905 1103 570 909 687 1814 375 2893 -153 530 -366 1032 -864 2042
l-243 492 -7 83 c-27 315 -172 633 -465 1017 -139 183 -541 564 -1785 1691
-538 488 -1110 1012 -1335 1224 -239 225 -439 364 -750 520 -556 280 -1167
433 -1995 498 -89 7 -328 12 -540 12 -349 1 -390 -1 -495 -21 -287 -54 -491
-131 -945 -356 -374 -185 -477 -231 -646 -285 -240 -77 -421 -102 -726 -102
-101 1 -231 -4 -290 -11 -141 -15 -143 -13 -143 145 -1 148 -11 188 -66 252
-83 98 -169 108 -318 36 -113 -54 -189 -107 -259 -181 -33 -33 -65 -61 -72
-61 -8 0 -44 7 -82 16 -159 37 -239 47 -435 53 l-206 6 -38 30 c-20 17 -51 55
-68 85 -28 49 -31 63 -30 135 0 49 11 125 27 196 15 64 27 142 27 172 0 49 -4
61 -32 93 -57 65 -123 84 -223 64z"/>
</g>
</svg>
