<?xml version="1.0" standalone="no"?>
<!DOCTYPE svg PUBLIC "-//W3C//DTD SVG 20010904//EN"
 "http://www.w3.org/TR/2001/REC-SVG-20010904/DTD/svg10.dtd">
<svg version="1.0" xmlns="http://www.w3.org/2000/svg"
 width="1536.000000pt" height="686.000000pt" viewBox="0 0 1536.000000 686.000000"
 preserveAspectRatio="xMidYMid meet">
<metadata>
Created by potrace 1.16, written by Peter Selinger 2001-2019
</metadata>
<g transform="translate(0.000000,686.000000) scale(0.100000,-0.100000)"
fill="#000000" stroke="none">
<path d="M7571 6845 c-35 -8 -92 -24 -127 -35 -34 -12 -95 -22 -136 -24 -40
-1 -150 -11 -244 -21 -165 -18 -174 -18 -247 -1 -87 21 -140 17 -257 -19 -41
-13 -97 -27 -125 -31 -52 -7 -107 -27 -237 -88 l-78 -35 31 42 31 42 -52 3
c-71 4 -168 -28 -329 -110 -111 -56 -142 -68 -183 -68 -27 0 -74 -9 -106 -21
-31 -11 -75 -26 -97 -33 -54 -17 -112 -55 -198 -129 -168 -145 -187 -155 -187
-91 l0 36 -77 -72 c-43 -40 -93 -84 -111 -98 -32 -25 -34 -25 -68 -9 -19 10
-42 17 -51 17 -9 0 15 29 56 68 76 72 90 99 44 87 -41 -10 -152 -61 -285 -133
-113 -60 -119 -62 -190 -62 -40 0 -79 4 -85 8 -9 6 2 24 38 61 28 29 49 54 47
56 -21 17 -61 27 -115 26 -75 0 -139 -26 -233 -92 -52 -37 -63 -41 -97 -35
-93 17 -134 17 -180 3 -26 -9 -80 -18 -119 -22 -40 -3 -125 -17 -190 -31 -235
-49 -211 -49 -319 2 -427 199 -922 198 -1720 -6 -104 -27 -266 -72 -360 -101
-149 -46 -181 -53 -260 -53 -88 -1 -94 -3 -255 -70 -291 -120 -351 -161 -365
-247 -4 -23 -18 -62 -31 -87 -13 -25 -24 -54 -24 -65 0 -10 -11 -32 -25 -49
-29 -34 -55 -115 -55 -173 0 -94 65 -255 163 -402 217 -327 590 -575 997 -664
49 -10 180 -28 292 -39 534 -54 1065 -153 1458 -271 74 -23 225 -76 335 -119
286 -112 438 -148 576 -138 l61 4 171 -210 c373 -460 472 -570 592 -661 39
-30 87 -71 108 -92 l37 -39 -16 -47 c-23 -68 -92 -139 -218 -222 -193 -128
-388 -317 -530 -514 -188 -262 -346 -576 -371 -738 -17 -107 -139 -203 -413
-324 -228 -101 -338 -165 -348 -203 -6 -27 11 -74 37 -102 11 -12 23 -44 28
-72 9 -57 21 -76 62 -98 46 -23 92 -17 277 40 254 77 238 75 259 29 48 -106
57 -104 344 72 263 162 335 244 358 408 6 40 20 86 35 111 36 62 140 155 248
222 143 89 602 308 968 461 213 89 340 156 400 210 27 25 50 41 50 36 0 -4
-11 -53 -25 -108 -14 -55 -30 -154 -36 -220 -25 -288 -68 -407 -189 -526 -81
-80 -214 -149 -320 -168 -93 -17 -180 -47 -234 -81 -44 -28 -106 -108 -106
-137 0 -22 36 -51 77 -62 33 -9 42 -8 76 15 21 14 41 23 44 21 2 -3 0 -29 -5
-58 -11 -61 -3 -85 33 -99 28 -11 33 -10 225 52 85 27 177 50 205 51 l50 2 6
-61 c3 -33 9 -65 12 -71 20 -33 127 -18 310 43 241 80 324 126 401 224 92 117
145 250 221 550 50 201 108 383 162 509 72 170 198 378 309 513 35 42 85 109
110 149 52 80 185 350 187 380 1 11 9 19 20 19 10 0 88 -25 173 -55 320 -114
747 -233 1039 -289 355 -68 627 -92 960 -82 502 14 837 61 1011 140 l52 24 53
-127 c29 -69 95 -216 147 -326 277 -587 304 -651 349 -825 44 -173 34 -286
-31 -360 -13 -14 -28 -43 -34 -65 -7 -22 -27 -60 -46 -85 -30 -40 -51 -53
-176 -110 -152 -70 -170 -86 -170 -152 0 -19 7 -44 16 -57 16 -22 21 -23 95
-17 l79 6 -32 -57 c-35 -64 -34 -97 3 -134 19 -19 28 -21 100 -15 55 5 90 3
114 -5 32 -12 44 -11 107 11 111 38 423 194 533 268 121 80 230 186 275 267
69 123 221 332 250 343 9 3 72 -72 119 -140 43 -65 81 -147 81 -180 0 -63 -90
-122 -291 -189 -234 -78 -314 -130 -320 -211 -11 -133 9 -154 171 -169 86 -7
117 -14 125 -26 48 -77 101 -92 198 -58 63 22 63 22 63 2 -1 -14 15 -31 48
-51 40 -25 60 -31 105 -31 92 0 244 83 431 234 41 34 125 100 187 147 155 117
218 193 237 281 11 47 -18 183 -70 335 -71 208 -320 820 -386 951 -65 127
-177 302 -264 409 -30 37 -54 70 -54 74 0 13 146 187 255 304 145 156 380 449
477 595 96 144 192 338 246 496 73 212 153 535 197 792 6 36 7 37 48 37 61 0
174 26 212 49 l33 19 27 -28 c32 -34 118 -81 208 -115 65 -24 65 -24 90 -5
l25 20 6 -38 c9 -62 59 -149 166 -290 l100 -133 0 -259 c0 -265 13 -355 24
-162 3 59 9 161 13 227 l7 120 14 -65 c13 -58 13 -77 -2 -175 -17 -119 -22
-390 -7 -400 5 -3 12 21 16 52 12 111 36 288 40 291 4 4 12 -82 20 -218 7
-123 28 -231 48 -245 10 -7 23 -54 36 -130 24 -130 26 -135 47 -135 9 0 14
-11 14 -35 0 -19 4 -35 9 -35 13 0 21 120 21 338 0 188 2 206 20 229 l19 25 3
-143 c3 -128 5 -144 21 -147 15 -3 17 5 17 69 0 40 2 70 5 68 2 -3 9 -45 14
-95 8 -68 7 -104 -3 -154 -8 -36 -12 -68 -9 -72 6 -11 33 -10 33 1 0 5 8 17
18 27 15 16 17 39 13 253 -1 130 0 233 3 230 10 -9 36 -156 36 -199 0 -41 16
-62 31 -39 16 25 9 152 -12 244 -12 50 -21 117 -20 150 1 45 -7 82 -30 145
-17 47 -41 124 -54 171 -13 47 -42 126 -64 175 -22 50 -64 164 -94 255 -157
478 -445 840 -889 1115 -427 264 -991 443 -1743 553 -142 21 -224 38 -282 60
-308 114 -714 157 -983 105 -62 -12 -95 -12 -190 -3 -125 13 -347 8 -525 -12
-102 -11 -115 -10 -180 9 -96 28 -234 58 -400 86 -77 14 -201 40 -275 60 -242
64 -718 148 -975 172 -38 3 -80 13 -92 20 -14 9 -51 14 -96 14 -41 0 -136 3
-212 7 l-138 6 27 22 28 22 -27 21 c-44 35 -92 45 -182 39 -69 -5 -83 -4 -83
8 0 8 -8 15 -18 15 -10 0 -35 9 -57 20 -46 24 -119 25 -214 5z m7529 -3534 c0
-107 -2 -192 -4 -190 -5 5 -36 340 -36 385 0 22 2 23 20 12 19 -12 20 -24 20
-207z m0 -246 c0 -8 -2 -15 -4 -15 -2 0 -6 7 -10 15 -3 8 -1 15 4 15 6 0 10
-7 10 -15z"/>
</g>
</svg>
