<?xml version="1.0" standalone="no"?>
<!DOCTYPE svg PUBLIC "-//W3C//DTD SVG 20010904//EN"
 "http://www.w3.org/TR/2001/REC-SVG-20010904/DTD/svg10.dtd">
<svg version="1.0" xmlns="http://www.w3.org/2000/svg"
 width="1536.000000pt" height="545.000000pt" viewBox="0 0 1536.000000 545.000000"
 preserveAspectRatio="xMidYMid meet">
<metadata>
Created by potrace 1.16, written by Peter Selinger 2001-2019
</metadata>
<g transform="translate(0.000000,545.000000) scale(0.100000,-0.100000)"
fill="#000000" stroke="none">
<path d="M2862 5420 c-47 -22 -92 -58 -177 -141 l-113 -110 -169 -10 c-92 -5
-361 -13 -598 -18 l-430 -8 -117 -57 c-64 -32 -150 -68 -190 -81 -40 -13 -122
-44 -183 -68 -60 -25 -166 -62 -235 -82 -133 -39 -230 -79 -282 -118 -18 -14
-89 -55 -157 -92 -196 -108 -219 -137 -207 -269 7 -86 65 -321 95 -393 27 -61
49 -83 104 -103 32 -12 58 -35 112 -103 76 -95 115 -127 157 -127 34 0 53 32
63 108 l7 52 211 -1 c117 -1 259 -4 317 -8 99 -6 105 -7 108 -28 7 -48 -147
-181 -246 -213 -35 -11 -53 -25 -75 -57 -34 -51 -101 -93 -148 -93 -40 0 -129
49 -190 105 -22 19 -45 35 -52 35 -20 0 -57 -43 -57 -66 0 -10 31 -89 69 -174
82 -185 120 -233 221 -284 92 -46 162 -59 284 -54 161 7 257 54 447 220 113
99 194 158 318 233 l64 38 352 -11 c338 -11 399 -18 417 -45 6 -9 11 -7 19 6
6 10 22 17 40 17 28 0 46 -13 87 -64 7 -9 25 -16 40 -16 41 0 96 -18 225 -72
65 -27 146 -54 180 -59 88 -15 114 -27 125 -59 10 -27 11 -28 74 -23 88 7 161
-22 227 -89 31 -32 55 -49 65 -45 10 4 18 -4 25 -24 13 -37 54 -58 82 -41 34
22 53 13 130 -64 71 -70 82 -77 130 -85 83 -13 127 -55 158 -150 10 -29 24
-56 32 -59 8 -4 23 -11 34 -16 65 -32 97 -227 125 -759 13 -247 13 -765 0
-878 -13 -107 -27 -139 -86 -180 -73 -52 -129 -68 -273 -82 -131 -12 -135 -14
-189 -52 -89 -63 -115 -102 -120 -178 -4 -58 -2 -66 21 -89 18 -18 38 -26 64
-27 60 -2 88 -13 91 -37 2 -12 15 -31 30 -43 28 -22 29 -22 155 0 60 11 224
25 402 36 l100 6 -37 -38 c-50 -52 -63 -88 -43 -119 21 -32 62 -31 126 2 28
14 54 23 57 19 3 -3 5 -27 3 -54 -4 -80 37 -103 100 -56 92 68 160 71 215 11
40 -43 59 -45 97 -8 l28 27 259 3 260 3 58 65 c120 130 148 219 162 513 11
237 18 262 190 646 134 299 186 434 224 590 l23 89 59 24 c54 22 80 25 334 33
151 5 781 8 1400 7 l1124 -3 9 -35 c4 -19 11 -266 14 -549 l6 -513 -29 -24
c-67 -56 -77 -58 -281 -64 l-193 -5 -80 -88 c-44 -49 -89 -105 -101 -124 -22
-35 -22 -35 -2 -61 30 -40 103 -82 160 -91 32 -5 63 -18 83 -34 28 -24 40 -27
108 -27 42 0 215 -5 384 -12 344 -13 367 -10 484 46 119 57 137 87 149 246 9
118 30 232 70 370 45 155 66 273 115 630 43 312 63 428 80 460 11 20 45 26 67
12 7 -4 35 -79 63 -165 65 -200 98 -263 247 -467 66 -91 154 -217 195 -280 41
-63 108 -156 149 -205 117 -140 149 -185 149 -208 0 -64 -237 -215 -425 -272
-121 -37 -198 -77 -263 -138 -64 -62 -82 -93 -82 -146 0 -46 20 -71 58 -71 59
0 102 -20 119 -55 9 -18 25 -36 37 -39 12 -3 71 -3 133 1 l111 6 48 -32 c56
-36 76 -39 105 -10 34 34 72 39 284 39 273 0 465 14 550 41 162 50 242 212
189 388 -8 29 -39 98 -68 154 -78 149 -199 523 -230 709 -47 279 -60 451 -61
788 0 354 0 354 74 565 28 77 68 199 90 270 44 142 127 318 152 323 20 4 124
-66 195 -130 78 -72 286 -328 345 -425 28 -45 80 -120 116 -165 90 -114 153
-208 201 -303 22 -44 63 -120 91 -170 28 -49 56 -106 62 -125 17 -52 55 -97
93 -111 31 -11 34 -16 38 -59 3 -26 13 -64 24 -86 18 -36 23 -40 73 -47 73
-10 117 -37 236 -147 119 -110 149 -134 194 -149 47 -15 113 -71 149 -127 17
-25 32 -50 34 -55 6 -19 75 -27 104 -13 14 8 31 14 38 14 6 0 43 -28 81 -61
73 -64 211 -159 232 -159 15 0 65 59 58 70 -10 17 14 20 29 4 24 -24 130 -35
347 -37 137 -1 200 2 210 10 8 6 48 16 89 22 133 18 330 137 330 199 0 15 6
22 20 22 16 0 20 7 20 33 0 17 9 46 20 62 11 17 20 38 20 48 0 10 7 20 15 23
11 5 12 11 5 24 -6 10 -10 27 -10 38 0 19 -12 20 -347 27 -252 4 -365 10 -408
21 -69 17 -149 62 -325 184 -69 48 -227 155 -351 238 -162 108 -243 170 -286
215 -72 78 -195 241 -328 437 -55 80 -154 217 -220 306 -147 194 -194 271
-235 389 -35 102 -66 152 -193 315 -50 63 -124 167 -165 230 -200 307 -479
643 -577 692 -22 11 -112 71 -200 133 -264 186 -292 200 -620 321 -171 64
-466 140 -630 163 -345 49 -825 93 -1275 116 -281 15 -482 33 -620 57 -83 14
-2588 22 -2889 9 -135 -6 -331 -22 -436 -35 -104 -14 -302 -34 -440 -46 -268
-22 -343 -36 -530 -100 l-119 -40 -528 0 -528 0 0 61 c0 84 -17 134 -57 169
-44 39 -89 39 -171 0z m2347 -4176 c-5 -109 -15 -230 -22 -269 -6 -38 -11
-134 -12 -212 0 -93 -4 -146 -11 -153 -22 -22 -26 61 -14 286 11 227 22 353
41 487 20 140 30 70 18 -139z"/>
</g>
</svg>
