<?xml version="1.0" standalone="no"?>
<!DOCTYPE svg PUBLIC "-//W3C//DTD SVG 20010904//EN"
 "http://www.w3.org/TR/2001/REC-SVG-20010904/DTD/svg10.dtd">
<svg version="1.0" xmlns="http://www.w3.org/2000/svg"
 width="1536.000000pt" height="795.000000pt" viewBox="0 0 1536.000000 795.000000"
 preserveAspectRatio="xMidYMid meet">
<metadata>
Created by potrace 1.16, written by Peter Selinger 2001-2019
</metadata>
<g transform="translate(0.000000,795.000000) scale(0.100000,-0.100000)"
fill="#000000" stroke="none">
<path d="M5445 7940 c-59 -10 -383 -174 -441 -224 -21 -18 -71 -50 -111 -70
-46 -24 -85 -54 -112 -86 -23 -27 -94 -84 -163 -130 -68 -46 -152 -106 -188
-135 -36 -28 -114 -80 -175 -114 -60 -34 -144 -87 -185 -117 -137 -102 -290
-167 -758 -325 l-234 -78 -86 76 c-81 71 -166 123 -203 123 -8 0 -39 -12 -67
-26 -71 -35 -84 -63 -92 -199 -3 -60 -11 -119 -18 -131 -21 -39 -80 -74 -337
-200 -140 -69 -297 -153 -348 -187 -91 -60 -214 -177 -412 -390 -58 -62 -98
-97 -111 -97 -26 0 -305 -141 -399 -202 -110 -71 -207 -152 -391 -329 -218
-210 -320 -301 -417 -373 -127 -95 -184 -191 -194 -326 -6 -76 16 -176 49
-222 15 -22 24 -59 34 -137 16 -138 68 -335 101 -383 28 -41 89 -95 148 -129
34 -20 41 -21 100 -11 90 17 119 15 141 -9 29 -32 103 -66 175 -79 159 -30
787 -27 919 5 70 17 221 43 395 70 158 24 360 77 452 119 44 19 104 41 134 47
140 28 186 42 258 78 102 52 220 141 344 260 115 110 172 151 246 181 127 50
385 70 931 72 l365 2 135 -31 c74 -17 174 -38 222 -47 109 -20 300 -84 370
-123 101 -57 124 -120 139 -383 15 -255 7 -502 -20 -605 -33 -125 -103 -287
-164 -377 -64 -96 -319 -417 -446 -561 -142 -162 -177 -206 -276 -348 -136
-195 -298 -393 -350 -429 -115 -79 -234 -117 -407 -129 -130 -9 -161 -22 -210
-82 -39 -48 -51 -102 -33 -145 13 -32 21 -37 85 -49 19 -4 51 -16 70 -27 52
-30 84 -37 127 -27 21 5 146 13 278 19 144 7 261 17 292 26 67 18 103 55 278
279 166 212 251 303 479 514 323 298 550 491 931 792 74 59 210 183 316 291
103 103 190 188 193 188 4 0 5 -294 3 -652 -5 -722 -4 -714 -72 -887 -20 -51
-47 -134 -60 -184 -22 -83 -29 -96 -68 -132 -27 -25 -134 -86 -277 -160 -128
-66 -248 -134 -266 -151 -30 -28 -34 -37 -34 -82 0 -68 6 -79 54 -101 22 -10
58 -35 78 -55 30 -29 45 -36 76 -36 57 0 457 57 527 75 133 35 194 85 220 183
38 143 61 201 140 358 46 93 109 210 140 259 153 247 206 439 265 966 38 336
110 781 149 915 15 54 44 151 64 216 20 64 39 139 43 167 l7 51 1462 0 1463 0
63 -117 c162 -308 494 -813 743 -1133 112 -144 278 -314 417 -426 194 -157
418 -433 528 -651 37 -74 56 -188 46 -277 -9 -77 -14 -86 -94 -171 -37 -39
-95 -107 -129 -153 -77 -101 -125 -148 -177 -174 -22 -11 -75 -45 -117 -74
-93 -66 -152 -93 -199 -94 -59 0 -131 -27 -184 -69 -27 -22 -87 -64 -132 -93
-93 -60 -108 -83 -98 -152 8 -50 32 -76 72 -76 41 0 102 -31 129 -67 26 -34
29 -35 73 -29 96 14 211 25 366 36 201 14 294 27 320 44 11 7 37 47 57 87 79
155 279 384 508 583 124 107 200 188 259 275 24 34 56 71 73 81 74 45 220 284
257 420 51 189 44 213 -94 362 -298 321 -542 630 -667 848 -30 52 -72 170 -64
178 3 3 110 -32 238 -76 128 -45 276 -93 329 -106 53 -14 165 -50 250 -81 85
-32 258 -93 384 -137 478 -166 628 -241 770 -382 83 -84 123 -145 135 -207 13
-66 13 -436 0 -597 -8 -97 -15 -133 -35 -176 -40 -85 -116 -148 -259 -216
-138 -66 -171 -96 -181 -164 -9 -57 8 -108 46 -141 32 -26 44 -30 122 -39 26
-3 58 -13 72 -22 36 -23 70 -11 128 46 57 56 74 63 207 85 189 31 242 55 285
128 60 104 71 166 90 552 23 462 34 568 81 805 13 66 17 140 17 325 1 347 -23
437 -143 548 -76 70 -146 106 -335 167 -268 89 -374 137 -580 267 -150 95
-239 169 -392 326 -217 224 -386 465 -370 529 9 35 140 187 338 393 203 212
296 322 364 428 26 42 52 77 55 77 4 0 12 -35 18 -77 6 -43 25 -170 41 -283
17 -113 35 -271 41 -350 14 -185 21 -214 60 -230 87 -36 182 29 195 133 10 82
-19 849 -45 1197 -23 297 -31 328 -146 587 -100 226 -198 412 -251 478 -68 84
-191 163 -429 274 -364 171 -536 232 -720 255 -80 10 -132 23 -194 49 -170 70
-355 100 -910 147 -392 33 -487 42 -730 70 -91 11 -290 29 -442 40 -304 22
-447 38 -673 75 -147 25 -272 35 -655 55 -301 15 -556 53 -975 145 -210 46
-318 58 -630 75 -689 36 -2291 69 -2400 50z"/>
<path d="M12970 2528 c0 -16 19 -38 33 -38 4 0 7 10 5 22 -3 25 -38 39 -38 16z"/>
</g>
</svg>
